<svg id="Layer_1" data-name="Layer 1" xmlns="http://www.w3.org/2000/svg" viewBox="0 0 464.61 354"><defs><style>.cls-1,.cls-13,.cls-6{fill:none;}.cls-1,.cls-13,.cls-15,.cls-6{stroke:#231f20;stroke-linejoin:round;}.cls-1,.cls-15{stroke-width:5px;}.cls-2{fill:#d1d3d4;}.cls-3{fill:#939598;}.cls-4{fill:#c5c7c8;}.cls-5{fill:#f1f2f2;}.cls-6{stroke-width:4.93px;}.cls-7{fill:#ababab;}.cls-8{fill:#d4130b;}.cls-9{fill:#e51a0d;}.cls-10{fill:#d2120a;}.cls-11{fill:#fff;}.cls-12{fill:#bcbec0;}.cls-13{stroke-width:4.91px;}.cls-14{fill:#191919;}.cls-15{fill:#00aeef;}</style></defs><title>Mission</title><g id="_Group_" data-name="&lt;Group&gt;"><path class="cls-1" d="M317.07,142.63H327.5v-23H317.07c-.1-3-2.36-7.1-2.53-7.41l9.19-9.84L307.82,86.14l-9.7,9c-.31-.16-3.62-2.58-6.62-2.69V81.63h-23V92.47c0,.11-5,2.36-5.34,2.53l-8.8-9.17-15.72,15.91,9.27,10.48c-.17.31-2.32,4.41-2.42,7.41h-15v23h15c.1,0,2.35,4.24,2.51,4.54l-9.17,8.4,15.91,15.54,8.42-9.38c.31.17,5.34,2.22,5.34,2.34v14.56h23V164.07c3-.12,6.31-2.37,6.62-2.53l9.43,9.17,16-15.91-9.11-7.63C314.64,146.87,317,142.63,317.07,142.63Z" transform="translate(-25.39 -79.13)"/></g><circle class="cls-2" cx="278.85" cy="129.59" r="12.33" transform="translate(65.24 293.62) rotate(-77.18)"/><rect class="cls-3" x="181.4" y="141.84" width="283.2" height="76.96"/><rect class="cls-2" x="195.25" y="218.79" width="255.49" height="121.59"/><rect class="cls-4" x="194.61" y="219" width="256" height="23"/><g id="_Group_2" data-name="&lt;Group&gt;"><rect class="cls-5" x="296.06" y="204.17" width="55.41" height="23.09"/><rect class="cls-6" x="296.06" y="204.17" width="55.41" height="23.09"/></g><line class="cls-6" x1="280.67" y1="141.84" x2="280.67" y2="107.98"/><line class="cls-6" x1="366.86" y1="141.84" x2="366.86" y2="107.98"/><rect class="cls-7" x="269.13" y="97.2" width="107.74" height="12.31"/><line class="cls-1" x1="194.61" y1="341.5" x2="450.61" y2="341.5"/><line class="cls-1" x1="181.61" y1="219.5" x2="294.61" y2="219.5"/><line class="cls-1" x1="350.61" y1="219.5" x2="464.61" y2="219.5"/><g id="_Group_3" data-name="&lt;Group&gt;"><path class="cls-8" d="M147.05,175.79A121.67,121.67,0,1,1,25.39,297.45,121.65,121.65,0,0,1,147.05,175.79Z" transform="translate(-25.39 -79.13)"/><path class="cls-8" d="M268.71,297.45A121.66,121.66,0,1,1,147.05,175.79,121.67,121.67,0,0,1,268.71,297.45Z" transform="translate(-25.39 -79.13)"/></g><path class="cls-5" d="M229.57,297.45a82.52,82.52,0,1,1-82.52-82.52A82.53,82.53,0,0,1,229.57,297.45Z" transform="translate(-25.39 -79.13)"/><path class="cls-9" d="M195.41,297.07a48.75,48.75,0,1,1-48.74-48.75A48.74,48.74,0,0,1,195.41,297.07Z" transform="translate(-25.39 -79.13)"/><path class="cls-5" d="M162,297.64a15.93,15.93,0,1,1-15.93-15.93A15.93,15.93,0,0,1,162,297.64Z" transform="translate(-25.39 -79.13)"/><g id="_Group_4" data-name="&lt;Group&gt;"><polygon class="cls-10" points="321.97 329.85 321.97 349.58 139.47 349.58 139.47 329.85 164.13 329.85 298.95 329.85 321.97 329.85"/><polygon class="cls-10" points="298.95 265.73 298.95 329.85 164.13 329.85 164.13 265.73 216.75 265.73 247.98 265.73 298.95 265.73"/><rect class="cls-10" x="216.74" y="172.01" width="31.24" height="93.72"/><path class="cls-10" d="M349,209.22v5.13c0,20.63-13.55,36.79-30.25,36.79h-121c-16.7,0-31.29-16.16-31.29-36.79V134.41H349Z" transform="translate(-25.39 -79.13)"/><line class="cls-6" x1="322.79" y1="55.28" x2="141.94" y2="55.28"/><path class="cls-6" d="M273.37,251.14h45.38c16.7,0,30.25-16.16,30.25-36.79V134.41" transform="translate(-25.39 -79.13)"/><path class="cls-6" d="M166.5,134.41v79.94c0,20.63,14.59,36.79,31.29,36.79h44.34" transform="translate(-25.39 -79.13)"/><polyline class="cls-6" points="216.75 265.73 216.75 172.01 247.98 172.01 247.98 265.73"/><polyline class="cls-6" points="164.13 329.85 164.13 265.73 216.75 265.73 247.98 265.73 298.95 265.73 298.95 329.85"/><polygon class="cls-6" points="298.95 329.85 321.97 329.85 321.97 349.58 139.47 349.58 139.47 329.85 164.13 329.85 298.95 329.85"/><path class="cls-6" d="M348.18,134.41h37v50.14s-5.75,24.67-36.17,24.67" transform="translate(-25.39 -79.13)"/><path class="cls-6" d="M167.33,134.41h-37v50.14s5.76,24.67,36.17,24.67" transform="translate(-25.39 -79.13)"/></g><rect class="cls-11" x="179.61" y="280" width="104" height="38"/><rect class="cls-12" x="233.61" y="299" width="40" height="5"/><rect class="cls-12" x="258.61" y="291" width="15" height="5"/><line class="cls-1" x1="189.61" y1="301.5" x2="194.61" y2="301.5"/><line class="cls-1" x1="197.61" y1="301.5" x2="207.61" y2="301.5"/><line class="cls-1" x1="189.61" y1="293.5" x2="201.61" y2="293.5"/><polygon class="cls-11" points="171.61 58 171.61 121.86 171.61 143.24 193.11 128.44 214.61 143.24 214.61 121.86 214.61 58 171.61 58"/><line class="cls-1" x1="192.11" y1="56" x2="192.11" y2="100"/><path class="cls-6" d="M108.14,150s-5.76-25.62-42.75-33" transform="translate(-25.39 -79.13)"/><polyline class="cls-6" points="57.49 31.71 40 37.88 46.76 53.2"/><circle class="cls-6" cx="108.14" cy="117.83" r="7.4" transform="translate(-77.04 31.85) rotate(-45)"/><circle class="cls-6" cx="83.48" cy="147.42" r="7.4" transform="translate(-105.19 23.08) rotate(-45)"/><line class="cls-1" x1="360.61" y1="20.5" x2="367.61" y2="20.5"/><line class="cls-1" x1="373.61" y1="20.5" x2="380.61" y2="20.5"/><line class="cls-1" x1="386.61" y1="20.5" x2="393.61" y2="20.5"/><line class="cls-1" x1="360.61" y1="33.5" x2="380.61" y2="33.5"/><line class="cls-1" x1="153.61" y1="19.5" x2="146.61" y2="19.5"/><line class="cls-1" x1="140.61" y1="19.5" x2="133.61" y2="19.5"/><line class="cls-1" x1="127.61" y1="19.5" x2="120.61" y2="19.5"/><line class="cls-1" x1="153.61" y1="5.5" x2="133.61" y2="5.5"/><g id="_Group_5" data-name="&lt;Group&gt;"><path class="cls-10" d="M471.12,209.64V244H451.49V209.64H438.4v22.9H418.77v-22.9H268.26v11.45a4.9,4.9,0,0,1-4.9,4.9h-40.9a4.9,4.9,0,0,1-4.91-4.9v-40.9a4.9,4.9,0,0,1,4.91-4.91h40.9a4.9,4.9,0,0,1,4.9,4.91v11.45H471.12Z" transform="translate(-25.39 -79.13)"/><path class="cls-13" d="M451.49,191.64H268.26V180.19a4.9,4.9,0,0,0-4.9-4.91h-40.9a4.9,4.9,0,0,0-4.91,4.91v40.9a4.9,4.9,0,0,0,4.91,4.9h40.9a4.9,4.9,0,0,0,4.9-4.9V209.64H418.77v22.9H438.4v-22.9h13.09V244h19.63V191.64Z" transform="translate(-25.39 -79.13)"/></g><g id="_Group_6" data-name="&lt;Group&gt;"><rect class="cls-11" x="205.25" y="107.6" width="26.17" height="26.17" rx="4.91" ry="4.91"/></g><rect class="cls-10" x="273.96" y="225.39" width="89.98" height="125.97"/><polygon class="cls-14" points="370.48 202.49 370.48 225.39 363.93 225.39 273.96 225.39 262.5 225.39 262.5 202.49 269.05 202.49 352.1 202.49 370.48 202.49"/><path class="cls-5" d="M393,245.63c3.32,0,5.19-2.79,5.84-6-1,26-21.35,42-21.35,42H294.44V225.18c.08,4.25,5.14,9,9.39,9h7.75c4.29,0,7.4-4.8,7.4-9.09,0,4.29,3.82,9.09,8.11,9.09h6.61v2.54c0,4.29,4.61,8.92,8.9,8.92Z" transform="translate(-25.39 -79.13)"/><path class="cls-5" d="M398.84,239.61c-.65,3.23-2.52,6-5.84,6H342.6c-4.29,0-8.9-4.63-8.9-8.92V229c0-4.05,4.12-4.55,8.2-4.6H393c4.29,0,6.14.33,6.14,4.6v7.75A14.13,14.13,0,0,1,398.84,239.61Z" transform="translate(-25.39 -79.13)"/><path class="cls-5" d="M389.32,208v16.36H364.78V174.69c0-4.28,4.55-5.95,8.84-5.95h7.75c4.29,0,7.95,1.67,7.95,5.95V208Z" transform="translate(-25.39 -79.13)"/><path class="cls-5" d="M342.6,224.36h-.7l0-.82V174.69c0-4.28,4.19-5.95,8.47-5.95h7.76c4.28,0,6.67,1.67,6.67,5.95v49.67Z" transform="translate(-25.39 -79.13)"/><path class="cls-5" d="M341.88,223.54l0,.82c-4.08,0-8.2.55-8.2,4.6v5.21h-6.61c-4.29,0-8.11-4.8-8.11-9.09V174.69c0-4.28,3.82-5.95,8.11-5.95h7.76c4.28,0,7,1.67,7,5.95v48.85Z" transform="translate(-25.39 -79.13)"/><path class="cls-5" d="M294.44,224.36V174.69c0-4.28,5.1-5.95,9.39-5.95h7.75c4.29,0,7.4,1.67,7.4,5.95v50.39c0,4.29-3.11,9.09-7.4,9.09h-7.75c-4.25,0-9.31-4.74-9.39-9v-.82Z" transform="translate(-25.39 -79.13)"/><path class="cls-13" d="M319,225.08c0,4.29-3.11,9.09-7.4,9.09h-7.75c-4.25,0-9.31-4.74-9.39-9V174.69c0-4.28,5.1-5.95,9.39-5.95h7.75c4.29,0,7.4,1.67,7.4,5.95" transform="translate(-25.39 -79.13)"/><path class="cls-13" d="M341.88,174.69c0-4.28-2.75-5.95-7-5.95h-7.76c-4.29,0-8.11,1.67-8.11,5.95v50.39c0,4.29,3.82,9.09,8.11,9.09h7.43" transform="translate(-25.39 -79.13)"/><line class="cls-13" x1="316.49" y1="144.41" x2="316.49" y2="131.32"/><path class="cls-13" d="M341.88,210.45V174.69c0-4.28,4.19-5.95,8.47-5.95h7.76c4.28,0,6.67,1.67,6.67,5.95" transform="translate(-25.39 -79.13)"/><path class="cls-13" d="M364.78,223.54V174.69c0-4.28,4.55-5.95,8.84-5.95h7.75c4.29,0,7.95,1.67,7.95,5.95v50.49" transform="translate(-25.39 -79.13)"/><path class="cls-13" d="M393,224.36c4.29,0,6.14.33,6.14,4.6v7.75a14.13,14.13,0,0,1-.3,2.9c-.65,3.23-2.52,6-5.84,6H342.6c-4.29,0-8.9-4.63-8.9-8.92V229c0-4.05,4.12-4.55,8.2-4.6H393Z" transform="translate(-25.39 -79.13)"/><polyline class="cls-13" points="273.96 225.39 262.5 225.39 262.5 202.49 269.05 202.49"/><polyline class="cls-13" points="352.1 202.49 370.48 202.49 370.48 225.39 363.93 225.39"/><rect class="cls-13" x="273.96" y="225.39" width="89.98" height="125.97"/><line class="cls-13" x1="293.59" y1="239.7" x2="293.59" y2="249.8"/><line class="cls-13" x1="293.59" y1="257.01" x2="293.59" y2="267.1"/><path class="cls-13" d="M294.44,225.18v56.44h83.05s20.39-16,21.35-42" transform="translate(-25.39 -79.13)"/><line class="cls-15" x1="138.61" y1="351.5" x2="451.11" y2="351.5"/><line class="cls-1" x1="431.11" y1="184" x2="431.11" y2="190"/><line class="cls-1" x1="431.11" y1="197" x2="431.11" y2="203"/><line class="cls-1" x1="420.61" y1="194.5" x2="426.61" y2="194.5"/><line class="cls-1" x1="434.61" y1="194.5" x2="441.61" y2="194.5"/><line class="cls-1" x1="429.11" y1="72" x2="429.11" y2="79"/><line class="cls-1" x1="429.11" y1="86" x2="429.11" y2="92"/><line class="cls-1" x1="418.61" y1="83.5" x2="425.61" y2="83.5"/><line class="cls-1" x1="433.61" y1="83.5" x2="439.61" y2="83.5"/><line class="cls-1" x1="218.11" y1="56" x2="218.11" y2="63"/><line class="cls-1" x1="218.11" y1="69" x2="218.11" y2="76"/><line class="cls-1" x1="207.61" y1="66.5" x2="214.61" y2="66.5"/><line class="cls-1" x1="222.61" y1="66.5" x2="228.61" y2="66.5"/><line class="cls-1" x1="171.11" y1="108" x2="171.11" y2="115"/><line class="cls-1" x1="171.11" y1="122" x2="171.11" y2="128"/><line class="cls-1" x1="160.61" y1="119.5" x2="166.61" y2="119.5"/><line class="cls-1" x1="174.61" y1="119.5" x2="181.61" y2="119.5"/><line class="cls-1" x1="323.11" y1="36" x2="323.11" y2="43"/><line class="cls-1" x1="323.11" y1="50" x2="323.11" y2="56"/><line class="cls-1" x1="312.61" y1="47.5" x2="318.61" y2="47.5"/><line class="cls-1" x1="327.61" y1="47.5" x2="333.61" y2="47.5"/><line class="cls-1" x1="150.61" y1="225.5" x2="156.61" y2="225.5"/><line class="cls-1" x1="163.61" y1="225.5" x2="169.61" y2="225.5"/><line class="cls-1" x1="176.61" y1="225.5" x2="183.61" y2="225.5"/><line class="cls-1" x1="183.61" y1="317.5" x2="189.61" y2="317.5"/><line class="cls-1" x1="196.61" y1="317.5" x2="202.61" y2="317.5"/><line class="cls-1" x1="209.61" y1="317.5" x2="215.61" y2="317.5"/><line class="cls-1" x1="395.61" y1="315.5" x2="402.61" y2="315.5"/><line class="cls-1" x1="408.61" y1="315.5" x2="415.61" y2="315.5"/><line class="cls-1" x1="421.61" y1="315.5" x2="428.61" y2="315.5"/></svg>