<svg id="Layer_1" data-name="Layer 1" xmlns="http://www.w3.org/2000/svg" viewBox="0 0 509.77 392.49"><defs><style>.cls-1{fill:#d0110a;}.cls-2,.cls-4{fill:none;}.cls-2,.cls-3,.cls-4,.cls-5,.cls-8{stroke:#231f20;stroke-linejoin:round;}.cls-2,.cls-3,.cls-5,.cls-8{stroke-width:6px;}.cls-3{fill:#fff;}.cls-4{stroke-width:5.86px;}.cls-5{fill:#f1f2f2;}.cls-6{fill:#da150c;}.cls-7{fill:#d6140b;}.cls-8{fill:#a7a9ac;}</style></defs><title>Vision</title><polygon class="cls-1" points="509.5 312.99 104 177.25 104 135.74 509.77 0 509.5 312.99"/><line class="cls-2" y1="389.49" x2="389" y2="389.49"/><line class="cls-2" x1="413" y1="389.49" x2="455" y2="389.49"/><path class="cls-3" d="M486.76,184a41.93,41.93,0,1,0-83.86,0c0,18.44,9.6,34.1,28.6,39.73V252h27V223.74C472.5,218.11,486.76,202.45,486.76,184Z" transform="translate(-1.5 -59.51)"/><rect class="cls-2" x="430" y="192.49" width="27" height="19"/><line class="cls-2" x1="444" y1="192.49" x2="444" y2="122.49"/><line class="cls-2" x1="433" y1="122.49" x2="452" y2="122.49"/><path class="cls-2" d="M425.89,162.58s-14.21,9.92-8.8,28.88" transform="translate(-1.5 -59.51)"/><path class="cls-4" d="M288.69,176.66l-4.3-4.3,8.51-8.5a4.12,4.12,0,0,0,.28-5.72l-6.7-6.7-5,5c-1.66,1.66-3.84.82-5.29-.64l-7.9-7.89c-1.45-1.46-2.07-3.41-.41-5.07l5-5-6-6c-1.46-1.46-4.72-2-6.38-.38L252,139.94l-3.64-3.65c-1.46-1.45-3.47-1.8-5.12-.14l-9,9c-1.65,1.66-2,4.34-.53,5.8l3.65,3.64-6.84,6.83c-1.65,1.66-.66,4.51.8,6l6,6,3.58-3.58a3.74,3.74,0,0,1,5.43,0l7.9,7.9a4,4,0,0,1,.27,5.66L250.92,187l6.69,6.69a3.58,3.58,0,0,0,5.3.14l6.83-6.83,4.31,4.3a4.68,4.68,0,0,0,6.18-.14l9-9C290.88,180.52,290.14,178.12,288.69,176.66Z" transform="translate(-1.5 -59.51)"/><path class="cls-4" d="M326.35,335.7l4.29-4.3,8.51,8.51a4.11,4.11,0,0,0,5.72.28l6.7-6.69-5-5c-1.66-1.66-.82-3.83.64-5.29l7.89-7.9c1.46-1.45,3.41-2.07,5.07-.41l5,5,6-6c1.46-1.46,2-4.72.38-6.38L363.07,299l3.65-3.64a3.39,3.39,0,0,0,.14-5.12l-9-9c-1.66-1.66-4.34-2-5.8-.53l-3.64,3.64-6.83-6.83c-1.66-1.66-4.51-.66-6,.79l-6,6,3.58,3.58a3.75,3.75,0,0,1,0,5.44l-7.9,7.89a4,4,0,0,1-5.66.27L316,297.93l-6.69,6.69a3.6,3.6,0,0,0-.14,5.31l6.83,6.83-4.3,4.3a4.68,4.68,0,0,0,.14,6.18l9,9C322.49,337.89,324.89,337.16,326.35,335.7Z" transform="translate(-1.5 -59.51)"/><line class="cls-4" x1="179.53" y1="132.68" x2="195.01" y2="148.16"/><line class="cls-4" x1="179.53" y1="148.16" x2="195.01" y2="132.68"/><line class="cls-4" x1="454.93" y1="43.32" x2="470.41" y2="58.8"/><line class="cls-4" x1="454.93" y1="58.8" x2="470.41" y2="43.32"/><line class="cls-4" x1="468.11" y1="251.33" x2="483.59" y2="266.81"/><line class="cls-4" x1="468.11" y1="266.81" x2="483.59" y2="251.33"/><line class="cls-4" x1="277.68" y1="185.42" x2="293.16" y2="200.9"/><line class="cls-4" x1="277.68" y1="200.9" x2="293.16" y2="185.42"/><line class="cls-4" x1="339.2" y1="94.59" x2="354.68" y2="110.07"/><line class="cls-4" x1="339.2" y1="110.07" x2="354.68" y2="94.59"/><line class="cls-4" x1="372.89" y1="157.58" x2="388.37" y2="173.06"/><line class="cls-4" x1="372.89" y1="173.06" x2="388.37" y2="157.58"/><rect class="cls-5" x="436" y="211.49" width="13" height="14"/><line class="cls-2" x1="432" y1="296.49" x2="410" y2="296.49"/><line class="cls-2" x1="404" y1="296.49" x2="397" y2="296.49"/><line class="cls-2" x1="432" y1="282.49" x2="410" y2="282.49"/><line class="cls-2" x1="404" y1="282.49" x2="397" y2="282.49"/><line class="cls-2" x1="432" y1="266.49" x2="410" y2="266.49"/><line class="cls-2" x1="404" y1="266.49" x2="397" y2="266.49"/><line class="cls-2" x1="398" y1="58.49" x2="376" y2="58.49"/><line class="cls-2" x1="370" y1="58.49" x2="363" y2="58.49"/><line class="cls-2" x1="398" y1="43.49" x2="376" y2="43.49"/><line class="cls-2" x1="370" y1="43.49" x2="363" y2="43.49"/><line class="cls-2" x1="398" y1="27.49" x2="376" y2="27.49"/><line class="cls-2" x1="370" y1="27.49" x2="363" y2="27.49"/><line class="cls-2" x1="244" y1="228.49" x2="222" y2="228.49"/><line class="cls-2" x1="216" y1="228.49" x2="209" y2="228.49"/><line class="cls-2" x1="244" y1="213.49" x2="222" y2="213.49"/><line class="cls-2" x1="216" y1="213.49" x2="209" y2="213.49"/><line class="cls-2" x1="244" y1="197.49" x2="222" y2="197.49"/><line class="cls-2" x1="216" y1="197.49" x2="209" y2="197.49"/><path class="cls-6" d="M127.5,216V170.35A13.63,13.63,0,0,0,114,157H49.51a13.18,13.18,0,0,0-13,13.35V216Z" transform="translate(-1.5 -59.51)"/><polygon class="cls-3" points="35 303.47 126 256.23 126 200.56 35 250 35 303.47"/><polygon class="cls-7" points="35 389.49 126 389.49 126 256.23 35 303.47 35 389.49"/><polygon class="cls-7" points="35 184.49 35 250 126 200.56 126 184.49 35 184.49"/><rect class="cls-3" x="23" y="156.49" width="116" height="28"/><rect class="cls-8" x="64" y="351.49" width="40" height="38"/><line class="cls-2" x1="83" y1="351.49" x2="83" y2="370.49"/><rect class="cls-3" x="35" y="118.49" width="91" height="25"/><line class="cls-2" x1="80" y1="58.49" x2="80" y2="97.49"/><line class="cls-2" x1="55" y1="118.49" x2="55" y2="143.49"/><line class="cls-2" x1="79" y1="118.49" x2="79" y2="143.49"/><line class="cls-2" x1="104" y1="118.49" x2="104" y2="143.49"/></svg>