<svg height="480pt" viewBox="-48 0 480 480" width="480pt" xmlns="http://www.w3.org/2000/svg"><path d="m104 144c0 75.113281 136 224 136 224v-360c-75.109375 0-136 60.890625-136 136zm0 0" fill="#bd0022"/><path d="m240 8v360s136-148.886719 136-224c0-75.109375-60.890625-136-136-136zm0 0" fill="#d80027"/><path d="m366.960938 387.28125c-1.09375-4.101562-3.777344-7.601562-7.457032-9.71875-3.675781-2.117188-8.046875-2.679688-12.144531-1.5625l-83.671875 39.519531-27.289062 12c-3.566407 1.570313-7.585938 1.777344-11.292969.585938 7.945312-.097657 14.617187-6.015625 15.664062-13.894531 1.042969-7.878907-3.851562-15.332032-11.496093-17.5l-66.074219-24.550782c-7.222657-2.699218-15.175781-2.699218-22.398438 0l-60.800781 19.839844v56l134.121094 22.257812c6.429687 1.132813 13.054687.273438 18.984375-2.464843l122.496093-60.914063c7.03125-1.867187 11.925782-8.242187 11.917969-15.519531-.027343-1.375-.214843-2.746094-.558593-4.078125zm0 0" fill="#ffcd00"/><path d="m0 368h80v104h-80zm0 0" fill="#006df0"/><path d="m328 136c0 48.601562-39.398438 88-88 88s-88-39.398438-88-88 39.398438-88 88-88 88 39.398438 88 88zm0 0" fill="#e13957"/><path d="m56 368h24v104h-24zm0 0" fill="#005ece"/><path d="m345.265625 368.28125c-.457031.117188-.898437.28125-1.320313.488281l-83.671874 39.511719c-3.996094 1.886719-5.707032 6.65625-3.820313 10.652344s6.65625 5.703125 10.652344 3.820312l82.917969-39.203125c1.878906-.367187 3.824218-.042969 5.480468.914063 1.777344 1.003906 3.09375 2.660156 3.664063 4.625.195312.730468.3125 1.480468.351562 2.238281-.003906 3.652344-2.457031 6.847656-5.984375 7.800781-.515625.132813-1.015625.320313-1.496094.558594l-122.285156 60.800781c-4.476562 2.054688-9.472656 2.699219-14.320312 1.839844l-127.433594-21.113281v-43.40625l55.625-18.121094c5.417969-2.023438 11.382812-2.023438 16.800781 0l66.789063 24.800781c4.3125 1.007813 6.988281 5.316407 5.980468 9.628907-1.007812 4.308593-5.316406 6.984374-9.628906 5.980468l-52.367187-17.753906c-4.195313-1.414062-8.746094.84375-10.160157 5.039062-1.414062 4.199219.84375 8.746094 5.039063 10.160157l52.851563 17.839843c12.582031 3.191407 25.421874-4.203124 28.976562-16.6875 3.558594-12.484374-3.457031-25.535156-15.835938-29.457031l-66.085937-24.542969c-8.90625-3.324218-18.707031-3.347656-27.632813-.070312l-50.351562 16.351562v-20.976562h-88v16h72v88h-72v16h88v-22.558594l124.734375 20.703125c2.292969.398438 4.617187.605469 6.945313.609375 5.875-.015625 11.671874-1.3125 16.992187-3.800781l121.839844-60.554687c10.109375-3.117188 17.007812-12.457032 17.007812-23.039063-.015625-2.082031-.285156-4.15625-.800781-6.175781-1.660156-6.148438-5.699219-11.386719-11.222656-14.558594-5.523438-3.167969-12.085938-4.011719-18.230469-2.34375zm0 0"/><path d="m152 128c-4.417969 0-8-3.582031-8-8s3.582031-8 8-8 8 3.582031 8 8 3.582031 8 8 8 8-3.582031 8-8c0-13.253906-10.746094-24-24-24s-24 10.746094-24 24 10.746094 24 24 24c4.417969 0 8 3.582031 8 8s-3.582031 8-8 8-8-3.582031-8-8-3.582031-8-8-8-8 3.582031-8 8c0 13.253906 10.746094 24 24 24s24-10.746094 24-24-10.746094-24-24-24zm0 0"/><path d="m199.496094 170.816406 4.046875-10.816406h24.914062l4.046875 10.816406c1.175782 3.121094 4.160156 5.1875 7.496094 5.183594.960938-.003906 1.914062-.175781 2.816406-.503906 1.988282-.746094 3.601563-2.25 4.476563-4.1875.878906-1.933594.953125-4.136719.203125-6.125l-24-64c-1.167969-3.128906-4.15625-5.203125-7.496094-5.203125s-6.328125 2.074219-7.496094 5.203125l-24 64c-1.546875 4.140625.554688 8.75 4.695313 10.296875s8.75-.554688 10.296875-4.695313zm16.503906-44.03125 6.457031 17.214844h-12.914062zm0 0"/><path d="m272 104c0-4.417969-3.582031-8-8-8s-8 3.582031-8 8v64c0 4.417969 3.582031 8 8 8h24c4.417969 0 8-3.582031 8-8s-3.582031-8-8-8h-16zm0 0"/><path d="m304 104v64c0 4.417969 3.582031 8 8 8h24c4.417969 0 8-3.582031 8-8s-3.582031-8-8-8h-16v-16h8c4.417969 0 8-3.582031 8-8s-3.582031-8-8-8h-8v-16h16c4.417969 0 8-3.582031 8-8s-3.582031-8-8-8h-24c-4.417969 0-8 3.582031-8 8zm0 0"/><path d="m240 376c2.246094 0 4.386719-.941406 5.902344-2.601562 5.640625-6.199219 138.097656-152.078126 138.097656-229.398438 0-79.527344-64.472656-144-144-144s-144 64.472656-144 144c0 77.320312 132.457031 223.199219 138.097656 229.398438 1.515625 1.660156 3.65625 2.601562 5.902344 2.601562zm0-360c70.65625.082031 127.917969 57.34375 128 128 0 62.441406-102.097656 182.511719-128 212-25.902344-29.488281-128-149.558594-128-212 .082031-70.65625 57.34375-127.917969 128-128zm0 0"/><path d="m183.414062 192.550781c-3.144531-3.023437-8.136718-2.964843-11.214843.128907s-3.105469 8.085937-.0625 11.214843c1.6875 1.679688 3.40625 3.289063 5.183593 4.800781 3.34375 2.839844 8.351563 2.457032 11.226563-.863281 2.871094-3.316406 2.535156-8.328125-.753906-11.230469-1.496094-1.273437-2.992188-2.632812-4.378907-4.050781zm0 0"/><path d="m307.878906 192.566406c-3.121094-3.121094-8.1875-3.121094-11.3125 0-23.785156 23.671875-59.789062 30.054688-90.261718 16-4.011719-1.859375-8.769532-.117187-10.628907 3.894532-1.859375 4.007812-.117187 8.765624 3.890625 10.628906 36.570313 16.875 79.777344 9.214844 108.3125-19.203125 1.503906-1.5 2.347656-3.535157 2.347656-5.660157 0-2.121093-.84375-4.15625-2.347656-5.660156zm0 0"/><path d="m296.566406 79.433594c2.011719 2.078125 4.984375 2.910156 7.78125 2.179687s4.980469-2.917969 5.714844-5.714843c.730469-2.796876-.101562-5.769532-2.183594-7.777344-1.816406-1.824219-3.695312-3.554688-5.597656-5.199219-3.363281-2.875-8.417969-2.476563-11.289062.886719-2.871094 3.363281-2.472657 8.414062.886718 11.289062 1.609375 1.367188 3.167969 2.804688 4.6875 4.335938zm0 0"/><path d="m177.777344 81.777344c2.121094 0 4.15625-.84375 5.65625-2.34375 23.527344-23.367188 58.984375-29.902344 89.292968-16.457032 4.035157 1.804688 8.769532 0 10.578126-4.03125 1.804687-4.035156 0-8.769531-4.03125-10.578124-36.375-16.128907-78.921876-8.285157-107.152344 19.753906-2.289063 2.285156-2.972656 5.726562-1.734375 8.714844 1.238281 2.992187 4.152343 4.9375 7.390625 4.941406zm0 0"/><path d="m56 408h-8c-4.417969 0-8-3.582031-8-8s3.582031-8 8-8h8c4.417969 0 8 3.582031 8 8s-3.582031 8-8 8zm0 0"/></svg>