<?xml version="1.0" encoding="utf-8"?>
<!-- Generator: Adobe Illustrator 22.0.0, SVG Export Plug-In . SVG Version: 6.00 Build 0)  -->
<svg version="1.1" id="Layer_1" xmlns="http://www.w3.org/2000/svg" xmlns:xlink="http://www.w3.org/1999/xlink" x="0px" y="0px"
	 viewBox="0 0 128 128" style="enable-background:new 0 0 128 128;" xml:space="preserve">
<style type="text/css">
	.st0{fill:#EFEFFF;}
	.st1{fill:#B2AAF2;}
	.st2{opacity:0.4;fill:#B0AFFD;}
	.st3{fill:#D2D2FF;}
	.st4{opacity:0.5;fill:#D2D2FF;}
	.st5{fill:#5148A5;}
	.st6{fill:#B0AFFD;}
	.st7{fill:#FFFFFF;}
	.st8{fill:#FFB127;}
	.st9{opacity:0.5;fill:#FFB127;}
	.st10{opacity:0.3;}
	.st11{fill:none;stroke:#B0AFFD;stroke-width:1.1106;stroke-miterlimit:10;}
	.st12{fill:#7762EF;}
	.st13{fill:#ED9C80;}
	.st14{fill:#3A3A3A;}
	.st15{fill:#2D24A3;}
	.st16{fill:#170D54;}
	.st17{fill:#2C1E56;}
	.st18{fill:#EAEAEA;}
	.st19{opacity:0.5;fill:#3D38A0;}
	.st20{fill:#FFBE9D;}
	.st21{opacity:0.5;fill:#5F52DD;}
	.st22{opacity:0.3;fill:#ED9C80;}
	.st23{fill:#FFC25B;}
	.st24{fill:#FE7F9A;}
	.st25{fill:#FFE7C5;}
	.st26{opacity:0.1;}
	.st27{fill:#FFCC99;}
	.st28{fill:#201D93;}
	.st29{fill:#FFC064;}
	.st30{fill:#D8836C;}
	.st31{opacity:0.12;fill:#009FE3;}
	.st32{opacity:0.2;fill:#009FE3;}
	.st33{opacity:0.6;fill:#FFFFFF;}
	.st34{fill:#1A2E3F;}
	.st35{fill:#486379;}
	.st36{fill:#254259;}
	.st37{fill:#BE581C;}
</style>
<g id="Inspection">
	<g>
		<g>
			<path class="st0" d="M108.2,59.3c0,21.8-19.5,39.4-43.6,39.4S21,81,21,59.3c0-8.3,2.9-16.1,7.7-22.4c7.9-10.3,21-17,35.9-17
				C88.6,19.8,108.2,37.5,108.2,59.3z"/>
			<g>
				<g>
					<path class="st0" d="M102.8,57.5c0.1,11.2-4.9,22.1-13,29.7c-4.1,3.8-8.8,6.9-14.1,9c-5.2,2.1-10.8,3.2-16.5,3.4
						c-11.3,0.2-22.8-3.8-31.4-11.5c-4.3-3.8-7.8-8.5-10.2-13.8c-2.4-5.3-3.7-11.1-3.7-16.9c0-5.8,1.3-11.6,3.7-16.9
						c2.4-5.3,6-10,10.2-13.8c8.6-7.7,20.1-11.7,31.4-11.5c5.7,0.1,11.3,1.3,16.5,3.4c5.2,2.1,10,5.2,14.1,9
						C97.9,35.3,102.9,46.3,102.8,57.5z M102.8,57.5c0-5.6-1.2-11.1-3.5-16.2c-2.3-5-5.7-9.6-9.8-13.2c-8.2-7.4-19.3-11.3-30.2-11
						c-5.5,0.1-10.9,1.2-15.9,3.3c-5,2-9.6,5-13.5,8.7c-7.8,7.3-12.6,17.8-12.5,28.5C17.2,68.1,21.9,78.6,29.8,86
						c3.9,3.7,8.5,6.7,13.5,8.7c5,2,10.4,3.1,15.9,3.3c10.9,0.2,22-3.6,30.2-11c4.1-3.7,7.5-8.2,9.8-13.2
						C101.5,68.6,102.7,63,102.8,57.5z"/>
				</g>
			</g>
			<g>
				<g>
					<path class="st0" d="M110.3,59.1c0,5.4-1,10.8-3.1,15.9c-2.1,5.1-5.3,9.7-9.4,13.4c-4,3.8-9,6.7-14.2,8.5
						c-5.3,1.8-10.9,2.6-16.4,2.4c-5.5-0.2-11-1.4-16.1-3.5c-5.1-2.1-9.8-5.1-13.7-8.9c-4-3.8-7.2-8.3-9.3-13.4
						C26,68.5,25,63,25.1,57.4c0-11.1,5-22.1,13.2-29.7c4.1-3.8,8.9-6.9,14.2-8.9c5.2-2,10.9-3,16.5-2.8c5.6,0.2,11.2,1.3,16.3,3.6
						c5.1,2.2,9.8,5.6,13.5,9.6c3.8,4.1,6.7,8.8,8.7,13.9C109.4,48.2,110.4,53.6,110.3,59.1z M110,59.1c0-5.4-1.2-10.7-3.4-15.6
						c-2.3-4.8-5.5-9.2-9.4-12.7c-7.8-7.1-18-11.1-28.4-11.2c-10.3-0.2-20.7,3.5-28.4,10.5c-3.8,3.5-7.1,7.7-9.4,12.4
						c-2.3,4.7-3.7,9.8-4,15.1c-0.3,5.3,0.3,10.6,2.3,15.6c1.9,5,5,9.5,8.9,13.1c1.9,1.8,4.1,3.4,6.4,4.7c2.3,1.3,4.7,2.4,7.2,3.3
						c5,1.7,10.3,2.5,15.5,2.4c10.5,0,20.9-3.2,29.2-9.7c4.1-3.3,7.6-7.4,9.9-12.2C108.9,69.8,110,64.4,110,59.1z"/>
				</g>
			</g>
		</g>
		<g>
			<g>
				<g>
					<path class="st1" d="M38.1,27.7c-0.1-0.2,0-0.3,0.2-0.4c0.2-0.1,0.4,0,0.4,0.2c0.1,0.2,0,0.3-0.2,0.4
						C38.3,28,38.1,27.9,38.1,27.7z"/>
				</g>
				<g>
					<path class="st1" d="M94.6,44.1c-0.1-0.2,0-0.3,0.2-0.4c0.2-0.1,0.4,0,0.4,0.2c0.1,0.2,0,0.3-0.2,0.4
						C94.9,44.3,94.7,44.2,94.6,44.1z"/>
				</g>
				<g>
					<path class="st1" d="M31.2,44.1c-0.1-0.2,0-0.3,0.2-0.4c0.2-0.1,0.4,0,0.4,0.2c0.1,0.2,0,0.3-0.2,0.4
						C31.4,44.3,31.2,44.2,31.2,44.1z"/>
				</g>
				<g>
					<path class="st1" d="M85.3,27.4c-0.1-0.2,0-0.3,0.2-0.4c0.2-0.1,0.4,0,0.4,0.2c0.1,0.2,0,0.3-0.2,0.4
						C85.6,27.6,85.4,27.5,85.3,27.4z"/>
				</g>
				<g>
					<path class="st1" d="M33,69.1c-0.1-0.2,0-0.3,0.2-0.4c0.2-0.1,0.4,0,0.4,0.2c0.1,0.2,0,0.3-0.2,0.4
						C33.3,69.3,33.1,69.2,33,69.1z"/>
				</g>
				<g>
					<path class="st1" d="M101.1,64c-0.1-0.2,0-0.3,0.2-0.4c0.2-0.1,0.4,0,0.4,0.2c0.1,0.2,0,0.3-0.2,0.4
						C101.3,64.3,101.1,64.2,101.1,64z"/>
				</g>
			</g>
			<g>
				<g>
					<g>
						<path class="st1" d="M56.8,25.9c-0.1,0-0.1-0.1-0.1-0.1v-1.2c0-0.1,0.1-0.1,0.1-0.1c0.1,0,0.1,0.1,0.1,0.1v1.2
							C56.9,25.8,56.9,25.9,56.8,25.9z"/>
					</g>
					<g>
						<path class="st1" d="M57.5,25.3h-1.4c-0.1,0-0.1-0.1-0.1-0.1c0-0.1,0.1-0.1,0.1-0.1h1.4c0.1,0,0.1,0.1,0.1,0.1
							C57.6,25.2,57.5,25.3,57.5,25.3z"/>
					</g>
				</g>
				<g>
					<g>
						<path class="st1" d="M102.8,54.4c-0.1,0-0.1-0.1-0.1-0.1v-1.2c0-0.1,0.1-0.1,0.1-0.1c0.1,0,0.1,0.1,0.1,0.1v1.2
							C102.9,54.4,102.8,54.4,102.8,54.4z"/>
					</g>
					<g>
						<path class="st1" d="M103.4,53.8h-1.4c-0.1,0-0.1-0.1-0.1-0.1s0.1-0.1,0.1-0.1h1.4c0.1,0,0.1,0.1,0.1,0.1
							S103.5,53.8,103.4,53.8z"/>
					</g>
				</g>
				<g>
					<g>
						<path class="st1" d="M95.7,76.6c-0.1,0-0.1-0.1-0.1-0.1v-1.2c0-0.1,0.1-0.1,0.1-0.1c0.1,0,0.1,0.1,0.1,0.1v1.2
							C95.8,76.5,95.7,76.6,95.7,76.6z"/>
					</g>
					<g>
						<path class="st1" d="M96.3,76H95c-0.1,0-0.1-0.1-0.1-0.1s0.1-0.1,0.1-0.1h1.4c0.1,0,0.1,0.1,0.1,0.1S96.4,76,96.3,76z"/>
					</g>
				</g>
				<g>
					<g>
						<path class="st1" d="M22.8,56.5c-0.1,0-0.1-0.1-0.1-0.1v-1.2c0-0.1,0.1-0.1,0.1-0.1c0.1,0,0.1,0.1,0.1,0.1v1.2
							C22.9,56.4,22.9,56.5,22.8,56.5z"/>
					</g>
					<g>
						<path class="st1" d="M23.5,55.9h-1.4c-0.1,0-0.1-0.1-0.1-0.1c0-0.1,0.1-0.1,0.1-0.1h1.4c0.1,0,0.1,0.1,0.1,0.1
							C23.6,55.8,23.6,55.9,23.5,55.9z"/>
					</g>
				</g>
			</g>
		</g>
	</g>
	<g>
		<g>
			<path id="XMLID_390_" class="st2" d="M89.8,99.7c0,0.6-12.3,1-27.4,1s-27.4-0.5-27.4-1c0-0.6,12.3-1,27.4-1S89.8,99.1,89.8,99.7z
				"/>
			<g>
				<path class="st3" d="M89.3,98.2c0,0,0.1-1.4,2.5-2.7c2.5-1.4,7.6-0.9,8.3-2.4c0.8-1.5-2.5-1.3-3.8-2.6c-1.3-1.3-1.8-1.8,0.2-2.1
					c1.9-0.2,3.1-0.3,3.2-1.8c0.1-1.5,3.2-0.6,4.9-1.6c1.7-1,0.9-2.5-2.2-2.5c-3.1,0-3.1-0.5-2.2-0.8c0.9-0.4,3.6-1,2.5-1.8
					c-1.1-0.8-2.8-0.2-1.9-1.1c0.9-0.9,3.1-1.5,2.1-2.6c-1-1.1-3.6-1.1-5.3,1.5c-1.6,2.6-2.2,3.3-3.7,3.6c-1.4,0.2-2.7-1.2-4.5-0.7
					c-1.8,0.5-1.5,2-0.6,3.1c1,1.1,2.7,3.1,1.5,4c-1.1,0.9-2.3-0.5-3.8-0.9c-1.7-0.3-3.7,0.9-2.2,3c1.5,2.1,4,3.9,3.7,8.7
					C88.5,98.4,88.9,98.3,89.3,98.2z"/>
				<path class="st4" d="M85.7,88.1c0,0,0.1,0,0.1,0c0,0,3.1,2.7,4.2,6c0.1-0.3,0.2-0.6,0.3-0.9c0,0,0,0,0,0
					c1.1-2.8,2.3-5.2,3.4-7.2c-0.2-0.3-2.1-2.5-4.6-4.5c0,0,0-0.1,0-0.1c0,0,0.1,0,0.1,0c2.4,1.9,4.2,4,4.6,4.5
					c0.2-0.3,0.3-0.6,0.5-0.9c0,0,0-0.1,0-0.1c0.8-1.4,1.6-2.5,2.3-3.5c0,0,0-0.1,0-0.1c0,0,0,0,0,0c2.6-3.5,4.5-5,4.6-5
					c0,0,0.1,0,0.1,0c0,0,0,0.1,0,0.1c0,0-1.9,1.4-4.3,4.7c2.3-1.1,4.8-0.9,4.9-0.9c0.1,0,0.1,0,0.1,0.1c0,0,0,0.1-0.1,0.1
					c0,0-2.7-0.2-5.1,1c-0.7,1-1.5,2.1-2.3,3.4c4.3-1.1,8.9-0.8,9-0.8c0.1,0,0.1,0,0.1,0.1c0,0,0,0.1-0.1,0.1c0,0-4.7-0.3-9.1,0.8
					c-1.3,2.2-2.7,4.9-4,8.1c3-0.9,7.8-0.7,7.8-0.7c0.1,0,0.1,0,0.1,0.1c0,0,0,0.1-0.1,0.1c0,0-4.9-0.2-7.9,0.7
					c-0.6,1.6-1.2,3.3-1.8,5.1c0,0-0.1,0.1-0.1,0.1c0,0,0,0,0,0c0,0-0.1-0.1-0.1-0.1c0.4-1.4,0.9-2.7,1.4-4c-1-3.3-4.2-6.1-4.2-6.1
					C85.7,88.2,85.7,88.2,85.7,88.1z"/>
			</g>
			<g id="XMLID_23_">
				<g>
					<path class="st3" d="M39.7,78.8c0.4-11.6-5.8-23.2-16.2-30.1l0.2-0.3c10.4,7,16.7,18.6,16.3,30.3L39.7,78.8z"/>
				</g>
				<g id="XMLID_35_">
					<g>
						<path class="st3" d="M25.7,50.2c-0.8-1.5-2.2-2.6-3.9-3.2c-0.4-0.2-0.9-0.3-1.3-0.1c-0.1,0.1-0.2,0.1-0.2,0.2
							c-0.1,0.2,0,0.3,0.1,0.5c0.6,0.8,1.6,1.2,2.6,1.5C24,49.4,24.7,49.7,25.7,50.2"/>
					</g>
					<g>
						<path class="st3" d="M28.4,52.5c-1.4-1-3.2-1.6-5-1.6c-0.4,0-0.9,0.1-1.2,0.4c-0.1,0.1-0.1,0.2-0.1,0.3c0,0.2,0.2,0.3,0.4,0.4
							c0.9,0.5,2,0.5,3,0.5C26.4,52.4,27.2,52.5,28.4,52.5"/>
					</g>
					<g>
						<path class="st3" d="M31.5,55.7c-1.2-1.2-2.9-2-4.7-2.1c-0.4,0-0.9,0-1.2,0.3c-0.1,0.1-0.2,0.2-0.2,0.3c0,0.2,0.1,0.3,0.3,0.4
							c0.8,0.6,1.9,0.7,2.9,0.8C29.6,55.4,30.4,55.6,31.5,55.7"/>
					</g>
					<g>
						<path class="st3" d="M34.1,59.2c-1.2-1.2-2.9-2-4.7-2.1c-0.4,0-0.9,0-1.2,0.3c-0.1,0.1-0.2,0.2-0.2,0.3c0,0.2,0.1,0.3,0.3,0.4
							c0.8,0.6,1.9,0.7,2.9,0.8C32.2,58.9,32.9,59.1,34.1,59.2"/>
					</g>
					<g>
						<path class="st3" d="M36.8,64.2c-1.1-1.3-2.7-2.2-4.5-2.6c-0.4-0.1-0.9-0.1-1.3,0.1c-0.1,0.1-0.2,0.2-0.2,0.3
							c0,0.2,0.1,0.3,0.2,0.5c0.7,0.7,1.8,0.9,2.8,1.1C34.9,63.7,35.7,64,36.8,64.2"/>
					</g>
					<g>
						<path class="st3" d="M38.4,68c-0.9-1.3-2.4-2.3-4.2-2.8c-0.4-0.1-0.9-0.2-1.3,0c-0.1,0-0.2,0.1-0.2,0.2c0,0.1,0.1,0.3,0.2,0.4
							c0.7,0.7,1.7,1,2.7,1.3C36.6,67.4,37.3,67.7,38.4,68"/>
					</g>
					<g>
						<path class="st3" d="M29.5,53.6c0.7-1.5,0.8-3.4,0.2-5c-0.1-0.4-0.4-0.8-0.8-1c-0.1,0-0.2-0.1-0.4,0c-0.2,0.1-0.3,0.3-0.3,0.4
							c-0.3,0.9,0,2,0.4,2.9C29,51.8,29.2,52.5,29.5,53.6"/>
					</g>
					<g>
						<path class="st3" d="M31.8,56.2c1.1-1.3,1.7-3.1,1.5-4.8c0-0.4-0.1-0.9-0.5-1.1c-0.1-0.1-0.2-0.1-0.3-0.1
							c-0.2,0-0.3,0.2-0.4,0.3c-0.5,0.9-0.5,1.9-0.4,2.9C31.8,54.3,31.8,55.1,31.8,56.2"/>
					</g>
					<g>
						<path class="st3" d="M34.4,59.8c1.4-1.1,2.3-2.7,2.6-4.4c0.1-0.4,0.1-0.9-0.2-1.2c-0.1-0.1-0.2-0.2-0.3-0.2
							c-0.2,0-0.4,0.1-0.5,0.3C35.3,55,35,56,34.9,57C34.8,58,34.6,58.7,34.4,59.8"/>
					</g>
					<g>
						<path class="st3" d="M37.2,64.7c1.1-1.4,1.6-3.1,1.4-4.8c0-0.4-0.1-0.9-0.5-1.1c-0.1-0.1-0.2-0.1-0.3-0.1
							c-0.2,0-0.3,0.2-0.4,0.4c-0.5,0.9-0.5,1.9-0.3,2.9C37.1,62.9,37.1,63.7,37.2,64.7"/>
					</g>
					<g>
						<path class="st3" d="M38.5,68.5c1.6-0.8,3-2.1,3.7-3.7c0.2-0.4,0.3-0.9,0.1-1.2c-0.1-0.1-0.1-0.2-0.3-0.2
							c-0.2-0.1-0.4,0-0.5,0.1c-0.9,0.6-1.4,1.5-1.7,2.5C39.4,66.9,39,67.5,38.5,68.5"/>
					</g>
				</g>
			</g>
			<g id="XMLID_37_">
				<g>
					<path class="st3" d="M86,81.7c-2.8-11.4,0.9-23.7,9.7-32.3l-0.3-0.2c-8.8,8.6-12.6,21.1-9.8,32.6L86,81.7z"/>
				</g>
				<g id="XMLID_38_">
					<g>
						<path class="st3" d="M93.8,51.1c0.5-1.6,1.6-3,3.1-3.8c0.4-0.2,0.8-0.4,1.2-0.3c0.1,0,0.2,0.1,0.3,0.2c0.1,0.2,0,0.3,0,0.5
							c-0.4,0.9-1.3,1.4-2.2,1.9C95.3,50.1,94.7,50.6,93.8,51.1"/>
					</g>
					<g>
						<path class="st3" d="M91.7,53.9c1.1-1.3,2.8-2.1,4.6-2.4c0.4-0.1,0.9-0.1,1.3,0.2c0.1,0.1,0.2,0.2,0.2,0.3
							c0,0.2-0.1,0.3-0.3,0.5c-0.8,0.6-1.8,0.9-2.9,1C93.5,53.4,92.8,53.7,91.7,53.9"/>
					</g>
					<g>
						<path class="st3" d="M89.2,57.6c1-1.4,2.5-2.4,4.2-2.9c0.4-0.1,0.9-0.2,1.3,0c0.1,0.1,0.2,0.1,0.2,0.3c0,0.2-0.1,0.3-0.2,0.5
							c-0.7,0.7-1.7,1.1-2.7,1.3C91,56.9,90.3,57.2,89.2,57.6"/>
					</g>
					<g>
						<path class="st3" d="M87.4,61.4c1-1.4,2.5-2.4,4.2-2.9c0.4-0.1,0.9-0.2,1.3,0c0.1,0.1,0.2,0.1,0.2,0.3c0,0.2-0.1,0.3-0.2,0.5
							c-0.7,0.7-1.7,1.1-2.7,1.3C89.2,60.8,88.5,61.1,87.4,61.4"/>
					</g>
					<g>
						<path class="st3" d="M85.8,66.8c0.8-1.5,2.2-2.6,3.9-3.3c0.4-0.2,0.9-0.3,1.3-0.1c0.1,0.1,0.2,0.1,0.2,0.2
							c0.1,0.2,0,0.3-0.1,0.5c-0.6,0.8-1.6,1.2-2.5,1.5C87.5,66,86.8,66.4,85.8,66.8"/>
					</g>
					<g>
						<path class="st3" d="M85,70.8c0.7-1.4,1.9-2.6,3.5-3.4c0.4-0.2,0.8-0.4,1.2-0.3c0.1,0,0.2,0.1,0.3,0.2c0.1,0.1,0,0.3-0.1,0.5
							c-0.5,0.8-1.4,1.3-2.4,1.7C86.6,69.9,86,70.3,85,70.8"/>
					</g>
					<g>
						<path class="st3" d="M90.8,55.1c-1-1.4-1.5-3.2-1.3-4.9c0.1-0.4,0.2-0.9,0.5-1.1c0.1-0.1,0.2-0.1,0.3-0.1
							c0.2,0,0.3,0.2,0.4,0.4c0.4,0.9,0.4,1.9,0.2,2.9C90.9,53.3,90.9,54.1,90.8,55.1"/>
					</g>
					<g>
						<path class="st3" d="M89,58.1c-1.4-1.1-2.3-2.8-2.5-4.5c-0.1-0.4-0.1-0.9,0.2-1.2c0.1-0.1,0.2-0.2,0.3-0.2
							c0.2,0,0.4,0.1,0.5,0.3c0.7,0.8,0.9,1.8,1,2.8C88.6,56.3,88.8,57,89,58.1"/>
					</g>
					<g>
						<path class="st3" d="M87.2,62.1c-1.6-0.9-2.8-2.3-3.4-3.9c-0.2-0.4-0.3-0.9,0-1.2c0.1-0.1,0.2-0.2,0.3-0.2
							c0.2,0,0.4,0.1,0.5,0.2c0.8,0.6,1.3,1.6,1.6,2.5C86.5,60.4,86.8,61.1,87.2,62.1"/>
					</g>
					<g>
						<path class="st3" d="M85.5,67.4c-1.3-1.2-2.2-2.8-2.4-4.5c0-0.4,0-0.9,0.3-1.2c0.1-0.1,0.2-0.1,0.3-0.2c0.2,0,0.4,0.1,0.5,0.3
							c0.7,0.8,0.8,1.8,0.9,2.8C85.2,65.6,85.4,66.3,85.5,67.4"/>
					</g>
					<g>
						<path class="st3" d="M85,71.3c-1.8-0.5-3.4-1.6-4.4-3.1c-0.3-0.4-0.5-0.8-0.4-1.2c0-0.1,0.1-0.2,0.2-0.3
							c0.2-0.1,0.4,0,0.6,0.1c1,0.4,1.6,1.3,2.2,2.1C83.8,69.9,84.3,70.4,85,71.3"/>
					</g>
				</g>
			</g>
			<g>
				<path class="st1" d="M80.1,90c1.6-1.3,3.8-2,5.9-1.8c1.4,0.1,3,0.8,3.3,2.1c0.2,0.6,0.1,1.4,0.7,1.7c0.6,0.2,1.2-0.3,1.9-0.5
					c1.1-0.3,2.3,0.8,1.9,1.8c-0.2,0.4-0.6,0.8-0.5,1.3c0,0.6,0.9,1,1.6,0.9c0.7-0.1,1.3-0.5,2-0.6c0.7-0.2,1.6,0,1.8,0.6
					c0.2,0.5-0.2,1.3,0.3,1.6c0.2,0.2,0.5,0.2,0.8,0.2c5.9,0.5,12.3,1.5,11.7,2.4c-0.2,0.3-0.6,0.2-1,0.2
					c-12.5-0.2-23.7-0.2-36.3-0.2"/>
			</g>
			<g>
				<path class="st3" d="M38,99.4c0,0-0.1-1.4-2.5-2.7c-2.5-1.4-7.6-0.9-8.3-2.4c-0.8-1.5,2.5-1.3,3.8-2.6c1.3-1.3,1.8-1.8-0.2-2.1
					c-1.9-0.2-3.1-0.3-3.2-1.8c-0.1-1.5-3.2-0.6-4.9-1.6c-1.7-1-0.9-2.5,2.2-2.5c3.1,0,3.1-0.5,2.2-0.8c-0.9-0.4-3.6-1-2.5-1.8
					c1.1-0.8,2.8-0.2,1.9-1.1c-0.9-0.9-3.1-1.5-2.1-2.6c1-1.1,3.6-1.1,5.3,1.5c1.6,2.6,2.2,3.3,3.7,3.6c1.4,0.2,2.7-1.2,4.5-0.7
					c1.8,0.5,1.5,2,0.6,3.1c-1,1.1-2.7,3.1-1.5,4c1.1,0.9,2.3-0.5,3.8-0.9c1.7-0.3,3.7,0.9,2.2,3c-1.5,2.1-3.8,2.9-3.6,7.6
					C39,98.6,38.4,99.5,38,99.4z"/>
				<path class="st4" d="M41.6,89.4c0,0-0.1,0-0.1,0c0,0-3.1,2.7-4.2,6c-0.1-0.3-0.2-0.6-0.3-0.9c0,0,0,0,0,0
					c-1.1-2.8-2.3-5.2-3.4-7.2c0.2-0.3,2.1-2.5,4.6-4.5c0,0,0-0.1,0-0.1c0,0-0.1,0-0.1,0c-2.4,1.9-4.2,4-4.6,4.5
					c-0.2-0.3-0.3-0.6-0.5-0.9c0,0,0-0.1,0-0.1c-0.8-1.4-1.6-2.5-2.3-3.5c0,0,0-0.1,0-0.1c0,0,0,0,0,0c-2.6-3.5-4.5-5-4.6-5
					c0,0-0.1,0-0.1,0c0,0,0,0.1,0,0.1c0,0,1.9,1.4,4.3,4.7c-2.3-1.1-4.8-0.9-4.9-0.9c-0.1,0-0.1,0-0.1,0.1c0,0,0,0.1,0.1,0.1
					c0,0,2.7-0.2,5.1,1c0.7,1,1.5,2.1,2.3,3.4c-4.3-1.1-8.9-0.8-9-0.8c-0.1,0-0.1,0-0.1,0.1c0,0,0,0.1,0.1,0.1c0,0,4.7-0.3,9.1,0.8
					c1.3,2.2,2.7,4.9,4,8.1c-3-0.9-7.8-0.7-7.8-0.7c-0.1,0-0.1,0-0.1,0.1c0,0,0,0.1,0.1,0.1c0,0,4.9-0.2,7.9,0.7
					c0.6,1.6,1.1,2.9,1.7,4.7c0,0,0.1,0.2,0.1,0.1c0,0,0,0,0,0c0,0,0.1,0,0.1,0c-0.4-1.4-0.9-2.5-1.3-3.8c1-3.3,4.2-6.1,4.2-6.1
					C41.7,89.5,41.7,89.4,41.6,89.4z"/>
			</g>
			<g>
				<path class="st1" d="M47.9,90c-1.6-1.3-3.8-2-5.9-1.8c-1.4,0.1-3,0.8-3.3,2.1c-0.2,0.6-0.1,1.4-0.7,1.7
					c-0.6,0.2-1.2-0.3-1.9-0.5c-1.1-0.3-2.3,0.8-1.9,1.8c0.2,0.4,0.6,0.8,0.5,1.3c0,0.6-0.9,1-1.6,0.9c-0.7-0.1-1.3-0.5-2-0.6
					c-0.7-0.2-1.6,0-1.8,0.6c-0.2,0.5,0.2,1.3-0.3,1.6c-0.2,0.2-0.5,0.2-0.8,0.2c-5.9,0.5-12.3,1.5-11.7,2.4c0.2,0.3,0.6,0.2,1,0.2
					c12.5-0.2,23.7-0.2,36.3-0.2"/>
			</g>
		</g>
		<g>
			<path class="st5" d="M81.4,99.7H43.4c-3.8,0-6.9-3.1-6.9-6.9V40.4c0-3.8,3.1-6.9,6.9-6.9h37.9c3.8,0,6.9,3.1,6.9,6.9v52.4
				C88.3,96.6,85.2,99.7,81.4,99.7z"/>
			<path id="XMLID_377_" class="st6" d="M81.3,97.1H43.5c-2.2,0-4-1.8-4-4V40c0-2.2,1.8-4,4-4h37.8c2.2,0,4,1.8,4,4v53
				C85.3,95.3,83.5,97.1,81.3,97.1z"/>
			<path class="st7" d="M78.6,95.2H46.2c-2.7,0-5-2.2-5-5V42.8c0-2.7,2.2-5,5-5h32.3c2.7,0,5,2.2,5,5v47.4
				C83.5,93,81.3,95.2,78.6,95.2z"/>
			<g>
				<g>
					<path id="XMLID_384_" class="st8" d="M62.9,27.6c-1.5,0-2.7,1.1-2.7,2.5v3.2h5.5c0,0,0-2.5,0-3.2
						C65.7,28.7,64.4,27.6,62.9,27.6z M62.9,31.5c-0.9,0-1.5-0.6-1.5-1.4c0-0.8,0.7-1.4,1.5-1.4c0.9,0,1.5,0.6,1.5,1.4
						C64.5,30.9,63.8,31.5,62.9,31.5z"/>
					<path id="XMLID_378_" class="st9" d="M64.5,30.1c0-0.8-0.7-1.4-1.5-1.4c-0.1,0-0.2,0-0.2,0c0.2-0.1,0.2-0.1,0.6-0.1
						c0.9,0,1.5,0.6,1.5,1.4c0,0.7-0.4,1.1-1,1.2C64.2,30.9,64.5,30.5,64.5,30.1z M61,32.9v-3.2c0-0.9,0.4-1.6,1.2-2.1
						c-1.2,0.3-2,1.3-2,2.4v3.2h5.5c0,0,0-0.1,0-0.3H61z"/>
				</g>
				<path id="XMLID_376_" class="st8" d="M79.1,34.5V37H45.7v-2.5c0-1,0.9-1.7,1.9-1.7h29.5C78.2,32.8,79.1,33.5,79.1,34.5z"/>
				<path id="XMLID_375_" class="st9" d="M79.1,36.4V37H45.7v-2.5c0-1,0.9-1.7,1.9-1.7h0.3c-0.5,0.4-0.9,1.1-0.9,1.8v1.8H79.1z"/>
			</g>
			<g>
				<g class="st10">
					<g id="XMLID_367_">
						<g id="XMLID_374_">
							<path class="st6" d="M59.9,44.4H53c-0.2,0-0.4-0.2-0.4-0.4c0-0.2,0.2-0.4,0.4-0.4h6.9c0.2,0,0.4,0.2,0.4,0.4
								C60.3,44.2,60.1,44.4,59.9,44.4z"/>
						</g>
						<g id="XMLID_373_">
							<path class="st6" d="M80.5,46.3h-5.2c-0.2,0-0.4-0.2-0.4-0.4c0-0.2,0.2-0.4,0.4-0.4h5.2c0.2,0,0.4,0.2,0.4,0.4
								C80.9,46.2,80.7,46.3,80.5,46.3z"/>
						</g>
						<g id="XMLID_372_">
							<path class="st6" d="M73,46.3H53c-0.2,0-0.4-0.2-0.4-0.4c0-0.2,0.2-0.4,0.4-0.4h20c0.2,0,0.4,0.2,0.4,0.4
								C73.4,46.2,73.2,46.3,73,46.3z"/>
						</g>
						<g id="XMLID_371_">
							<path class="st6" d="M80.5,48.3H53c-0.2,0-0.4-0.2-0.4-0.4c0-0.2,0.2-0.4,0.4-0.4h27.5c0.2,0,0.4,0.2,0.4,0.4
								C80.9,48.2,80.7,48.3,80.5,48.3z"/>
						</g>
						<g id="XMLID_370_">
							<path class="st6" d="M80.5,50.3h-8.7c-0.2,0-0.4-0.2-0.4-0.4s0.2-0.4,0.4-0.4h8.7c0.2,0,0.4,0.2,0.4,0.4S80.7,50.3,80.5,50.3
								z"/>
						</g>
						<g id="XMLID_369_">
							<path class="st6" d="M69.6,50.3H53c-0.2,0-0.4-0.2-0.4-0.4s0.2-0.4,0.4-0.4h16.6c0.2,0,0.4,0.2,0.4,0.4S69.8,50.3,69.6,50.3z
								"/>
						</g>
						<g id="XMLID_368_">
							<path class="st6" d="M80.5,44.4H62.1c-0.2,0-0.4-0.2-0.4-0.4c0-0.2,0.2-0.4,0.4-0.4h18.4c0.2,0,0.4,0.2,0.4,0.4
								C80.9,44.2,80.7,44.4,80.5,44.4z"/>
						</g>
					</g>
					<g id="XMLID_358_">
						<g id="XMLID_365_">
							<path class="st6" d="M59.9,58.6H53c-0.2,0-0.4-0.2-0.4-0.4c0-0.2,0.2-0.4,0.4-0.4h6.9c0.2,0,0.4,0.2,0.4,0.4
								C60.3,58.4,60.1,58.6,59.9,58.6z"/>
						</g>
						<g id="XMLID_364_">
							<path class="st6" d="M80.5,60.6h-5.2c-0.2,0-0.4-0.2-0.4-0.4c0-0.2,0.2-0.4,0.4-0.4h5.2c0.2,0,0.4,0.2,0.4,0.4
								C80.9,60.4,80.7,60.6,80.5,60.6z"/>
						</g>
						<g id="XMLID_363_">
							<path class="st6" d="M73,60.6H53c-0.2,0-0.4-0.2-0.4-0.4c0-0.2,0.2-0.4,0.4-0.4h20c0.2,0,0.4,0.2,0.4,0.4
								C73.4,60.4,73.2,60.6,73,60.6z"/>
						</g>
						<g id="XMLID_362_">
							<path class="st6" d="M80.5,62.6H53c-0.2,0-0.4-0.2-0.4-0.4c0-0.2,0.2-0.4,0.4-0.4h27.5c0.2,0,0.4,0.2,0.4,0.4
								C80.9,62.4,80.7,62.6,80.5,62.6z"/>
						</g>
						<g id="XMLID_361_">
							<path class="st6" d="M80.5,64.5h-8.7c-0.2,0-0.4-0.2-0.4-0.4c0-0.2,0.2-0.4,0.4-0.4h8.7c0.2,0,0.4,0.2,0.4,0.4
								C80.9,64.4,80.7,64.5,80.5,64.5z"/>
						</g>
						<g id="XMLID_360_">
							<path class="st6" d="M69.6,64.5H53c-0.2,0-0.4-0.2-0.4-0.4c0-0.2,0.2-0.4,0.4-0.4h16.6c0.2,0,0.4,0.2,0.4,0.4
								C70,64.4,69.8,64.5,69.6,64.5z"/>
						</g>
						<g id="XMLID_359_">
							<path class="st6" d="M80.5,58.6H62.1c-0.2,0-0.4-0.2-0.4-0.4c0-0.2,0.2-0.4,0.4-0.4h18.4c0.2,0,0.4,0.2,0.4,0.4
								C80.9,58.4,80.7,58.6,80.5,58.6z"/>
						</g>
					</g>
					<g id="XMLID_349_">
						<g id="XMLID_356_">
							<path class="st6" d="M59.9,72.3H53c-0.2,0-0.4-0.2-0.4-0.4c0-0.2,0.2-0.4,0.4-0.4h6.9c0.2,0,0.4,0.2,0.4,0.4
								C60.3,72.2,60.1,72.3,59.9,72.3z"/>
						</g>
						<g id="XMLID_355_">
							<path class="st6" d="M80.5,74.3h-5.2c-0.2,0-0.4-0.2-0.4-0.4c0-0.2,0.2-0.4,0.4-0.4h5.2c0.2,0,0.4,0.2,0.4,0.4
								C80.9,74.1,80.7,74.3,80.5,74.3z"/>
						</g>
						<g id="XMLID_354_">
							<path class="st6" d="M73,74.3H53c-0.2,0-0.4-0.2-0.4-0.4c0-0.2,0.2-0.4,0.4-0.4h20c0.2,0,0.4,0.2,0.4,0.4
								C73.4,74.1,73.2,74.3,73,74.3z"/>
						</g>
						<g id="XMLID_353_">
							<path class="st6" d="M80.5,76.3H53c-0.2,0-0.4-0.2-0.4-0.4c0-0.2,0.2-0.4,0.4-0.4h27.5c0.2,0,0.4,0.2,0.4,0.4
								C80.9,76.1,80.7,76.3,80.5,76.3z"/>
						</g>
						<g id="XMLID_352_">
							<path class="st6" d="M80.5,78.3h-8.7c-0.2,0-0.4-0.2-0.4-0.4c0-0.2,0.2-0.4,0.4-0.4h8.7c0.2,0,0.4,0.2,0.4,0.4
								C80.9,78.1,80.7,78.3,80.5,78.3z"/>
						</g>
						<g id="XMLID_351_">
							<path class="st6" d="M69.6,78.3H53c-0.2,0-0.4-0.2-0.4-0.4c0-0.2,0.2-0.4,0.4-0.4h16.6c0.2,0,0.4,0.2,0.4,0.4
								C70,78.1,69.8,78.3,69.6,78.3z"/>
						</g>
						<g id="XMLID_350_">
							<path class="st6" d="M80.5,72.3H62.1c-0.2,0-0.4-0.2-0.4-0.4c0-0.2,0.2-0.4,0.4-0.4h18.4c0.2,0,0.4,0.2,0.4,0.4
								C80.9,72.2,80.7,72.3,80.5,72.3z"/>
						</g>
					</g>
					<g id="XMLID_308_">
						<g id="XMLID_347_">
							<path class="st6" d="M59.9,86.3H53c-0.2,0-0.4-0.2-0.4-0.4c0-0.2,0.2-0.4,0.4-0.4h6.9c0.2,0,0.4,0.2,0.4,0.4
								C60.3,86.2,60.1,86.3,59.9,86.3z"/>
						</g>
						<g id="XMLID_346_">
							<path class="st6" d="M80.5,88.3h-5.2c-0.2,0-0.4-0.2-0.4-0.4c0-0.2,0.2-0.4,0.4-0.4h5.2c0.2,0,0.4,0.2,0.4,0.4
								C80.9,88.1,80.7,88.3,80.5,88.3z"/>
						</g>
						<g id="XMLID_345_">
							<path class="st6" d="M73,88.3H53c-0.2,0-0.4-0.2-0.4-0.4c0-0.2,0.2-0.4,0.4-0.4h20c0.2,0,0.4,0.2,0.4,0.4
								C73.4,88.1,73.2,88.3,73,88.3z"/>
						</g>
						<g id="XMLID_344_">
							<path class="st6" d="M80.5,90.3H53c-0.2,0-0.4-0.2-0.4-0.4c0-0.2,0.2-0.4,0.4-0.4h27.5c0.2,0,0.4,0.2,0.4,0.4
								C80.9,90.1,80.7,90.3,80.5,90.3z"/>
						</g>
						<g id="XMLID_343_">
							<path class="st6" d="M80.5,92.3h-8.7c-0.2,0-0.4-0.2-0.4-0.4s0.2-0.4,0.4-0.4h8.7c0.2,0,0.4,0.2,0.4,0.4S80.7,92.3,80.5,92.3
								z"/>
						</g>
						<g id="XMLID_342_">
							<path class="st6" d="M69.6,92.3H53c-0.2,0-0.4-0.2-0.4-0.4s0.2-0.4,0.4-0.4h16.6c0.2,0,0.4,0.2,0.4,0.4S69.8,92.3,69.6,92.3z
								"/>
						</g>
						<g id="XMLID_341_">
							<path class="st6" d="M80.5,86.3H62.1c-0.2,0-0.4-0.2-0.4-0.4c0-0.2,0.2-0.4,0.4-0.4h18.4c0.2,0,0.4,0.2,0.4,0.4
								C80.9,86.2,80.7,86.3,80.5,86.3z"/>
						</g>
					</g>
				</g>
				<g id="XMLID_128_">
					<path id="XMLID_306_" class="st11" d="M48.6,49.1h-2.1c-1.2,0-2.1-0.9-2.1-2.1v-1.5c0-1.2,0.9-2.1,2.1-2.1h2.1
						c1.2,0,2.1,0.9,2.1,2.1V47C50.7,48.1,49.7,49.1,48.6,49.1z"/>
					<path id="XMLID_305_" class="st11" d="M48.6,63.3h-2.1c-1.2,0-2.1-0.9-2.1-2.1v-1.5c0-1.2,0.9-2.1,2.1-2.1h2.1
						c1.2,0,2.1,0.9,2.1,2.1v1.5C50.7,62.3,49.7,63.3,48.6,63.3z"/>
					<path id="XMLID_304_" class="st11" d="M48.6,77.5h-2.1c-1.2,0-2.1-0.9-2.1-2.1v-1.5c0-1.2,0.9-2.1,2.1-2.1h2.1
						c1.2,0,2.1,0.9,2.1,2.1v1.5C50.7,76.5,49.7,77.5,48.6,77.5z"/>
					<path id="XMLID_303_" class="st11" d="M48.6,91.6h-2.1c-1.2,0-2.1-0.9-2.1-2.1v-1.5c0-1.2,0.9-2.1,2.1-2.1h2.1
						c1.2,0,2.1,0.9,2.1,2.1v1.5C50.7,90.7,49.7,91.6,48.6,91.6z"/>
					<g id="XMLID_297_">
						<path class="st8" d="M47.5,48.2c-0.1,0-0.3-0.1-0.4-0.2l-2.4-2.6c-0.2-0.2-0.1-0.5,0.1-0.6c0.2-0.2,0.5-0.1,0.7,0.1l2,2.1
							l4.2-6c0.1-0.2,0.4-0.3,0.7-0.1c0.2,0.1,0.3,0.4,0.1,0.6L47.9,48C47.8,48.2,47.7,48.2,47.5,48.2
							C47.5,48.2,47.5,48.2,47.5,48.2z"/>
					</g>
					<g id="XMLID_132_">
						<path class="st8" d="M47.5,62.3c-0.1,0-0.3-0.1-0.4-0.2l-2.4-2.6c-0.2-0.2-0.1-0.5,0.1-0.6c0.2-0.2,0.5-0.1,0.7,0.1l2,2.1
							l4.2-6c0.1-0.2,0.4-0.3,0.7-0.1c0.2,0.1,0.3,0.4,0.1,0.6l-4.6,6.5C47.8,62.2,47.7,62.3,47.5,62.3
							C47.5,62.3,47.5,62.3,47.5,62.3z"/>
					</g>
					<g id="XMLID_36_">
						<path class="st8" d="M47.5,76.5c-0.1,0-0.3-0.1-0.4-0.2l-2.4-2.6c-0.2-0.2-0.1-0.5,0.1-0.6c0.2-0.2,0.5-0.1,0.7,0.1l2,2.1
							l4.2-6c0.1-0.2,0.4-0.3,0.7-0.1c0.2,0.1,0.3,0.4,0.1,0.6l-4.6,6.5C47.8,76.4,47.7,76.4,47.5,76.5
							C47.5,76.5,47.5,76.5,47.5,76.5z"/>
					</g>
				</g>
			</g>
		</g>
	</g>
	<g>
		<g>
			<path class="st12" d="M60.2,80.5C59.5,81.2,59,85.8,59,86c0,0.2-3.7,2.1-3.7,2.1l0.5,0.5c0,0,4-0.9,4.7-1.7c0.6-0.7,2-6.1,2-6.1
				S61.5,79.3,60.2,80.5z"/>
			<ellipse class="st2" cx="66" cy="111.5" rx="11.1" ry="0.7"/>
			<g>
				<path class="st13" d="M71.6,108.5c0,0,0.3,0.5,0.4,0.7c0.1,0.2,0.8-0.2,0.8-0.4c0-0.1-0.6-1-0.6-1"/>
				<path class="st14" d="M73.2,109c0.1,0.2,0.4,0.6,0.4,0.6L73,110l-0.2-0.1c0,0-0.1,0.2-0.3,0.4c-0.1,0.1-0.4,0.3-0.6,0.4
					c-0.6,0.3-1.1,0.3-1.1,0.2c-0.3-0.3,0.5-0.6,0.6-0.7c0.4-0.3,0.5-0.7,0.5-0.9c0-0.2-0.1-0.2,0-0.2c0,0,0.1,0,0.2,0
					c0.2,0.1,0.4,0.1,0.5-0.1c0.1-0.1,0.1-0.2,0.2-0.3C72.9,108.8,73,108.8,73.2,109z"/>
			</g>
			<g>
				<path class="st13" d="M60.7,109.6c0,0-0.1,0.3-0.1,0.5c0,0.2,0.8,0.2,0.9,0.1c0.1-0.1,0.1-1.1,0.1-1.1"/>
				<path class="st14" d="M61.7,110.5c0,0.2-0.1,0.6-0.1,0.6h-0.9l0-0.1c0,0-0.3,0.1-0.5,0.1h-0.8c-0.6,0-0.9-0.1-0.9-0.1
					c-0.1-0.4,0.6-0.3,0.8-0.3c0.5,0,1-0.2,1.2-0.4c0.1-0.2,0-0.2,0.2-0.2c0,0,0.1,0,0.2,0.1c0.1,0.2,0.3,0.3,0.5,0.2
					c0.1,0,0.2-0.1,0.3-0.1C61.5,110.2,61.7,110.3,61.7,110.5z"/>
			</g>
			<path class="st15" d="M65.3,94.7c0,0-0.7-0.7-0.7-0.7c-0.3,1.3-1.7,5.8-2.1,7v0c-0.1,0.2-0.4,0.5-0.7,0.6c-0.7,0.2-1.7,0-1.8-1.2
				c0-0.1,0-0.3,0-0.4c-0.2-1.8,1.7-9.6,1.7-10.1c0-0.5,1.1-0.1,1.4-0.2C64.6,89.2,65.7,92.9,65.3,94.7z"/>
			<path class="st15" d="M62.5,101.6c-0.3-0.8,0.2-1.8,0.2-1.8S60.1,98,60,99.1c0,0.1-0.1,0.8-0.1,1.3c0,1.5,0.6,6.3,0.5,9.2v0.2
				c0,0,0.4,0.1,1.2,0.1c0,0,0.1,0,0.1,0c0.2-1.8,0.7-4.3,0.9-6.8C62.7,102.5,62.6,101.8,62.5,101.6z"/>
			<path class="st15" d="M69.1,101.8c-0.5-0.6-1.1-0.9-1.2-1.3c-0.4-1.1-0.3-5.5-0.3-6.7c0.1-0.2,1.1-2.7-0.9-4.6
				c0,0-1.8,0.7-3.2,0.8c-1.1,0.1-1.7,0-1.7,0s1.1,1.6,1.1,2.2c0.1,1.2,2.4,8.2,2.6,8.6c0.4,0.9,0.8,1.2,1,1.4
				c1,1.3,3.4,3.9,5.2,6.4l0.1,0.2c0,0,0.4-0.1,1-0.6C71.7,106.6,70.7,103.7,69.1,101.8z"/>
			<path class="st12" d="M60.2,80.5c0.4-0.4,1.9-1,3.5-0.9c1.1,0,4.5,0.3,4.8,1c0.2,0.3,0.2,3.5-0.1,4.6c-0.2,0.9-0.7,3.1-0.7,3.7
				s0.3,0.8,0.2,0.9c-0.3,0.3-2.8,0.5-3.8,0.5c-0.9,0-2.5-0.2-2.6-0.5c-0.1-0.4,0.2-0.4,0.2-0.8c0-0.4,0.3-3.2,0-3.6
				c-0.4-0.6-1.1-2.5-1.1-2.9C60.5,82,59.9,80.9,60.2,80.5z"/>
			<path class="st13" d="M62.8,78.4c0,0,0,1.2-0.1,1.2c-0.1,0-0.3,0.2-0.3,0.2s0.2,1,0.5,0.9s2.1-0.9,2.1-0.9s-0.3-0.1-0.3-0.2
				c0-0.1,0.3-1.9,0.3-1.9"/>
			<g>
				<path class="st16" d="M63.3,74.5c-0.2-0.2-0.5-0.2-0.8,0c-0.3,0.1-0.4,0.3-0.5,0.6c-0.1,0.2-0.1,0.5,0,0.7
					c-0.2,0.1-0.3,0.2-0.3,0.4c0,0.2,0.1,0.4,0.2,0.5c0.1,0.2,0.3,0.2,0.5,0.2c0.1,0,0.3-0.1,0.3-0.2c0.1-0.1,0.1-0.2,0.2-0.3
					c0.2-0.6,0.4-1.1,0.5-1.7"/>
			</g>
			<path class="st13" d="M64.1,74.1c-0.3,0.1-1-0.1-1.2,0.2c-0.2,0.3-0.4,0.9-0.4,1.1c-0.1,0.4-0.2,0.7-0.3,1.1
				c-0.1,0.5-0.5,1.4,0,1.8c0.1,0.1,0.3,0.1,0.5,0.2c0.2,0,0.5,0.1,0.7,0.1c0.4,0.1,0.8,0.1,1.2,0c0.5-0.1,0.8-0.8,0.9-1.2l0.7-2.4
				L64.1,74.1z"/>
			<g>
				<path class="st13" d="M65.2,77.6c0,0,0,0.1,0.1,0.2c0.1,0.1,0.2,0,0.3,0c0.3-0.1,0.4-0.4,0.4-0.6c0-0.3-0.2-0.6-0.5-0.4
					c-0.2,0.1-0.2,0.2-0.2,0.4"/>
			</g>
			<g>
				<path class="st17" d="M65.9,76.3c-0.1,0.2-0.3,0.8-0.6,0.7c-0.2-0.1,0.1-0.9,0.3-1.3c-0.3,0-0.7,0-0.8-0.3c0-0.1,0-0.1-0.1-0.1
					c-0.1,0-0.1,0-0.2,0.1c-0.2,0.1-0.5,0-0.7-0.2c0,0-0.1-0.1-0.1-0.1c0,0-0.1,0-0.1,0c-0.4,0.2-1.3,0.2-1.3-0.2
					c-0.3,0.1-0.5-0.2-0.5-0.4c0-0.2,0.2-0.6,0.6-0.6c0-0.3,0.2-0.5,0.5-0.6c0.3-0.2,0.6-0.3,0.9-0.3c0.5,0,1.1,0.2,1.3,0.6
					c0,0,0,0.1,0.1,0.1c0,0,0.1,0,0.1,0c0.4-0.1,0.8,0,1.1,0.2c0.3,0.2,0.4,0.7,0.2,1c0.3,0.1,0.5,0.4,0.4,0.7
					c0,0.3-0.2,0.5-0.4,0.7c0.3,0.1,0.4,0.5,0.3,0.8c-0.2,0.3-0.6,0.4-0.9,0.4c0.1-0.3-0.1-0.6-0.3-0.6"/>
			</g>
			<path class="st17" d="M62.8,81c0,0-0.1,4.3-0.3,6.9l0.7,0.9l0.5-1.1c0,0,0.2-3.2-0.5-6.7L62.8,81z"/>
			<path class="st16" d="M62.7,80.6L62.7,80.6c0,0.2,0.1,0.3,0.2,0.4l0,0l0.4,0c0,0,0.3-0.1,0.3-0.3c0-0.1-0.5-0.4-0.5-0.4l-0.1,0
				C62.9,80.4,62.8,80.5,62.7,80.6L62.7,80.6z"/>
			<path class="st18" d="M64.8,79.2c0,0,0.4,0.2,0.6,0.5c-0.2,0.5-0.9,1.2-1.4,1.6c-0.3-0.6-0.9-1-0.9-1S64.7,80,64.8,79.2z"/>
			<path class="st18" d="M63.1,80.3c0,0-0.5,0.2-0.9,0.7c0,0-0.1-0.7,0.1-1.4c0,0,0.3-0.4,0.4-0.4C62.7,79.8,63.1,80.3,63.1,80.3z"
				/>
			<path class="st19" d="M62.5,101.6c-0.1-0.2-0.1-0.4-0.1-0.6c0,0,0,0,0,0v0c0.3-0.8,1-3.1,1.5-4.9l-0.8-2.6c0,0-0.5,5.3-0.7,5.7
				c-0.2,0.4-0.7,1.6-0.6,1.9c0,0.3,0.4,0.8,0.3,1.2c0,0.4,0,4.2,0,4.2c0.2-1.1,0.3-2.2,0.4-3.4C62.7,102.5,62.6,101.8,62.5,101.6z"
				/>
			<g>
				<path class="st20" d="M55.8,87.8c0-0.1,0-0.3-0.1-0.4c-0.1-0.1-0.3-0.2-0.4-0.2c0,0-0.1,0-0.1,0c0,0,0,0.1,0,0.1
					c0.1,0.1,0.2,0.1,0.2,0.2c0,0,0,0.1,0.1,0.1C55.5,87.7,55.6,87.8,55.8,87.8"/>
			</g>
			<path class="st21" d="M61.3,84.7c0,0-0.6-1.4-0.7-2c-0.3,1.4-0.2,3.7-0.4,3.9c-0.2,0.2-2.7,1.5-2.7,1.5l0,0
				c1.2-0.3,2.6-0.8,3-1.3C60.6,86.6,61,85.7,61.3,84.7L61.3,84.7z"/>
			<path class="st22" d="M62.8,78.5c0,0,1.1,0.2,1.2,0.2c0.2,0-0.4,0.3-0.5,0.3c-0.1,0-0.7-0.1-0.7-0.1V78.5z"/>
			<path class="st21" d="M68.5,80.6C68.5,80.5,68.5,80.5,68.5,80.6l-2.3,1.9c-0.5,1.3-1.6,4.7-1.6,4.7s-1,0.4-1.7,0.7
				c-0.2,0.1-0.7,0.4-1.2,0.7c0,0.2,0,0.3,0,0.3c0,0.4-0.1,0.4,0,0.8c0,0.3-0.1,0.7-0.2,1.1c1.7-0.4,5.2-1.4,5.3-1.4
				c0.2-0.1,1.2-3.8,1.8-6.1C68.7,81.9,68.6,80.8,68.5,80.6z"/>
			<g>
				<polygon id="XMLID_183_" class="st23" points="47.5,75.8 51.5,77.8 64.7,94.8 64.9,95 66.1,96.6 62.9,98.7 61.5,96.9 61.3,96.6 
					48.3,79.8 				"/>
				<polygon id="XMLID_148_" class="st24" points="65.4,95.7 66.1,96.6 62.9,98.7 62.2,97.8 				"/>
				<polygon id="XMLID_151_" class="st25" points="64.7,94.8 65.4,95.7 62.2,97.8 61.5,96.9 				"/>
				<polygon id="XMLID_156_" class="st25" points="48.3,79.8 51.5,77.8 47.5,75.8 				"/>
				<polygon id="XMLID_159_" class="st8" points="47.8,77.3 48.9,76.5 47.5,75.8 				"/>
				<polygon id="XMLID_65_" class="st8" points="47.8,77.3 48.9,76.5 47.5,75.8 				"/>
				<polygon id="XMLID_163_" class="st23" points="47.5,75.8 50.9,78.2 65.2,97.2 66.1,96.6 51.5,77.8 				"/>
			</g>
			<g>
				<g>
					<path class="st13" d="M59.6,90.2c0,0-0.5,0.1-0.7,0.2c-0.2,0-0.9,0-1.4,0.1c-0.2,0-0.4,0.1-0.6,0.3c-0.1,0.2-0.2,0.4,0,0.5
						c0.1,0,0.1,0.1,0.1,0.1c0,0,0,0.1,0,0.1c0,0.1,0,0.2,0.1,0.2c0.1,0.1,0.2,0.1,0.3,0c0,0.2,0.2,0.4,0.4,0.4c0-0.1,0-0.2,0.1-0.3
						c0.1-0.1,0.2,0,0.3-0.1c0.2,0,0.4-0.1,0.5-0.2c0.1-0.1,0.2-0.2,0.3-0.3c0.2-0.2,0.4-0.3,0.7-0.4"/>
				</g>
				<path class="st12" d="M66.2,82.3c-0.2,0.5-1.3,5.3-1.3,5.3s-1.1,0.2-1.8,0.6c-0.5,0.2-4.2,2.3-4.2,2.3l0.4,0.8
					c0,0,6.5-2.1,6.8-2.2c0.3-0.1,2.9-6.1,2.9-7.2c0-0.6-0.6-1.3-0.6-1.3"/>
			</g>
			<g>
				<path class="st13" d="M55.1,88.6c-0.2,0-0.4-0.1-0.5-0.3c0,0,0-0.1,0-0.1c0-0.1-0.1-0.1-0.2-0.1c-0.3-0.1-0.4-0.3-0.5-0.6
					c0-0.1,0-0.3,0-0.4c0.1-0.1,0.2-0.2,0.3-0.3c0,0,0.1,0,0.1,0c0,0,0,0,0.1,0.1c0.1,0.1,0.1,0.2,0.2,0.3c0,0.1,0,0.2,0.1,0.2
					c0.1,0,0.1,0,0.2,0.1c0.1,0.1,0.2,0.2,0.2,0.3C55.2,88,55.1,88.4,55.1,88.6"/>
			</g>
		</g>
		<g>
			<g>
				<path class="st17" d="M75.3,76.2h6.2c0.1,0,0.3,0.1,0.3,0.2l1,3.2l1.9,0.9h-6.8L76,79.6L75,76.5C75,76.3,75.1,76.2,75.3,76.2z"
					/>
				<path class="st15" d="M76.1,79.5h6.7l-1-3.2c0-0.1-0.2-0.2-0.3-0.2h-6.1c-0.2,0-0.3,0.2-0.3,0.3L76.1,79.5z"/>
				<path class="st6" d="M75.3,76.5l0.1,0.4v0l0.7,2.3c0,0.1,0.2,0.2,0.3,0.2h5.7c0.2,0,0.4-0.2,0.3-0.4l0-0.1l-0.1-0.4L82.2,78
					l-0.3-1.1l-0.1-0.4c0-0.1-0.2-0.2-0.3-0.2h-5.9c0,0-0.1,0-0.1,0C75.3,76.4,75.3,76.4,75.3,76.5z"/>
				<polygon class="st15" points="77.9,80.4 84.6,80.4 82.8,79.5 76.1,79.5 				"/>
				<path class="st2" d="M92.2,102.7c0,0.2-2.4,0.4-5.3,0.4c-2.9,0-5.3-0.2-5.3-0.4c0-0.2,2.4-0.4,5.3-0.4
					C89.9,102.2,92.2,102.4,92.2,102.7z"/>
				<g>
					<path class="st13" d="M88.6,100.8c0,0,0,0.8,0,1c0,0.2,0.7,0.2,0.8,0.1c0.1-0.1,0.1-1,0.1-1"/>
					<path class="st14" d="M89.7,102.1c0,0.2-0.1,0.6-0.1,0.6h-0.8l0-0.1c0,0-0.3,0.1-0.5,0.1h-0.7c-0.5,0-0.8-0.1-0.8-0.1
						c-0.1-0.3,0.6-0.3,0.7-0.3c0.5,0,1-0.2,1.1-0.4c0.1-0.2,0-0.2,0.1-0.2c0,0,0.1,0,0.1,0.1c0.1,0.1,0.3,0.2,0.4,0.2
						c0.1,0,0.2-0.1,0.3-0.1C89.5,101.8,89.7,101.9,89.7,102.1z"/>
				</g>
				<g>
					<path class="st13" d="M85.7,100.6c0,0,0.2,0.5,0.3,0.7c0.1,0.2,0.8,0,0.8-0.2c0-0.1-0.3-1-0.3-1"/>
					<path class="st14" d="M87,101.3c0.1,0.2,0.2,0.6,0.2,0.6l-0.6,0.3l-0.1-0.1c0,0-0.1,0.2-0.3,0.3c-0.1,0.1-0.5,0.2-0.6,0.2
						c-0.6,0.1-1,0.1-1.1,0c-0.2-0.3,0.6-0.5,0.7-0.5c0.4-0.2,0.6-0.5,0.6-0.8c0-0.2,0-0.2,0.1-0.2c0,0,0.1,0,0.2,0.1
						c0.1,0.1,0.3,0.1,0.5,0.1c0.1,0,0.2-0.1,0.2-0.2C86.8,101.1,87,101.1,87,101.3z"/>
				</g>
				<path class="st23" d="M90.2,82.4c0.3-0.2,0.6-0.4,0.9-0.7c0.7-0.5,1.3-1.1,1.4-1.5c0.2-0.9,0-3.8,0-5.1c0-0.1,0-0.2,0-0.2
					c-0.1-1.3-0.8-1.8-1.2-2c-0.2,1.6-0.6,5.3-0.7,5.5C90.5,78.6,90.2,82.4,90.2,82.4z"/>
				<path class="st9" d="M90.2,82.4c0.3-0.2,0.6-0.4,0.9-0.7c0-1,0.4-2.5,0.8-4.3c0.6-2.3,0.2-2.7,0.2-2.7L91,74.9
					c-0.2,1.6-0.4,3.4-0.4,3.5C90.5,78.6,90.2,82.4,90.2,82.4z"/>
				<path class="st15" d="M87.4,91c0.1,1.2,0.2,2.4,0.4,3.2c0.2,0.7,2.6,0.8,2.3,0.3c-0.5-0.8,0.3-3.3,0.7-7.5
					c0.1-0.6,0.4-0.7,0.6-2c0.2-1.3-0.6-2.5-0.6-2.5l-3.4-0.3l0,3.8l0,1.3C87.3,87.3,87.3,89.1,87.4,91z"/>
				<path class="st15" d="M89.7,94c0,0,0.7,0.7,0.6,2.1c-0.1,1.4-0.6,5.4-0.6,5.4s-0.8,0.1-1.2,0c0,0-0.8-7.5-0.8-8.4
					C87.7,92.2,89.7,94,89.7,94z"/>
				<path class="st19" d="M87.4,91c0.2-0.6,0.6-1.8,1-2.5c0.5-0.9,1-1.4,1-1.4c1.7-1.6,0.5-3.8,0.5-3.8s-1.4,1.1-1.5,1.2
					c-0.1,0.1-0.7,1-1.1,1.5l0,1.3C87.3,87.3,87.3,89.1,87.4,91z"/>
				<path class="st15" d="M83.4,90.5c0,0-0.8,2.3-0.7,3c0.1,0.7,2.9,7.5,2.9,7.5s0.5,0,1.1-0.3c0,0-0.1-3-0.6-4.8
					c-0.6-1.9-1.2-3-1.8-3.2C83.9,92.6,83.5,90.9,83.4,90.5z"/>
				<path class="st15" d="M85.9,91.8c0,0-0.8,1.2-0.3,2.3c0.5,1.1-0.9,0.9-0.9,0.9S84,93.2,84.1,93c0.2-0.2,0.7-1,0.9-1.1
					C85.2,91.9,85.9,91.8,85.9,91.8z"/>
				<path class="st15" d="M85,82.2c0,0-1.8,7.5-2,9.5c-0.1,0.9,0.9,2.3,1.8,1.5c1.1-0.9,2.9-5.2,3.4-5.9c0.6-0.7,2.6-1.4,1.2-5.2"/>
				<path class="st13" d="M89.4,72.2c0,0-0.2-0.8-0.1-1.3c0.1-0.6,0.5-1.6,0.3-2.3c-0.1-0.7-1.2-1.4-2.3-1.3
					c-1.1,0.1-1.4,1.1-1.6,1.6c-0.2,0.6-0.2,1.4-0.1,1.9c0,0.5,0.3,0.8,0.5,0.9c0.2,0.1,0.9,0,1,0.1c0.1,0.1,0.2,0.8,0.2,0.8"/>
				<path class="st7" d="M90,72.7c0,0-0.1-0.4-0.2-0.6C89.5,72,88.3,72,87.9,72c-0.4,0-1.3,0.4-1.4,0.5c-0.1,0.1,0.1,0.5,0.1,0.5
					L90,72.7z"/>
				<path class="st17" d="M89.4,71.2c0,0-1.5,0.1-1.8,0c-0.3-0.1-0.7-0.4-0.8-0.8c0-0.5,0.1-0.6-0.1-0.9c-0.2-0.3-0.4-0.2-0.4,0.1
					c0,0.2,0,0.7-0.1,0.7c-0.1,0-0.2-0.3-0.2-0.8c0-0.4,0.1-0.7,0.2-1c0.1-0.3,0.2-0.3,0.3-0.3c-0.1-0.1-0.3-0.1-0.5-0.4
					c-0.3-0.4-0.1-1.1,0.7-1.1c1.4,0,2.9,0.3,3,1.2c0,0,0.5-0.1,0.5,0.8c0,0.9-0.6,1.9-0.6,2.2C89.5,71.1,89.5,71.1,89.4,71.2z"/>
				<path class="st23" d="M85.1,81.4c-0.1,0.4-0.5,1.1-0.2,1.2c0.1,0,0.6,0,1.2,0h0c0,0,0,0,0,0c0.5,0,1.1-0.1,1.6-0.1
					c1.9-0.1,2.9,0.3,3.1,0.2c0.1-0.1,0.1-0.2,0.1-0.4c-0.1-0.4-0.1-0.8,0-1.2c0-0.3,0.1-0.7,0.2-1.2c0.3-1.5,1-3.9,1-5.3
					c0.2-2.2-2.5-2-2.5-2c-3.4-0.2-4.9,0.7-5.1,2c0,0.1,0,0.2,0,0.3c-0.1,1.3,0.4,3.5,0.6,5.1C85.2,80.5,85.2,81,85.1,81.4z"/>
				<path class="st9" d="M85.1,81.4c-0.1,0.4-0.5,1.1-0.2,1.2c0.1,0,0.6,0,1.2,0c-0.5,0-0.6-0.3-0.5-0.6c0.1-0.2,0.4-0.8,0.3-1.4
					c0-0.6-0.3-2.1-0.5-3.5c-0.2-1.3,0-2.3,0-2.4c-0.1,0.1-0.3,0.3-1,0.5c0,1.4,0.4,3.3,0.6,4.8C85.2,80.5,85.2,81,85.1,81.4z"/>
				<path class="st13" d="M76.6,80.6c-0.1,0,0-0.1,0.1-0.1c0,0,0,0,0.1,0c-0.1,0-0.2-0.1-0.3-0.1c-0.1,0,0-0.1,0.1-0.1
					c-0.1,0-0.1,0-0.1,0c-0.1,0,0-0.1,0.1-0.1c0,0,0.1,0,0.1,0c0,0-0.1,0-0.1,0c-0.1,0,0-0.1,0.1-0.1c0,0,0.1,0,0.2,0
					c0.1,0,0.2,0,0.3,0.1c0.1,0,0.2,0,0.3,0c0.3-0.1,0.4-0.2,0.4-0.2l-0.3-0.1c0,0,0-0.2,0.8,0c0.1,0,0.2,0.2,0.3,0.2
					c0.1,0,0.3,0,0.3,0l0,0.6c0,0-0.4-0.1-0.5,0c-0.1,0-0.6,0.2-0.7,0.2c0,0-0.2,0-0.3,0l-0.2,0l-0.2-0.1
					C76.9,80.7,76.6,80.6,76.6,80.6z"/>
				<path class="st23" d="M78.7,80.7c0,0,1.3,0.3,2.3,0.4c0.8,0.1,1.7,0.2,2.5,0.2c0,0,0,0,0,0c0.5,0,1.2-0.2,1.4-0.4
					c0.2-0.2,0.5-1,0.5-1c0.3-0.5,0.7-1.8,1-3c0,0,0,0,0-0.1c0.2-0.5,0.3-1,0.4-1.3c0.1-0.2,0-0.3,0-0.5c0-0.1-0.1-0.2-0.3-0.3
					c0,0,0,0,0,0c-0.4-0.2-0.2-0.5-0.6-0.3c0,0-0.2-0.1-0.3,0c-0.2-0.5-0.1-1.2-0.1-1.2s-1,0.4-1.4,2.3c-0.1,0.4-0.6,3.4-0.6,3.7
					c0,0,0,0.1,0,0.1c0,0,0,0,0,0.1c0,0,0,0,0,0.1c-0.3,0-0.6,0-1,0.1c-1.2,0.2-3.7,0.4-3.7,0.4l-0.1,0.6l0,0l0,0L78.7,80.7z"/>
				<g class="st26">
					<polygon class="st0" points="80.2,76.3 82.2,78 81.8,76.9 81.1,76.3 					"/>
					<polygon class="st0" points="82.4,78.9 79.5,76.3 79.8,76.3 82.3,78.5 					"/>
					<polygon class="st0" points="76.4,76.3 79.9,79.4 80.3,79.4 76.8,76.3 					"/>
					<path class="st0" d="M75.3,76.5l0.1,0.4v0l2.9,2.5h1l-3.5-3.1h-0.3c0,0-0.1,0-0.1,0C75.3,76.4,75.3,76.4,75.3,76.5z"/>
				</g>
			</g>
			<g>
				<path class="st1" d="M91.4,66.5c-0.2-0.4-0.2-0.8,0-1.2c0.3-0.9,1.4-1.4,2.5-1.1c1,0.3,1.6,1.3,1.3,2.2
					c-0.3,0.9-1.4,1.4-2.5,1.1c-0.4-0.1-0.7-0.3-0.9-0.6l-0.8,0.1L91.4,66.5z"/>
				<path class="st7" d="M94,65.4c-0.2-0.2-0.5-0.2-0.7,0l-0.1,0.1l-0.1-0.1c-0.2-0.2-0.5-0.2-0.7,0c-0.2,0.2-0.2,0.4,0,0.6l0.5,0.4
					c0,0,0,0,0,0c0.1,0.1,0.2,0.1,0.3,0.1c0.1,0,0.3,0,0.4-0.1L94,66C94.2,65.9,94.2,65.6,94,65.4z"/>
			</g>
		</g>
		<g>
			<g>
				<ellipse class="st2" cx="29.4" cy="102.3" rx="8.6" ry="0.5"/>
				<g>
					<g>
						<path class="st1" d="M22.6,64.3c0.3-0.3,0.4-0.7,0.4-1.1c0-1-0.9-1.8-2-1.8c-1.1,0-2,0.8-2,1.8c0,1,0.9,1.8,2,1.8
							c0.4,0,0.8-0.1,1.1-0.3l0.8,0.4L22.6,64.3z"/>
						<path class="st7" d="M20.3,62.7c0.2-0.2,0.5-0.2,0.7,0l0.1,0.1l0.1-0.1c0.2-0.2,0.5-0.2,0.7,0c0.2,0.2,0.2,0.4,0,0.6l-0.5,0.4
							c0,0,0,0,0,0c-0.1,0.1-0.2,0.1-0.3,0.1c-0.1,0-0.3,0-0.4-0.1l-0.5-0.4C20.1,63.2,20.1,62.9,20.3,62.7z"/>
					</g>
					<g>
						<path class="st17" d="M24.3,73.9l-0.7,2.4c0,0,2.6,1.8,3.6,1c1-0.8,0-3.1,0-3.1l-0.4-0.3L24.3,73.9z"/>
						<path class="st17" d="M29.2,65.8c0,0,0.7,0.8,0.5,2.4c-0.1,0.5,0.6,1.1,1.1,1.5c0.5,0.3,0.9,1.1,0.5,1.9
							c-0.4,0.7-0.5,0.8-0.2,1.5c0.6,1.3,0.2,3.7-1.8,3.5c-2.1-0.2-2.2-6.6-2.2-6.6l0.1-2.1L29.2,65.8z"/>
						<g>
							<path class="st13" d="M28.5,72.3c0,0,0.7,0.1,1.7,0.2c1.4,0.1,3.3,0.3,3.8,0.1c0.8-0.4,3.4-2.4,3.4-2.4l0.4-0.2
								c0.1,0,0.1-0.1,0.2-0.1c0.1,0,0.2,0,0.4-0.1c0.1,0,0.2-0.1,0.3-0.1c0,0,0,0,0,0c0,0,0,0,0,0c0.2-0.1,0.3-0.2,0.4-0.3
								c0.2-0.1-0.1-0.2-0.4-0.1c-0.3,0.1-0.1,0.1-0.3,0.1c-0.2,0,0-0.3,0.2-0.4c0.2-0.2,0.1-0.2,0.3-0.4c0.2-0.2,0.3-0.4,0.4-0.5
								c0.1-0.1,0.1-0.2,0-0.2c-0.1,0-0.6,0.5-0.7,0.6c-0.1,0.1-0.3-0.1-0.7,0.1c-0.4,0.2-0.5,0.7-0.6,0.9c-0.1,0.2-3.7,2.1-4.1,2
								c-0.4,0-3.8-0.7-4.8-0.7C27.7,70.8,28.5,72.3,28.5,72.3z"/>
							<path class="st22" d="M30.2,72.5c1.4,0.1,3.3,0.3,3.8,0.1c0.8-0.4,3.4-2.4,3.4-2.4l0.4-0.2c0.1,0,0.1-0.1,0.2-0.1
								c0.1,0,0.2,0,0.4-0.1c0.1,0,0.2-0.1,0.3-0.1c-0.2,0.1-0.7,0-1,0.1c-0.3,0.1-2.1,1.5-2.9,1.9c-0.8,0.5-1.1,0.6-1.9,0.6
								c-0.7,0-2.5-0.3-2.5-0.3L30.2,72.5z"/>
						</g>
						<path class="st27" d="M29.5,99.8c0,0,0.1,0.7,0.1,1.2c-0.1,0.4,0,0.5,0,0.5l1.5-0.1c0,0-0.7-0.3-0.6-1.7
							C30.6,98.2,29.5,99.8,29.5,99.8z"/>
						<path class="st14" d="M29.6,101.1c0,0,0.7,0.2,1.3,0.1c0.8,0.3,1.3,0.5,2,0.6c0.7,0.1,0.6,0.6-0.6,0.5c-1.2-0.1-2-0.1-2.3-0.1
							c-0.3,0-0.7,0-0.7-0.1C29.2,101.9,29.4,101.1,29.6,101.1z"/>
						<path class="st27" d="M24.8,99.7c0,0,0.1,0.7,0.1,1.2c-0.1,0.4,0,0.5,0,0.5l1.5-0.1c0,0-0.7-0.3-0.6-1.7
							C26,98.1,24.8,99.7,24.8,99.7z"/>
						<path class="st14" d="M24.9,101c0,0,0.7,0.2,1.3,0.1c0.8,0.3,1.3,0.5,2,0.6c0.7,0.1,0.6,0.6-0.6,0.5c-1.2-0.1-2-0.1-2.3-0.1
							c-0.3,0-0.7,0-0.7-0.1C24.6,101.8,24.7,100.9,24.9,101z"/>
						<path class="st28" d="M30.7,80c0,0,0.7,9.3,0.7,10.5c0,1.2,0,1.6-0.1,2.4c-0.1,0.7,0.2,7,0.2,7s-2.3,0.5-2.9,0
							c0,0,0.3-6.8,0.1-7.9c-0.3-1.2-1.2-7.1-1.2-7.1l1.5-6L30.7,80z"/>
						<path class="st15" d="M25.4,91c0.3-1.7,0.1-8.8,0.1-10.3c0.1-1.5,4.7-0.6,4.7-0.6s-1.7,8.7-1.9,10c-0.2,1.3-0.5,1.6-0.6,2.8
							c-0.1,1.2-0.9,6.9-0.9,6.9s-2.6,0.3-2.7-0.1C23.7,97.5,25.4,91,25.4,91z"/>
						<path class="st29" d="M29.7,73.9c-0.1,0.1,0.1,0.9,0.2,1.9c0,0,0,0.1,0,0.1c0.2,1.3,0.5,2.8,0.7,3.8c0,0,0,0.1,0,0.1
							c0.1,0.3,0.1,0.5,0.1,0.7c0,0-3.1-0.6-5.5,0.3c0,0,0.2-1.4,0.7-2.7c0,0,0-0.1,0.1-0.1c0.1-0.2,0.2-0.5,0.4-0.7c0,0,0,0,0,0
							c0,0,0-0.1,0-0.1c0,0,0,0,0,0c0.2-0.4,0.1-0.9-0.1-1.4c-0.2-0.5-0.5-1-0.8-1.5c-0.2-0.3-0.4-0.6-0.5-0.8l0,0
							c-0.5-0.7-1-1.2-1-1.2s-0.3-0.9,0.3-1.7c0,0,0,0,0,0c0.1-0.1,0.2-0.2,0.3-0.3c0.3-0.2,1-0.5,1.6-0.7c0.2,0,0.3-0.1,0.4-0.1
							c0.1,0,0.2,0,0.3,0c0.3,0,0.6,0,0.8,0c0.6,0.1,0.9,0.5,1.8,0.8l2.1,0.6c0,0-0.3,1.6-0.1,2.1l-1.5,0
							C30.2,72.9,29.9,73.5,29.7,73.9z"/>
						<path class="st9" d="M26.5,77.2c0.4-0.9-0.6-2.5-1.4-3.7l0,0l0.9-0.9c0,0,0,1.4,0.3,2C26.5,75.2,26.9,76.3,26.5,77.2z"/>
						<path class="st9" d="M29.7,71.6c0,0,0.6,0.9,0.4,1.3c1.5,0,1.5,0,1.5,0s-0.1-0.2-0.1-0.6C31.3,72.4,30.4,72.6,29.7,71.6z"/>
						<g>
							<path class="st17" d="M28.5,79.9l5.8-0.2c0.1,0,0.3-0.1,0.3-0.2l0.8-3.5c0-0.2-0.1-0.3-0.3-0.3l-5.8,0.2
								c-0.1,0-0.3,0.1-0.3,0.2l-0.8,3.5C28.2,79.8,28.3,79.9,28.5,79.9z"/>
							<path class="st5" d="M28.5,79.8l5.8-0.2c0.1,0,0.2-0.1,0.2-0.1l0.8-3.5c0-0.1-0.1-0.2-0.2-0.2l-5.6,0.2
								c-0.1,0-0.2,0.1-0.3,0.2l-0.8,3.5C28.3,79.7,28.4,79.8,28.5,79.8z"/>
							<path class="st13" d="M28,78l0,0.2l-0.1,0l-0.1,0.3c0,0-0.1,0-0.3,0c0,0,0,0,0,0c0,0,0,0,0,0c-0.3,0-0.8-0.1-1.5-0.3
								c-0.5-0.1-1-0.2-1.6-0.3c-0.8-0.2-1.3-0.5-1.3-0.6c0-0.2,0-0.5,0.1-0.9c0-0.2,0.1-0.4,0.1-0.6c0.1-0.8,0.3-1.6,0.4-1.9
								c0,0,0-0.1,0-0.1c0,0,0,0,0,0l0.2,0.1l1.2,0.4l-0.1,0.2l-0.8,2c0,0,0,0,0,0c0,0.1,0,0.1,0.1,0.1c0.6,0.2,1.3,0.5,2,0.8
								c0.5,0.2,1,0.5,1.3,0.6c0,0,0,0,0.1,0c0.1,0,0.1,0,0.2,0C28,78,28,78,28,78z"/>
							<path class="st22" d="M27.5,78.5c-0.3,0-0.8-0.1-1.5-0.3c-0.5-0.1-1-0.2-1.6-0.3c-0.8-0.2-1.3-0.5-1.3-0.6
								c0-0.2,0-0.5,0.1-0.9c0.1-0.9,0.4-2.2,0.5-2.5c0,0,0-0.1,0-0.1l0.3,0.1c0,0,0,0,0,0.1c-0.1,0.4-0.4,1.7-0.5,2.4
								c0,0.2-0.1,0.4-0.1,0.5c0,0.4,0.2,0.4,0.5,0.5c0.2,0.1,1.2,0.4,2.2,0.7C26.8,78.3,27.4,78.4,27.5,78.5z"/>
							<path class="st13" d="M27.7,78c0,0,0.2,0,0.2,0c0.1,0,0.1,0,0.1,0s0.3-0.2,0.6-0.2l0,0.2c0,0,0.4,0.2,0.5,0.3
								c0,0,0.1,0.1,0.2,0.1c0.1,0,0.5,0,0.6,0c0.1,0,0.2,0.1,0.2,0.1c0,0,0,0-0.1,0c0,0,0,0-0.1,0c0.1,0,0.1,0,0.1,0
								c0.1,0,0.2,0.1,0.2,0.1c0,0,0,0-0.1,0c0,0-0.1,0-0.2,0c0.1,0,0.1,0.1,0.1,0.1c0,0,0,0-0.1,0c0,0-0.1,0-0.2,0
								c0,0,0.1,0.1,0,0.1c0,0,0,0-0.1,0c-0.1,0-0.9,0.1-0.9,0.1c-0.2,0-0.7-0.4-0.8-0.4c-0.1-0.1-0.3-0.1-0.3-0.1L27.7,78z"/>
						</g>
						<path class="st29" d="M26.1,72.6c-0.3,1-0.5,1.5-0.5,1.7c0,0.1,0,0.1,0,0.1s-0.2,0-0.5-0.1c-0.3-0.1-0.7-0.2-1.1-0.4
							c0,0-0.1,0-0.1-0.1c-0.1,0-0.1-0.1-0.2-0.2c-0.1-0.1-0.2-0.2-0.3-0.3c0,0,0.3-2,1.1-2.8c0,0,0,0,0,0c0.1-0.2,0.3-0.3,0.4-0.3
							c0,0,0,0,0.1,0c0.4-0.1,0.7,0,0.9,0.3c0.2,0.2,0.3,0.6,0.4,1C26.3,71.9,26.3,72.2,26.1,72.6z"/>
						<path class="st13" d="M28.6,69c-0.3,0.1-0.6,0.2-0.8,0.2c0,0.1,0,0.2,0,0.3c0.1,0,0.1,0,0.2,0c0.1,0,0.1,0.2,0,0.3
							c-0.1,0.3-0.4,0.5-0.7,0.4c-0.3-0.1-0.5-0.4-0.6-0.7c0-0.1-0.3-0.2-0.3-0.4c0-0.1,0-0.1,0-0.2c-0.2-0.1-0.2-0.1-0.2-0.1
							s0-0.3,0-0.8c0-0.1,0-0.3,0-0.4c0-0.7,0.1-1.4,0.3-1.8c0.3-0.5,1.2-0.4,1.8-0.3c0.4,0.1,0.6,0.2,0.6,0.2S29.6,68.5,28.6,69z"
							/>
						<path class="st30" d="M27.8,66c0,0,0.1,0.5-0.4,0.9c-0.5,0.3-1.3,0.5-1.3,0.9c0,0.3,0.2,0.5,0.2,0.5s-0.5,0-0.5-0.1
							c0,0-0.3-1-0.3-1s1-1.1,1.2-1.2C26.9,66,27.8,66,27.8,66z"/>
						<path class="st17" d="M28.2,65.5c-0.6-0.1-1.5-0.2-1.8,0.3c-0.3,0.4-0.3,1.2-0.3,1.8c-0.1,0.1-0.1,0.2,0,0.4
							c0,0.5,0,0.8,0,0.8s0.1,0,0.2,0.1c0,0.1,0,0.1,0,0.2c0,0.2,0,0.4,0,0.5c-0.5,0.2-1.2,0.4-1.4,0.7c0,0,0,0-0.1,0
							c-0.2,0.1-0.3,0.2-0.4,0.3c0,0,0,0,0,0c-0.7,0.8-1.1,2.8-1.1,2.8c0.1,0.1,0.2,0.2,0.3,0.3c-0.1,0.3-0.3,1.1-0.4,1.9
							c-0.3-0.1-0.5-0.2-0.8-0.4c-0.8-0.6-1-1.8-0.4-2.6c0.5-0.6,0.4-1,0.4-1.2c-0.6-1.8,0.2-3.1,1.3-3.7c0.4-0.2,0.7-0.7,0.7-1.1
							c0-0.5,0.1-1.1,0.5-1.6c0.6-0.6,1.3-0.8,1.9-0.7c0.5,0.1,1.1,0.4,1.4,0.8C28.3,65.3,28.3,65.4,28.2,65.5z"/>
						<path class="st17" d="M26.8,69.3c0,0.1,0,0.1-0.1,0.2c-0.1,0-0.2,0.1-0.4,0.1c0-0.1,0-0.3,0-0.5c0-0.1,0-0.1,0-0.2
							c-0.2-0.1-0.2-0.1-0.2-0.1s0-0.3,0-0.8c0,0.1,0.1,0.1,0.2,0.2C26.2,68.2,26.9,68.7,26.8,69.3z"/>
						<path class="st17" d="M28.2,65.5c-0.2,0.2-0.6,0.4-0.6,0.6c0,0.7-0.8,1-1.4,1.3c0,0-0.1,0.1-0.1,0.1c0-0.7,0.1-1.4,0.3-1.8
							C26.7,65.3,27.6,65.3,28.2,65.5z"/>
						<path class="st17" d="M29.4,64.8c0.4,0.3,0.5,0.9,0,1.2c-0.4,0.3-1.1,0.5-2.2,0c-1.3-0.6-1-1.6-0.1-1.5
							C28.7,64.9,28.9,64.4,29.4,64.8z"/>
					</g>
				</g>
			</g>
			<path class="st17" d="M26.8,68.9c0,0,0.6,1.6-2.2,1.3c-2.4-0.3-2,2.8-2,2.8l0.9-1.8l1.1-1.3l0.6-0.6L26.8,68.9z"/>
		</g>
	</g>
	<g>
		<ellipse class="st31" cx="47.5" cy="45.9" rx="7.4" ry="6.7"/>
		<path class="st32" d="M47.5,39.5c-3.9,0-7.1,2.9-7.1,6.4s3.2,6.4,7.1,6.4c3.9,0,7.1-2.9,7.1-6.4S51.4,39.5,47.5,39.5z M47.5,51.6
			c-3.5,0-6.3-2.6-6.3-5.7c0-3.2,2.8-5.7,6.3-5.7c3.5,0,6.3,2.6,6.3,5.7C53.9,49.1,51,51.6,47.5,51.6z"/>
		<path class="st33" d="M43.3,42.1c-1.4,1.3-2,3.1-1.6,4.8c0,0,0,0,0,0.1l2.3-0.4c0,0,0,0,0-0.1c-0.2-1,0.1-2.1,1-2.9c0,0,0,0,0,0
			c0,0,0,0,0,0L43.3,42.1C43.4,42.1,43.4,42.1,43.3,42.1C43.3,42.1,43.3,42.1,43.3,42.1z"/>
		<polygon class="st34" points="54.4,53.1 52.1,51.1 53.3,50 55.5,52.1 		"/>
		<path class="st35" d="M41.8,51c-3.1-2.8-3.1-7.4,0-10.3c3.1-2.8,8.2-2.8,11.3,0c3.1,2.8,3.1,7.4,0,10.3S45,53.9,41.8,51z
			 M52.2,41.7c-2.6-2.3-6.8-2.3-9.3,0c-2.6,2.3-2.6,6.1,0,8.4c2.6,2.3,6.8,2.3,9.3,0C54.8,47.8,54.8,44,52.2,41.7z"/>
		<path class="st36" d="M61.6,61.1L53,53.3c-0.4-0.4-0.4-0.9,0-1.3l1.2-1.1c0.4-0.4,1-0.4,1.4,0l8.6,7.8c0.7,0.7,0.7,1.7,0,2.4l0,0
			C63.5,61.7,62.4,61.7,61.6,61.1z"/>
		<polygon class="st37" points="54.5,54.6 53.5,53.7 56.1,51.3 57.1,52.2 		"/>
		<polygon class="st37" points="61.4,60.9 61,60.5 63.7,58.1 64.1,58.5 		"/>
		<g>
			<path class="st35" d="M61.9,58.7l-5.5-5c-0.1-0.1-0.2-0.1-0.3,0c-0.1,0.1-0.1,0.2,0,0.3l5.5,5c0.1,0.1,0.2,0.1,0.3,0
				C62,58.9,62,58.7,61.9,58.7z"/>
			<path class="st35" d="M61.1,59.4l-5.5-5c-0.1-0.1-0.2-0.1-0.3,0c-0.1,0.1-0.1,0.2,0,0.3l5.5,5c0.1,0.1,0.2,0.1,0.3,0
				C61.1,59.6,61.1,59.5,61.1,59.4z"/>
			<path class="st35" d="M62.8,57.9l-5.5-5c-0.1-0.1-0.2-0.1-0.3,0c-0.1,0.1-0.1,0.2,0,0.3l5.5,5c0.1,0.1,0.2,0.1,0.3,0
				C62.9,58.1,62.9,58,62.8,57.9z"/>
		</g>
	</g>
</g>
</svg>
