<?xml version="1.0" encoding="utf-8"?>
<!-- Generator: Adobe Illustrator 22.0.0, SVG Export Plug-In . SVG Version: 6.00 Build 0)  -->
<svg version="1.1" id="Layer_1" xmlns="http://www.w3.org/2000/svg" xmlns:xlink="http://www.w3.org/1999/xlink" x="0px" y="0px"
	 viewBox="0 0 128 128" style="enable-background:new 0 0 128 128;" xml:space="preserve">
<style type="text/css">
	.st0{opacity:0.5307;}
	.st1{fill:#AFD7EF;}
	.st2{opacity:0.2278;}
	.st3{opacity:0.5307;fill:#AFD7EF;}
	.st4{opacity:0.25;}
	.st5{fill:#21C171;}
	.st6{fill:#00A578;}
	.st7{opacity:0.382;fill:#7970E5;}
	.st8{fill:#1FC497;}
	.st9{fill:#00895F;}
	.st10{fill-rule:evenodd;clip-rule:evenodd;fill:#E3EFFF;}
	.st11{fill-rule:evenodd;clip-rule:evenodd;fill:#DAEAFA;}
	.st12{fill-rule:evenodd;clip-rule:evenodd;fill:#CCE0F5;}
	.st13{fill-rule:evenodd;clip-rule:evenodd;fill:#BACFE5;}
	.st14{fill-rule:evenodd;clip-rule:evenodd;fill:#31ACCB;}
	.st15{fill-rule:evenodd;clip-rule:evenodd;fill:url(#SVGID_1_);}
	.st16{fill-rule:evenodd;clip-rule:evenodd;fill:#ECF4FC;}
	.st17{fill-rule:evenodd;clip-rule:evenodd;fill:url(#SVGID_2_);}
	.st18{fill-rule:evenodd;clip-rule:evenodd;fill:url(#SVGID_3_);}
	.st19{fill-rule:evenodd;clip-rule:evenodd;fill:#FFFFFF;}
	.st20{fill-rule:evenodd;clip-rule:evenodd;fill:#8EB961;}
	.st21{fill-rule:evenodd;clip-rule:evenodd;fill:#0E5281;}
	.st22{fill-rule:evenodd;clip-rule:evenodd;fill:#C2D6EB;}
	.st23{fill-rule:evenodd;clip-rule:evenodd;fill:url(#SVGID_4_);}
	.st24{fill-rule:evenodd;clip-rule:evenodd;fill:#10588C;}
	.st25{fill-rule:evenodd;clip-rule:evenodd;fill:#105B90;}
	.st26{fill-rule:evenodd;clip-rule:evenodd;fill:#33C1E5;}
	.st27{fill-rule:evenodd;clip-rule:evenodd;fill:url(#SVGID_5_);}
	.st28{fill-rule:evenodd;clip-rule:evenodd;fill:#B4CDE7;}
	.st29{fill-rule:evenodd;clip-rule:evenodd;fill:url(#SVGID_6_);}
	.st30{opacity:0.35;fill-rule:evenodd;clip-rule:evenodd;fill:#BDD1E7;}
	.st31{fill-rule:evenodd;clip-rule:evenodd;fill:#ACC4E0;}
	.st32{fill-rule:evenodd;clip-rule:evenodd;fill:url(#SVGID_7_);}
	.st33{fill-rule:evenodd;clip-rule:evenodd;fill:#DC996D;}
	.st34{fill-rule:evenodd;clip-rule:evenodd;fill:url(#SVGID_8_);}
	.st35{opacity:0.5;fill-rule:evenodd;clip-rule:evenodd;fill:url(#SVGID_9_);}
	.st36{fill-rule:evenodd;clip-rule:evenodd;fill:url(#SVGID_10_);}
	.st37{opacity:0.5;fill-rule:evenodd;clip-rule:evenodd;fill:url(#SVGID_11_);}
	.st38{fill-rule:evenodd;clip-rule:evenodd;fill:url(#SVGID_12_);}
	.st39{opacity:0.3;fill-rule:evenodd;clip-rule:evenodd;fill:#0A3C5F;}
	.st40{fill-rule:evenodd;clip-rule:evenodd;fill:url(#SVGID_13_);}
	.st41{fill-rule:evenodd;clip-rule:evenodd;fill:url(#SVGID_14_);}
	.st42{fill-rule:evenodd;clip-rule:evenodd;fill:url(#SVGID_15_);}
	.st43{fill-rule:evenodd;clip-rule:evenodd;fill:url(#SVGID_16_);}
	.st44{fill-rule:evenodd;clip-rule:evenodd;fill:url(#SVGID_17_);}
	.st45{fill-rule:evenodd;clip-rule:evenodd;fill:#48202D;}
	.st46{fill-rule:evenodd;clip-rule:evenodd;fill:url(#SVGID_18_);}
	.st47{fill-rule:evenodd;clip-rule:evenodd;fill:#DA9569;}
	.st48{fill-rule:evenodd;clip-rule:evenodd;fill:url(#SVGID_19_);}
	.st49{fill-rule:evenodd;clip-rule:evenodd;fill:url(#SVGID_20_);}
	.st50{fill-rule:evenodd;clip-rule:evenodd;fill:url(#SVGID_21_);}
	.st51{fill-rule:evenodd;clip-rule:evenodd;fill:url(#SVGID_22_);}
	.st52{fill-rule:evenodd;clip-rule:evenodd;fill:url(#SVGID_23_);}
	.st53{fill-rule:evenodd;clip-rule:evenodd;fill:url(#SVGID_24_);}
	.st54{fill-rule:evenodd;clip-rule:evenodd;fill:url(#SVGID_25_);}
	.st55{fill-rule:evenodd;clip-rule:evenodd;fill:url(#SVGID_26_);}
	.st56{fill-rule:evenodd;clip-rule:evenodd;fill:url(#SVGID_27_);}
	.st57{opacity:0.45;fill-rule:evenodd;clip-rule:evenodd;fill:url(#SVGID_28_);}
	.st58{fill-rule:evenodd;clip-rule:evenodd;fill:url(#SVGID_29_);}
	.st59{fill-rule:evenodd;clip-rule:evenodd;fill:url(#SVGID_30_);}
	.st60{fill-rule:evenodd;clip-rule:evenodd;fill:url(#SVGID_31_);}
	.st61{fill-rule:evenodd;clip-rule:evenodd;fill:url(#SVGID_32_);}
	.st62{opacity:0.45;fill-rule:evenodd;clip-rule:evenodd;fill:url(#SVGID_33_);}
	.st63{fill-rule:evenodd;clip-rule:evenodd;fill:url(#SVGID_34_);}
	.st64{fill-rule:evenodd;clip-rule:evenodd;fill:url(#SVGID_35_);}
	.st65{fill-rule:evenodd;clip-rule:evenodd;fill:url(#SVGID_36_);}
	.st66{fill-rule:evenodd;clip-rule:evenodd;fill:url(#SVGID_37_);}
	.st67{fill-rule:evenodd;clip-rule:evenodd;fill:url(#SVGID_38_);}
	.st68{fill-rule:evenodd;clip-rule:evenodd;fill:#F7A413;}
	.st69{fill-rule:evenodd;clip-rule:evenodd;fill:url(#SVGID_39_);}
	.st70{opacity:0.5;fill-rule:evenodd;clip-rule:evenodd;fill:#0F578A;}
	.st71{fill-rule:evenodd;clip-rule:evenodd;fill:url(#SVGID_40_);}
	.st72{fill-rule:evenodd;clip-rule:evenodd;fill:url(#SVGID_41_);}
	.st73{fill-rule:evenodd;clip-rule:evenodd;fill:url(#SVGID_42_);}
	.st74{fill-rule:evenodd;clip-rule:evenodd;fill:#FFD85E;}
	.st75{fill-rule:evenodd;clip-rule:evenodd;fill:#FCD148;}
</style>
<g id="Job_Card_x26_Billing">
	<g>
		<g class="st0">
			<path class="st1" d="M86.7,17.2c-0.7-0.5-1.4-0.9-2.2-1.2c-1.2-0.4-2.4-0.5-3.6-0.5c-5.7,0-11.3,2.7-15.7,6.6
				c-3,2.7-5.5,5.9-7.6,9.3c-1.9,3.1-3.1,6.8-5.2,9.8c-3.5,4.9-9.4,7.3-15.1,8.8c-5.7,1.6-11.6,2.8-16.4,6.3
				c-4.9,3.6-8.1,9.5-9.2,15.7C9,86.8,18.3,102.8,32,107c11.3,3.4,24,4.5,35.7,4.5c8.7,0,17.4-0.7,25.9-2.7c7-1.6,14.4-3.6,20.2-8.4
				c6.8-5.6,9.5-14.8,7.9-23.6c-1.1-6.4-3.8-12.4-7.8-17.4c-1.9-2.4-4.1-4.6-6.2-7c-3.2-3.7-5.9-7.8-8.1-12.2
				c-3.4-6.7-5.5-14.2-10.1-20.1C88.7,19.1,87.8,18,86.7,17.2z"/>
		</g>
		<g class="st2">
			<path class="st1" d="M73.8,23.5c-0.7-0.3-1.4-0.6-2.1-0.7c-1.1-0.2-2.2-0.1-3.2,0.1c-5,1-9.4,4.2-12.6,8.4
				c-2.2,2.8-3.9,6-5.2,9.4c-1.2,3-1.6,6.4-3,9.3c-2.3,4.9-7,7.9-11.7,10.2c-4.7,2.3-9.7,4.4-13.3,8.3c-3.7,4-5.6,9.6-5.6,15.2
				c0,13.2,10.5,25.6,23,26.9c10.3,1.1,21.5-0.2,31.7-2.2c7.5-1.5,15-3.6,22.1-6.7c5.9-2.6,12-5.6,16.2-10.7c5-6,6-14.4,3.3-21.8
				c-2-5.3-5.2-10.1-9.4-13.8c-2-1.8-4.3-3.3-6.4-5c-3.3-2.7-6.3-5.8-8.9-9.2c-3.9-5.3-7-11.4-11.9-15.7
				C75.8,24.8,74.8,24,73.8,23.5z"/>
		</g>
		<path class="st3" d="M46.5,41.7c-0.1,0.1-0.2,0.3-0.2,0.4c-0.2,0.3-0.3,0.7-0.4,1.1c-0.5,1.8-1,3.1-2.9,3.5
			c-1.2,0.3-2.8,0-3.4-1.3c-0.4-0.8-0.3-1.7-0.1-2.5c0.4-1.5,1.4-2.9,2.6-3.9c1.2-1,2.6-1.7,4.1-2.1c0.2-0.1,0.3-0.1,0.5-0.1
			c0.2,0,0.4,0.1,0.5,0.2c0.5,0.4,0.8,1.2,0.8,1.9c0,0.7-0.4,1.4-0.8,2C47,41.2,46.7,41.4,46.5,41.7z"/>
		<path class="st3" d="M49.1,33.5c-0.3,0.7-0.9,1.1-0.9,1.8c0,1,0.9,2,1.9,1.5c0.3-0.2,0.6-0.4,0.7-0.7c0.4-0.6,0.5-1.3,0.3-2
			C50.9,33.3,49.5,32.4,49.1,33.5"/>
		<g class="st0">
			<g>
				<path class="st1" d="M96.9,24.9c0.4,7.4,2.6,14.1,7.1,20c2.1,2.8,4.6,5.3,7,7.8c1.3,1.4,2.7,2.8,3.8,4.4c0.9,1.3,1.5,2.8,3,3.5
					c0.7,0.3,1.6,0.1,1.8-0.7c0.6-2.7-2.2-5.5-3.9-7.4c-2.3-2.7-5-5-7.4-7.6c-5.1-5.5-8.7-12.8-10.3-20
					C97.8,24.2,96.8,24.3,96.9,24.9L96.9,24.9z"/>
			</g>
		</g>
		<g class="st0">
			<g>
				<path class="st1" d="M30.8,48.7c-4.6-0.6-10.3,2.8-13.8,5.7C14.1,56.8,9.1,62,10,66.2c0.1,0.7,1,0.8,1.5,0.4
					c1.4-1.3,1.9-3.5,2.9-5.2c1.2-1.9,2.8-3.7,4.6-5.1c1.8-1.5,3.9-2.8,6-3.8c2-1,4.3-1.6,6-3C31.3,49.3,31.2,48.7,30.8,48.7
					L30.8,48.7z"/>
			</g>
		</g>
	</g>
	<g class="st4">
		<g>
			<path class="st5" d="M49.5,78.1c2.4,4.4,3.8,9.3,4.2,14.3c0.1,1.5,0.1,2.9,0.1,4.4c0,1.2,0.1,2.4-0.8,3.3c-0.4,0.4-1,0.7-1.5,1
				c-1.5,0.8-3.1,1.4-4.7,1.9c-1.4,0.5-2.9,0.6-4.4,0.8c-1.8,0.2-3.6,0.1-5.4,0.1c-2.2-0.1-4.5-0.2-6.7-0.7
				c-2.2-0.6-4.3-1.7-5.7-3.5c-1-1.3-1.6-3-1.2-4.6c0.2-0.8,0.7-1.6,1.3-2.2c0.8-0.9,1.9-1.7,3-2.2c1.7-0.7,3.9-1.2,4.4-3
				c0.4-1.5-0.6-3-1.4-4.4c-0.8-1.4-1.2-3.5,0.1-4.3c1-0.7,2.4-0.1,3.4-0.7c1.4-0.8,1.2-3,0.8-4.6c-0.4-2-0.8-4.1-1-6.2
				c-0.2-1.7-0.1-3.8,1.4-4.5c1.5-0.7,3.1,0.9,3.9,2.4c0.8,1.5,1.4,3.1,1.8,4.8c0.3,1.3,0.4,2.7,1.1,3.8c1.2,2,2.5,0.8,4.2,1.2
				C47.9,75.5,48.8,76.8,49.5,78.1z"/>
		</g>
		<g>
			<g>
				<path class="st6" d="M49.8,102.3c0,0-0.1,0.1-0.1,0.1c-1.9,1.6-4.7-0.4-6.6-1.3c-2.6-1.2-5.6-2.2-7.8-4
					c-0.4-0.3-0.8-0.7-0.8-1.3c0-0.5,0.4-0.9,0.9-1.1c0.5-0.1,0.9-0.1,1.4,0.1c0.2,0.1,0.4,0.1,0.5,0c0.2-0.1,0.3-0.5,0.2-0.7
					c-0.1-0.3-0.3-0.4-0.5-0.6c-1.7-1.3-3.8-1.9-5.6-3c-1.6-1-3.4-2.7-3.7-4.8c-0.3-2,1.6-3.3,1.7-5.3c0.1-1.5-0.8-2.9-1.5-4.2
					c-0.7-1.3-1.2-3-0.4-4.3c0.9-1.6,3.3-1.5,4.7-0.3c1.4,1.1,2.1,2.9,2.9,4.6c0.7,1.3,1.7,3.4,2.9,4.3c0.6,0.5,1.5,0.7,2.1,0.2
					c0.4-0.3,0.6-0.8,0.9-1.1c1.2-1.4,3.5-0.7,4.5,0.9c0.9,1.6,0.8,3.6,0.4,5.4c-0.2,0.8-0.4,1.6-0.2,2.4c0.2,0.8,0.8,1.5,1.6,1.4
					c0.5-0.1,0.9-0.5,1.3-0.5c0.6,0,1,0.5,1.2,1c0.2,0.6,0.1,1.2,0.1,1.8c-0.2,2-0.1,4,0.2,6C50.3,99.3,51.1,101.1,49.8,102.3z"/>
			</g>
			<path class="st7" d="M29.6,73.5c1.4,4.5,3.3,8.9,5.7,12.9c0,0.2,0.1,0.3,0.1,0.5c0,0.1,0.2,0.2,0.3,0.1c0.1,0.2,0.3,0.4,0.4,0.6
				c-2.1-1.6-4.2-3-6-5.1c-0.1-0.1-0.3,0-0.2,0.2c1.9,2.3,4,4.6,6.7,5.8c0,0,0,0,0,0c2.9,4.3,6.5,8.5,10.6,11.4
				c0.2,0.1,0.4-0.1,0.3-0.3c-1.9-1.8-3.8-3.6-5.6-5.5c0-3.8-0.9-7.9-2.4-11.3c0-0.1-0.2,0-0.2,0.1c1.1,3.6,1.7,7.1,2.2,10.9
				c-1.6-1.7-3.1-3.6-4.5-5.6c-0.5-0.7-0.9-1.4-1.4-2.1c-0.2-3.1-1.4-6.2-2.8-8.9c-0.1-0.1-0.2,0-0.2,0.1c1.1,2.5,1.8,5,2.3,7.7
				c-2.1-3.5-3.8-7.3-5.1-11.3C29.9,73.2,29.6,73.3,29.6,73.5z"/>
		</g>
		<g>
			<path class="st6" d="M82.8,67.1c0.8-1,1.6-2.1,2.7-2.8c1.1-0.6,2.6-0.8,3.5,0c0.5,0.4,0.9,1.1,1.2,1.7c1,2.1,1.9,4.2,2.6,6.3
				c0.9,2.6,1.9,5.5,4.3,6.4c1.8,0.7,4,0,5.7,0.9c2.1,1,2.7,3.8,2.8,6.2c0.1,2.4-0.2,5,1,7.1c1.3,2.2,4.1,3.7,3.8,6.2
				c-0.2,1.7-1.8,2.8-3.4,3.4c-6.4,2.2-13.3-0.9-20-0.4c-2.4,0.2-5.1,0.8-6.8-1c-0.8-0.8-1.2-2-1.5-3.2c-2.5-9.8-1.4-20.5,2.9-29.5"
				/>
		</g>
		<g>
			<g>
				<path class="st8" d="M80.1,97.2c0.2-0.5,3.9-1.4,4.5-1.6c1.5-0.6,2.9-1.2,4.4-1.9c2.6-1.2,5.6-2.2,7.8-4
					c0.4-0.3,0.8-0.7,0.8-1.3c0-0.5-0.4-0.9-0.9-1.1c-0.5-0.1-0.9-0.1-1.4,0.1c-0.2,0.1-0.4,0.1-0.5,0c-0.2-0.1-0.3-0.5-0.2-0.7
					c0.1-0.3,0.3-0.4,0.5-0.6c1.7-1.2,3.8-1.9,5.6-3c1.6-1,3.4-2.7,3.8-4.7c0.3-2-1.6-3.3-1.7-5.3c-0.1-1.5,0.8-2.9,1.5-4.2
					c0.7-1.3,1.2-3,0.5-4.3c-0.9-1.6-3.3-1.5-4.7-0.4c-1.4,1.1-2.1,2.9-3,4.5c-0.7,1.3-1.8,3.3-2.9,4.2c-0.6,0.5-1.5,0.7-2.1,0.2
					c-0.4-0.3-0.6-0.8-0.9-1.1c-1.2-1.4-3.5-0.7-4.5,0.8c-1,1.6-0.8,3.6-0.5,5.4c0.2,0.8,0.4,1.6,0.2,2.4c-0.2,0.8-0.8,1.5-1.6,1.4
					c-0.5-0.1-0.9-0.5-1.3-0.5c-0.6,0-1,0.5-1.2,1c-0.2,0.6-0.1,1.2-0.1,1.8C82.5,89,81.6,93,80.1,97.2z"/>
			</g>
			<path class="st7" d="M102.4,66.2C101,70.7,99.1,75,96.6,79c0,0.2-0.1,0.3-0.1,0.5c0,0.1-0.2,0.2-0.3,0.1
				c-0.1,0.2-0.3,0.4-0.4,0.6c2.1-1.6,4.2-3,6-5.1c0.1-0.1,0.3,0,0.2,0.2c-1.9,2.3-4,4.6-6.7,5.7c0,0,0,0,0,0
				c-2.9,4.2-6.5,8.5-10.7,11.3c-0.2,0.1-0.4-0.1-0.3-0.3c1.9-1.8,3.8-3.6,5.6-5.5c0-3.8,0.9-7.9,2.5-11.3c0-0.1,0.2,0,0.2,0.1
				c-1.1,3.6-1.8,7.1-2.3,10.8c1.6-1.7,3.2-3.6,4.6-5.6c0.5-0.7,0.9-1.4,1.4-2.1c0.2-3.1,1.4-6.2,2.9-8.9c0.1-0.1,0.2,0,0.2,0.1
				c-1.2,2.5-1.8,5-2.4,7.7c2.1-3.5,3.9-7.3,5.2-11.2C102.2,65.9,102.5,66,102.4,66.2z"/>
		</g>
		<g>
			<g>
				<path class="st9" d="M79.5,91.8c4.2-3.4,7.9-7.4,10.8-12.1c2.9-4.6,5.1-9.8,6.5-15.1c0.9-3.2,1.7-6.6,1.2-9.9
					c0-0.3,0.4-0.4,0.5-0.1c0.7,2.8-0.1,5.9-0.7,8.6c-0.7,2.8-1.5,5.5-2.6,8.2c-2.1,5.3-5.1,10.2-8.7,14.5c-2,2.3-4.3,4.5-6.7,6.3
					C79.6,92.3,79.3,92,79.5,91.8L79.5,91.8z"/>
			</g>
			<path class="st9" d="M98.5,59.7c-0.2-1.3-0.5-2.6-0.7-3.9c-0.2-1.1-0.4-2.4,0.2-3.3c0.1-0.1,0.1-0.2,0.2-0.2
				c0.1,0,0.3,0.1,0.3,0.2c0.7,0.9,0.8,2.2,0.6,3.3C98.9,57,98.8,58.7,98.5,59.7"/>
			<path class="st9" d="M97.4,64.9c1.7-0.7,3.3-2,4.3-3.6c0.2-0.2,0.3-0.5,0.2-0.8c-0.1-0.3-0.6-0.4-0.9-0.3c-0.5,0.2-1,0.6-1.3,1
				c-0.9,1-1.6,2.1-2.3,3.2"/>
			<path class="st9" d="M95.7,70.1c1.8-0.7,3.4-2.1,4.5-3.8c0.2-0.2,0.3-0.6,0.2-0.8c-0.1-0.3-0.6-0.4-0.9-0.3
				c-0.6,0.2-1,0.6-1.4,1.1c-0.9,1-1.7,2.2-2.5,3.3"/>
			<path class="st9" d="M92.9,76c1.9-0.1,3.9-0.8,5.4-2.1c0.2-0.2,0.5-0.4,0.4-0.7c0-0.4-0.4-0.5-0.8-0.6c-0.6,0-1.1,0.3-1.7,0.6
				c-1.2,0.7-2.3,1.5-3.3,2.3"/>
			<path class="st9" d="M97.8,61.8c-1.1-1.3-1.7-3-1.8-4.8c0-0.3,0-0.5,0.2-0.7c0.2-0.2,0.6,0,0.8,0.2c0.3,0.4,0.5,0.9,0.6,1.4
				c0.3,1.2,0.4,2.4,0.5,3.5"/>
			<path class="st9" d="M96.3,66.9c-1.3-1.6-2-3.6-2.2-5.7c0-0.3,0-0.7,0.2-0.8c0.3-0.2,0.7,0,0.9,0.2c0.4,0.5,0.6,1.1,0.7,1.7
				c0.3,1.4,0.5,2.8,0.6,4.2"/>
			<path class="st9" d="M94.2,72.4c-1.3-1.6-2-3.6-2.2-5.7c0-0.3,0-0.7,0.2-0.8c0.3-0.2,0.7,0,0.9,0.2c0.4,0.5,0.6,1.1,0.7,1.7
				c0.3,1.4,0.5,2.8,0.6,4.2"/>
			<path class="st9" d="M91.4,78.2c-1.3-1.6-2-3.6-2.2-5.7c0-0.3,0-0.7,0.2-0.8c0.3-0.2,0.7,0,0.9,0.2c0.4,0.5,0.6,1.1,0.7,1.7
				c0.3,1.4,0.5,2.8,0.6,4.2"/>
		</g>
		<g>
			<g>
				<path class="st9" d="M45.5,98.3c-3.6-1.3-7.1-2.7-10.5-4.7c-3.3-2-6.4-4.3-9.2-6.9c-1.7-1.6-3.2-3.3-4.3-5.4
					c-0.1-0.2-0.5-0.1-0.4,0.2c0.7,1.9,2.1,3.5,3.5,4.9c1.4,1.4,2.9,2.7,4.4,3.9c3.1,2.5,6.5,4.6,10,6.2c2,0.9,4.2,1.8,6.3,2.4
					C45.7,98.8,45.8,98.4,45.5,98.3L45.5,98.3z"/>
			</g>
			<path class="st9" d="M24.1,85.6c-0.5-1.2-1-2.4-1.6-3.7c-0.4-1-1-2.2-2-2.6c-0.1,0-0.2-0.1-0.3,0c-0.1,0.1-0.2,0.2-0.2,0.4
				c0,1.2,0.6,2.2,1.3,3.1C22.2,83.6,23.3,84.9,24.1,85.6"/>
			<path class="st9" d="M27.8,89.1c-1.8,0.5-3.7,0.4-5.5-0.3c-0.3-0.1-0.5-0.3-0.6-0.5c-0.1-0.3,0.3-0.6,0.6-0.7
				c0.5-0.2,1.1-0.1,1.7,0c1.2,0.3,2.5,0.7,3.7,1.2"/>
			<path class="st9" d="M32.1,92.3c-1.9,0.5-3.9,0.4-5.7-0.3c-0.3-0.1-0.6-0.3-0.6-0.6c-0.1-0.4,0.3-0.7,0.6-0.8
				c0.6-0.2,1.2-0.1,1.7,0c1.3,0.3,2.6,0.7,3.8,1.2"/>
			<path class="st9" d="M37.6,95.4C35.9,96.5,34,97.1,32,97c-0.3,0-0.6-0.1-0.8-0.3c-0.2-0.3,0-0.7,0.3-0.9c0.5-0.4,1.1-0.5,1.7-0.5
				c1.3-0.2,2.7-0.2,4-0.1"/>
			<path class="st9" d="M25.7,86.8c0.1-1.7-0.3-3.5-1.1-5c-0.1-0.2-0.3-0.5-0.5-0.5c-0.3,0-0.5,0.3-0.5,0.6c-0.1,0.5,0.1,1,0.3,1.5
				c0.4,1.1,1,2.2,1.6,3.2"/>
			<path class="st9" d="M29.8,90.1c0.1-2.1-0.3-4.2-1.4-6c-0.1-0.3-0.4-0.5-0.6-0.5c-0.3,0-0.6,0.4-0.6,0.8
				c-0.1,0.6,0.1,1.2,0.4,1.8c0.5,1.3,1.1,2.6,1.9,3.8"/>
			<path class="st9" d="M34.6,93.3c0.1-2.1-0.3-4.2-1.4-6c-0.1-0.3-0.4-0.5-0.6-0.5c-0.3,0-0.6,0.4-0.6,0.8
				c-0.1,0.6,0.1,1.2,0.4,1.8c0.5,1.3,1.1,2.6,1.9,3.8"/>
			<path class="st9" d="M40,96.3c0.1-2.1-0.3-4.2-1.4-6c-0.1-0.3-0.4-0.5-0.6-0.5c-0.3,0-0.6,0.4-0.6,0.8c-0.1,0.6,0.1,1.2,0.4,1.8
				c0.5,1.3,1.1,2.6,1.9,3.8"/>
		</g>
		<g>
			<g>
				<path class="st9" d="M46,90c-2.3-3.2-4.3-6.6-6-10.2c-1.6-3.6-2.9-7.4-3.7-11.2c-0.5-2.3-0.8-4.7-0.6-7.1c0-0.3-0.4-0.4-0.5-0.1
					c-0.5,2-0.2,4.1,0.2,6.1c0.4,2,0.9,4,1.5,5.9c1.2,3.9,2.8,7.7,4.8,11.2c1.2,2,2.4,4,3.9,5.8C45.8,90.5,46.1,90.2,46,90L46,90z"
					/>
			</g>
			<path class="st9" d="M35.3,66.6c0.2-1.3,0.5-2.6,0.7-3.9c0.2-1.1,0.4-2.4-0.2-3.3c-0.1-0.1-0.1-0.2-0.2-0.2
				c-0.1,0-0.3,0.1-0.3,0.2c-0.7,0.9-0.8,2.2-0.6,3.3C34.9,63.8,35.1,65.5,35.3,66.6"/>
			<path class="st9" d="M36.4,71.7c-1.7-0.7-3.3-2-4.3-3.6c-0.2-0.2-0.3-0.5-0.2-0.8c0.1-0.3,0.5-0.4,0.9-0.3c0.5,0.2,1,0.6,1.3,1
				c0.9,1,1.7,2,2.4,3.2"/>
			<path class="st9" d="M38.2,77c-1.8-0.7-3.4-2-4.5-3.7c-0.2-0.2-0.3-0.6-0.2-0.8c0.1-0.3,0.6-0.4,0.9-0.3c0.6,0.2,1,0.6,1.4,1.1
				c0.9,1,1.7,2.1,2.5,3.3"/>
			<path class="st9" d="M41,82.8c-1.9-0.1-3.9-0.8-5.4-2c-0.2-0.2-0.5-0.4-0.4-0.7c0-0.4,0.4-0.6,0.8-0.6c0.6,0,1.1,0.3,1.7,0.6
				c1.2,0.7,2.3,1.4,3.3,2.3"/>
			<path class="st9" d="M36,68.6c1-1.3,1.7-3,1.8-4.8c0-0.3,0-0.5-0.2-0.7c-0.2-0.2-0.6,0-0.8,0.2c-0.3,0.4-0.5,0.9-0.6,1.4
				c-0.2,1.2-0.4,2.4-0.5,3.6"/>
			<path class="st9" d="M37.6,73.7c1.2-1.6,2-3.6,2.1-5.7c0-0.3,0-0.7-0.2-0.8c-0.3-0.2-0.7,0-0.9,0.2c-0.4,0.5-0.6,1.1-0.7,1.7
				c-0.3,1.4-0.5,2.8-0.6,4.2"/>
			<path class="st9" d="M39.7,79.2c1.2-1.6,2-3.6,2.1-5.7c0-0.3,0-0.7-0.2-0.8c-0.3-0.2-0.7,0-0.9,0.2c-0.4,0.5-0.6,1.1-0.7,1.7
				c-0.3,1.4-0.5,2.8-0.6,4.2"/>
			<path class="st9" d="M42.5,85c1.2-1.6,2-3.6,2.1-5.7c0-0.3,0-0.7-0.2-0.8c-0.3-0.2-0.7,0-0.9,0.2c-0.4,0.5-0.6,1.1-0.7,1.7
				c-0.3,1.4-0.5,2.8-0.6,4.2"/>
		</g>
		<g>
			<g>
				<path class="st9" d="M90.5,88.7c2.9,0.3,5.9,0,8.8-0.6c2.9-0.6,5.8-1.5,8.5-2.8c1.5-0.7,3.1-1.5,4.1-2.8
					c0.1-0.2-0.1-0.4-0.3-0.3c-2.2,2.1-5.1,3.2-7.9,4.2c-2.7,0.9-5.6,1.5-8.5,1.8c-1.6,0.2-3.2,0.2-4.8,0.2
					C90.3,88.4,90.3,88.7,90.5,88.7L90.5,88.7z"/>
			</g>
			<path class="st9" d="M108.9,84.8c0.7-0.7,1.3-1.5,2-2.2c0.6-0.6,1.2-1.3,2-1.3c0.1,0,0.1,0,0.2,0.1c0.1,0.1,0.1,0.2,0,0.3
				c-0.2,0.8-0.9,1.5-1.7,1.9C110.7,83.8,109.6,84.5,108.9,84.8"/>
			<path class="st9" d="M105.4,86.4c1.2,0.8,2.6,1.2,4,1.2c0.2,0,0.4,0,0.5-0.2c0.1-0.2,0-0.5-0.2-0.7c-0.3-0.3-0.8-0.3-1.2-0.4
				c-1-0.1-1.9-0.2-2.9-0.1"/>
			<path class="st9" d="M101.6,87.6c1.2,0.9,2.7,1.3,4.2,1.2c0.2,0,0.5,0,0.6-0.2c0.1-0.2,0-0.5-0.2-0.7c-0.4-0.3-0.8-0.4-1.3-0.4
				c-1-0.1-2-0.2-3-0.1"/>
			<path class="st9" d="M96.9,88.4c0.9,1.2,2.2,2.1,3.6,2.6c0.2,0.1,0.5,0.1,0.6,0c0.2-0.2,0.1-0.5,0-0.7c-0.3-0.4-0.7-0.6-1.1-0.8
				c-0.9-0.5-1.9-0.8-2.8-1.1"/>
			<path class="st9" d="M107.4,85.2c0.3-1.3,1-2.4,2-3.3c0.1-0.1,0.3-0.2,0.5-0.2c0.2,0.1,0.3,0.4,0.2,0.6c-0.1,0.4-0.3,0.7-0.6,1
				c-0.6,0.7-1.2,1.3-1.8,1.9"/>
			<path class="st9" d="M103.7,86.5c0.4-1.5,1.2-2.9,2.4-3.9c0.2-0.1,0.4-0.3,0.6-0.2c0.3,0.1,0.3,0.4,0.3,0.7
				c-0.1,0.5-0.4,0.9-0.7,1.2c-0.7,0.8-1.4,1.6-2.2,2.3"/>
			<path class="st9" d="M99.6,87.6c0.4-1.5,1.2-2.9,2.4-3.9c0.2-0.1,0.4-0.3,0.6-0.2c0.3,0.1,0.3,0.4,0.3,0.7
				c-0.1,0.5-0.4,0.9-0.7,1.2c-0.7,0.8-1.4,1.6-2.2,2.3"/>
			<path class="st9" d="M95,88.4c0.4-1.5,1.2-2.9,2.4-3.9c0.2-0.1,0.4-0.3,0.6-0.2c0.3,0.1,0.3,0.4,0.3,0.7
				c-0.1,0.5-0.4,0.9-0.7,1.2c-0.7,0.8-1.4,1.6-2.2,2.3"/>
		</g>
	</g>
	<g>
		<g>
			<g>
				<g>
					<path class="st10" d="M43.9,25.9h20.2l12.8,13.5v49c0,2.1-1.6,3.8-3.6,3.8H43.9c-2,0-3.6-1.7-3.6-3.8V29.8
						C40.3,27.7,41.9,25.9,43.9,25.9z"/>
					<path class="st11" d="M76.9,43H65.2c-2.3,0-4.2-2-4.2-4.4V26l3.1,0l12.8,13.7L76.9,43z"/>
					<path class="st10" d="M76.9,40.8H66.7c-2,0-3.6-1.7-3.6-3.8V26v0h1l12.8,13.5V40.8z"/>
					<g>
						<path class="st12" d="M45.3,37.8h14.2c0.6,0,1.1,0.5,1.1,1.1v1.9c0,0.6-0.5,1.1-1.1,1.1H45.3c-0.6,0-1.1-0.5-1.1-1.1V39
							C44.2,38.3,44.7,37.8,45.3,37.8z"/>
						<path class="st12" d="M45,51.7h27.2c0.4,0,0.8,0.4,0.8,0.8v1.3c0,0.4-0.3,0.8-0.8,0.8H45c-0.4,0-0.8-0.4-0.8-0.8v-1.3
							C44.2,52.1,44.6,51.7,45,51.7z"/>
						<path class="st12" d="M45,58.2h27.2c0.4,0,0.8,0.4,0.8,0.8v1.3c0,0.4-0.3,0.8-0.8,0.8H45c-0.4,0-0.8-0.4-0.8-0.8V59
							C44.2,58.6,44.6,58.2,45,58.2z"/>
						<path class="st12" d="M45,64.7h27.2c0.4,0,0.8,0.4,0.8,0.8v1.3c0,0.4-0.3,0.8-0.8,0.8H45c-0.4,0-0.8-0.4-0.8-0.8v-1.3
							C44.2,65.1,44.6,64.7,45,64.7z"/>
					</g>
				</g>
				<path class="st13" d="M45.6,45.3h0.7l1.4,3.6H47l-0.3-0.7h-1.4L45,49h-0.7L45.6,45.3L45.6,45.3z M46,46.3l-0.5,1.2h1L46,46.3
					L46,46.3z M51.5,45.9L51,46.4c-0.3-0.3-0.6-0.5-1-0.5c-0.3,0-0.6,0.1-0.9,0.4c-0.2,0.2-0.4,0.5-0.4,0.9c0,0.3,0.1,0.6,0.4,0.9
					c0.2,0.2,0.5,0.4,0.9,0.4c0.2,0,0.4-0.1,0.6-0.2c0.2-0.1,0.3-0.3,0.4-0.5h-1v-0.6h1.8l0,0.2c0,0.3-0.1,0.6-0.2,0.9
					c-0.2,0.3-0.4,0.5-0.6,0.7c-0.3,0.1-0.6,0.2-0.9,0.2c-0.4,0-0.7-0.1-1-0.2c-0.3-0.2-0.5-0.4-0.7-0.7c-0.2-0.3-0.3-0.6-0.3-1
					c0-0.5,0.2-0.9,0.5-1.3c0.4-0.4,0.8-0.6,1.4-0.6c0.3,0,0.6,0.1,0.9,0.2C51,45.5,51.2,45.7,51.5,45.9L51.5,45.9z M52.4,45.3h0.7
					c0.4,0,0.7,0,0.8,0.1c0.2,0.1,0.3,0.2,0.4,0.4c0.1,0.2,0.2,0.4,0.2,0.6c0,0.2-0.1,0.4-0.2,0.6c-0.1,0.2-0.3,0.3-0.5,0.4l0.8,1.6
					h-0.7l-0.8-1.5H53V49h-0.7V45.3L52.4,45.3z M53,46.8h0.2c0.2,0,0.4,0,0.4-0.1c0.1-0.1,0.1-0.2,0.1-0.3c0-0.1,0-0.1-0.1-0.2
					c0-0.1-0.1-0.1-0.2-0.1c-0.1,0-0.2,0-0.4,0H53V46.8L53,46.8z M55.2,45.3h1.9V46h-1.3v0.7h1.3v0.7h-1.3v1h1.3V49h-1.9V45.3
					L55.2,45.3z M57.7,45.3h1.9V46h-1.3v0.7h1.3v0.7h-1.3v1h1.3V49h-1.9V45.3L57.7,45.3z M60.6,45.3h0.7l0.8,2.5l0.8-2.5h0.7
					l0.6,3.6h-0.6l-0.4-2.3L62.4,49h-0.6l-0.7-2.3L60.7,49H60L60.6,45.3L60.6,45.3z M64.7,45.3h1.9V46h-1.3v0.7h1.3v0.7h-1.3v1h1.3
					V49h-1.9V45.3L64.7,45.3z M67.3,45.3h0.6l1.5,2.4v-2.4h0.7V49h-0.6l-1.5-2.4V49h-0.7V45.3L67.3,45.3z M70.6,45.3h2V46h-0.6V49
					h-0.7V46h-0.6V45.3z"/>
				<path class="st14" d="M65.7,77c0.1-0.5,0.3-0.8,0.5-1c0.3-0.4,0.7-0.5,0.8-0.4c0.2,0,0.1,0.5,0,1.3c-0.2,1.2-0.5,3.2-0.4,3.7
					c0,0,0,0.1,0.1,0.1c0,0,0,0,0,0c0,0,0,0,0.1,0c0.1,0,0.1-0.1,0.2-0.2c0.2-0.3,0.5-0.8,0.8-1.3c0.1-1.4,0.4-3.2,0.7-3.2
					c0.1,0,0.2,0,0.3,0.1c0.2,0.1,0.3,0.3,0.3,0.7c0,0.3-0.1,0.6-0.2,1c-0.2,0.5-0.5,1.1-0.8,1.6c0,0.4-0.1,0.8-0.1,1.1
					c0.3-0.5,0.7-1.2,1.1-1.1c0.4,0,0.4,0.5,0.4,1c0,0.3,0,0.6,0.1,0.7c0.1,0,0.4-0.1,0.6-0.4c0.3-0.4,0.7-0.9,0.9-1.3l0.3,0.1
					c-0.2,0.4-0.5,1-0.9,1.4c-0.3,0.4-0.7,0.6-0.9,0.5c-0.3-0.1-0.3-0.5-0.3-1c0-0.3,0-0.7-0.1-0.7c-0.3,0-0.6,0.6-0.9,1
					c-0.2,0.3-0.3,0.4-0.4,0.4c-0.1,0-0.2-0.1-0.2-0.3l0-0.2c0-0.2,0-0.4,0.1-0.7c-0.2,0.3-0.4,0.6-0.5,0.8
					c-0.1,0.2-0.3,0.3-0.4,0.3c-0.1,0-0.1,0-0.2,0c-0.1,0-0.1,0-0.2-0.1c-0.1-0.1-0.1-0.1-0.2-0.3c-0.1-0.5,0.2-2.5,0.4-3.8
					c0-0.2,0.3-1.2-0.2-0.6c-0.1,0.2-0.3,0.5-0.4,0.9L65.7,77L65.7,77z M68,78.4c0.2-0.3,0.3-0.7,0.4-1c0.1-0.3,0.2-0.6,0.2-0.9
					c0-0.2,0-0.3-0.1-0.4c0,0-0.1,0-0.2,0C68.3,76.1,68.1,77.2,68,78.4z"/>
			</g>
			<g>
				<linearGradient id="SVGID_1_" gradientUnits="userSpaceOnUse" x1="5.8469" y1="89.2281" x2="10.574" y2="94.1971">
					<stop  offset="0" style="stop-color:#31ADCC"/>
					<stop  offset="1" style="stop-color:#198AA6"/>
				</linearGradient>
				<path class="st15" d="M4.6,88.1L4,86.9l1.4-1l0.9,1c0.5-0.2,1-0.3,1.4-0.4l0.4-1.3l1.6,0.3l-0.1,1.2c0.5,0.2,1,0.5,1.4,0.9
					l1-0.5l0.9,1.4l-0.8,0.8c0.2,0.5,0.3,1.1,0.3,1.7l1.1,0.4l-0.3,1.7l-1.3-0.1c-0.2,0.5-0.5,0.9-0.9,1.3l0.6,1.2l-1.4,1l-0.9-1
					C8.9,95.8,8.4,96,8,96l-0.4,1.3l-1.6-0.3L6,95.7c-0.5-0.2-1-0.5-1.4-0.9l-1,0.5l-0.9-1.4l0.8-0.8c-0.2-0.5-0.3-1.1-0.3-1.7
					L2.2,91l0.3-1.7l1.3,0.1C4,89,4.3,88.5,4.6,88.1L4.6,88.1z M6.3,88.9C5,89.8,4.6,91.6,5.5,93c0.9,1.4,2.6,1.7,3.9,0.8
					c1.3-0.9,1.6-2.8,0.8-4.1C9.3,88.3,7.5,87.9,6.3,88.9z"/>
				<path class="st16" d="M16.1,86.3l-0.8-1.6l1.9-1.3l1.1,1.4c0.6-0.3,1.3-0.4,1.9-0.5l0.5-1.7l2.2,0.5l-0.1,1.6
					c0.7,0.3,1.3,0.7,1.8,1.2l1.3-0.7l1.2,1.9l-1.1,1c0.3,0.7,0.4,1.5,0.3,2.2l1.5,0.5l-0.4,2.3l-1.7-0.1c-0.3,0.6-0.7,1.2-1.2,1.7
					l0.8,1.6l-1.9,1.3l-1.1-1.4c-0.6,0.3-1.3,0.4-1.9,0.5l-0.5,1.7l-2.2-0.5l0.1-1.6c-0.7-0.3-1.3-0.7-1.8-1.2l-1.3,0.7L13.5,94
					l1.1-1c-0.3-0.7-0.4-1.5-0.3-2.2l-1.5-0.5l0.4-2.3l1.7,0.1C15.2,87.4,15.6,86.8,16.1,86.3L16.1,86.3z M18.3,87.3
					c-1.7,1.2-2.2,3.7-1.1,5.5c1.1,1.8,3.5,2.3,5.2,1.1c1.7-1.2,2.2-3.7,1.1-5.5C22.3,86.6,20,86.1,18.3,87.3z"/>
				<linearGradient id="SVGID_2_" gradientUnits="userSpaceOnUse" x1="12.4053" y1="80.226" x2="12.4884" y2="84.5832">
					<stop  offset="0" style="stop-color:#8FBA61"/>
					<stop  offset="1" style="stop-color:#799C54"/>
				</linearGradient>
				<path class="st17" d="M10.4,79.4l-0.3-1.1l1.2-0.5l0.5,0.9c0.4-0.1,0.8-0.1,1.2,0l0.5-0.9l1.2,0.5l-0.2,1
					c0.4,0.2,0.7,0.6,0.9,0.9l0.9-0.3l0.5,1.3L16,81.7c0.1,0.5,0.1,0.9,0,1.4l0.8,0.5l-0.5,1.3l-1-0.3c-0.2,0.3-0.5,0.6-0.9,0.9
					l0.3,1.1L13.6,87l-0.5-0.9c-0.4,0.1-0.8,0.1-1.2,0L11.4,87l-1.2-0.5l0.2-1C10,85.3,9.7,85,9.4,84.6l-0.9,0.3l-0.5-1.3l0.8-0.5
					c-0.1-0.5-0.1-0.9,0-1.4l-0.8-0.5L8.6,80l1,0.3C9.8,80,10,79.7,10.4,79.4L10.4,79.4z M11.6,80.2c-1.1,0.5-1.7,1.9-1.2,3.1
					c0.5,1.2,1.8,1.8,2.9,1.3c1.1-0.5,1.7-1.9,1.2-3.1C14,80.3,12.7,79.7,11.6,80.2z"/>
			</g>
			<g>
				<linearGradient id="SVGID_3_" gradientUnits="userSpaceOnUse" x1="29.2445" y1="34.0254" x2="27.1631" y2="45.8451">
					<stop  offset="0" style="stop-color:#FDD248"/>
					<stop  offset="1" style="stop-color:#FABD23"/>
				</linearGradient>
				<path class="st18" d="M21.2,33.1h11.6c0.8,0,1.5,0.7,1.5,1.7v9.3l2.1,2.5l-2.3-0.5c-0.2,0.5-0.8,0.9-1.3,0.9H21.2
					c-0.8,0-1.5-0.7-1.5-1.7V34.8C19.7,33.9,20.4,33.1,21.2,33.1z"/>
				<g>
					<g>
						<g>
							<rect x="20.9" y="40.2" class="st19" width="1.8" height="3.7"/>
							<rect x="23.5" y="36.6" class="st20" width="1.8" height="7.3"/>
							<rect x="26.1" y="39.1" class="st21" width="1.8" height="4.8"/>
							<rect x="28.6" y="37.4" class="st22" width="1.8" height="6.5"/>
						</g>
						<rect x="31.2" y="34.6" class="st14" width="1.8" height="9.3"/>
					</g>
					<path class="st19" d="M20.9,44.5c4.1,0,8.1,0,12.2,0v0.5c-4.1,0-8.1,0-12.2,0V44.5z"/>
				</g>
			</g>
			<g>
				<linearGradient id="SVGID_4_" gradientUnits="userSpaceOnUse" x1="86.1083" y1="30.9611" x2="83.6174" y2="41.8257">
					<stop  offset="0" style="stop-color:#8FBA61"/>
					<stop  offset="1" style="stop-color:#799C54"/>
				</linearGradient>
				<path class="st23" d="M90.2,31.7v10.1c0,0.7-0.6,1.3-1.3,1.3h-7.3l-1.9,1.8l0.4-2c-0.4-0.2-0.7-0.7-0.7-1.2V31.7
					c0-0.7,0.6-1.3,1.3-1.3h8.3C89.6,30.3,90.2,30.9,90.2,31.7z"/>
				<g>
					<path class="st24" d="M81.9,31.6h5.8c0.3,0,0.5,0.1,0.7,0.3l0,0c0.2,0.2,0.3,0.5,0.3,0.7v8.1c0,0.3-0.1,0.6-0.3,0.7l0,0
						c-0.2,0.2-0.4,0.3-0.7,0.3h-5.8c-0.3,0-0.5-0.1-0.7-0.3l0,0c-0.2-0.2-0.3-0.5-0.3-0.7v-8.1c0-0.3,0.1-0.6,0.3-0.7l0,0
						C81.4,31.7,81.6,31.6,81.9,31.6z"/>
					<path class="st10" d="M82.2,32h5.2c0.3,0,0.5,0.1,0.6,0.3l0,0c0.2,0.2,0.3,0.4,0.3,0.7v7.4c0,0.3-0.1,0.5-0.3,0.7l0,0
						c-0.2,0.2-0.4,0.3-0.6,0.3h-5.2c-0.3,0-0.5-0.1-0.6-0.3l0,0c-0.2-0.2-0.3-0.4-0.3-0.7V33c0-0.3,0.1-0.5,0.3-0.7l0,0
						C81.7,32.1,81.9,32,82.2,32z"/>
					<path class="st25" d="M83.9,34.4c-0.2,0-0.3-0.1-0.3-0.3c0-0.2,0.1-0.3,0.3-0.3h3.6c0.2,0,0.3,0.1,0.3,0.3
						c0,0.2-0.1,0.3-0.3,0.3H83.9z"/>
					<polygon class="st26" points="82,33.1 82.8,33.9 83.2,33.4 83.4,33.4 82.6,34.5 81.7,33.1 					"/>
					<path class="st25" d="M83.9,36.2c-0.2,0-0.3-0.1-0.3-0.3c0-0.2,0.1-0.3,0.3-0.3h3.6c0.2,0,0.3,0.1,0.3,0.3
						c0,0.2-0.1,0.3-0.3,0.3H83.9z"/>
					<path class="st25" d="M83.9,38.1c-0.2,0-0.3-0.1-0.3-0.3c0-0.2,0.1-0.3,0.3-0.3h3.6c0.2,0,0.3,0.1,0.3,0.3
						c0,0.2-0.1,0.3-0.3,0.3H83.9z"/>
					<path class="st25" d="M83.9,39.9c-0.2,0-0.3-0.1-0.3-0.3c0-0.2,0.1-0.3,0.3-0.3h3.6c0.2,0,0.3,0.1,0.3,0.3
						c0,0.2-0.1,0.3-0.3,0.3H83.9z"/>
					<polygon class="st26" points="82,34.9 82.8,35.8 83.2,35.2 83.4,35.2 82.6,36.4 81.7,34.9 					"/>
					<polygon class="st26" points="82,36.8 82.8,37.6 83.2,37.1 83.4,37.1 82.6,38.2 81.7,36.8 					"/>
				</g>
			</g>
			<g>
				<linearGradient id="SVGID_5_" gradientUnits="userSpaceOnUse" x1="58.2984" y1="112.4488" x2="58.7103" y2="108.355">
					<stop  offset="0" style="stop-color:#BED2E8"/>
					<stop  offset="1" style="stop-color:#CEE0F3"/>
				</linearGradient>
				<ellipse class="st27" cx="58.6" cy="109.3" rx="38.2" ry="2.1"/>
				<ellipse class="st28" cx="58.6" cy="109.3" rx="35.9" ry="1"/>
			</g>
			<g>
				<g>
					<g>
						<linearGradient id="SVGID_6_" gradientUnits="userSpaceOnUse" x1="69.9135" y1="69.7769" x2="68.9384" y2="63.8829">
							<stop  offset="0" style="stop-color:#BED2E8"/>
							<stop  offset="1" style="stop-color:#CEE0F3"/>
						</linearGradient>
						<path class="st29" d="M76.3,60.5c-0.7,4.4-0.9,7.7-3.2,9.9c-2.4,2.3-6.7,3.5-10.4,3.1c-0.3,0-0.7-0.1-1-0.1
							c-0.7-0.1-1-1-0.9-1.7c0.1-0.7,0.4-1.2,2.3-1.2c2.3,0,4.6-1.2,6.2-2.8c0.9-0.9,1.3-2,1.9-3.4c1.1-2.8,1-5.7,3.4-7.6
							c0.8-0.6,1.7-0.9,2.1-0.8C77.6,56.1,76.7,58.2,76.3,60.5z"/>
						<path class="st30" d="M76.3,60.5c-0.7,4.4-0.9,7.7-3.2,9.9c-2.1,2.1-5.7,3.2-9.1,3.2c5.3-0.9,7.6-3.7,8-6
							c0.6-3-0.2-6.7,1.2-9.3c0.3-0.6,0.8-1.2,1.4-1.7c0.8-0.6,1.7-0.9,2.1-0.8C77.6,56.1,76.7,58.2,76.3,60.5z"/>
					</g>
					<g>
						<path class="st31" d="M61.8,70.7c0.3,0,0.6,0.5,0.6,1.1c0,0.6-0.2,1.1-0.6,1.1c-0.3,0-0.6-0.5-0.6-1.1
							C61.3,71.2,61.5,70.7,61.8,70.7z"/>
						<linearGradient id="SVGID_7_" gradientUnits="userSpaceOnUse" x1="59.3152" y1="73.8365" x2="58.7649" y2="72.1707">
							<stop  offset="0" style="stop-color:#CF8D61"/>
							<stop  offset="1" style="stop-color:#E8A476"/>
						</linearGradient>
						<path class="st32" d="M61.6,70.9c-0.3-0.1-0.4-0.1-0.9-0.2c-1-0.2-1.8-0.2-2.5,0c-0.8,0.2-0.7,0.6,0.2,0.7
							c0.3,0,0.5,0.1,0.8,0.1c-0.9,0.5-1.2,0.3-2.2,0.2c-0.4,0-0.9-0.1-0.9-0.1c-0.5,0.2-0.9,1.1-0.6,1.5c0.3,0.4,2.2,0.7,2.7,0.7
							c0.9,0,1.4,0.1,1.8-0.2c0.8-0.5,0.8-0.5,1.6-0.7C62.3,72.7,62.3,71,61.6,70.9z"/>
						<path class="st33" d="M58.2,71.9c0.3,0.7,0.4,0.9,0.5,1.6l0.2-1c0.6-0.8,1.2-0.8,2.1-0.8c-1-0.1-1.5,0-2.3,0.5l-0.4-0.4
							L58.2,71.9z"/>
					</g>
				</g>
				<g>
					<g>
						<linearGradient id="SVGID_8_" gradientUnits="userSpaceOnUse" x1="90.4456" y1="107.2213" x2="86.45" y2="106.3153">
							<stop  offset="0" style="stop-color:#072C47"/>
							<stop  offset="1" style="stop-color:#104E7A"/>
						</linearGradient>
						<path class="st34" d="M91,108.1c-0.8,0.8-1.1,1.1-2.2,1.1c-0.9,0-1.2-0.2-1.7-0.6c-0.5-0.5-0.7-0.8-0.7-1.2
							c0-0.8,0.4-1.5,0.4-2.5l1.7,0.1l0.7-0.4c0.3,0.5,1,1.3,1.5,2.1C91.2,107,91.1,107.7,91,108.1z"/>
						<linearGradient id="SVGID_9_" gradientUnits="userSpaceOnUse" x1="87.8708" y1="106.3042" x2="88.6875" y2="104.4605">
							<stop  offset="0" style="stop-color:#072C47"/>
							<stop  offset="1" style="stop-color:#104E7A"/>
						</linearGradient>
						<path class="st35" d="M86.7,106c0.1-0.3,0.2-0.7,0.2-1.1l1.7,0.1l0.7-0.4c0.1,0.2,0.3,0.4,0.5,0.7
							C89.3,106,87.2,106.4,86.7,106z"/>
					</g>
					<g>
						<linearGradient id="SVGID_10_" gradientUnits="userSpaceOnUse" x1="74.2631" y1="107.372" x2="73.6525" y2="105.092">
							<stop  offset="0" style="stop-color:#072C47"/>
							<stop  offset="1" style="stop-color:#104E7A"/>
						</linearGradient>
						<path class="st36" d="M77.7,104.2c0.1,0.7,0.6,1.3,0.6,1.9c0.1,0.9-0.4,1.9-1.5,1.9L70,108c0.4-2.5,4.1-1.1,5.3-3.9l1.6,0.1
							L77.7,104.2z"/>
						<linearGradient id="SVGID_11_" gradientUnits="userSpaceOnUse" x1="76.1294" y1="105.1561" x2="76.9762" y2="103.7228">
							<stop  offset="0" style="stop-color:#072C47"/>
							<stop  offset="1" style="stop-color:#104E7A"/>
						</linearGradient>
						<path class="st37" d="M77.7,104.2c0,0.2,0.1,0.5,0.2,0.7c-0.6,0.5-1.9,0.8-3.3,0.3c0.3-0.3,0.5-0.6,0.7-1l1.6,0.1L77.7,104.2z
							"/>
					</g>
					<g>
						<linearGradient id="SVGID_12_" gradientUnits="userSpaceOnUse" x1="70.9144" y1="80.779" x2="81.8099" y2="91.938">
							<stop  offset="0" style="stop-color:#105B91"/>
							<stop  offset="1" style="stop-color:#0A3C5F"/>
						</linearGradient>
						<path class="st38" d="M73,72.4c-0.3,1.8-0.4,3.5-0.4,5.7c0.1,8.3,1.4,17.8,2.2,26.1c1.1,0.5,2.4,0.4,3.3,0
							c0.1-4.8,0.2-9.8,0.4-14.6c0.3-6,1-10.7,2.3-18.2l-5.3-0.2L73,72.4z"/>
						<path class="st39" d="M76.4,72.4c-0.3,1.8-0.3,6.9-0.3,9.1c0.1,7.4,1.2,15.3,2,22.7c0.1-4.8,0.2-9.8,0.4-14.6
							c0.3-5.3,0.8-9.5,1.9-15.5L76.4,72.4z"/>
					</g>
					<linearGradient id="SVGID_13_" gradientUnits="userSpaceOnUse" x1="69.221" y1="80.2428" x2="91.6768" y2="92.7745">
						<stop  offset="0" style="stop-color:#105B91"/>
						<stop  offset="1" style="stop-color:#0A3C5F"/>
					</linearGradient>
					<path class="st40" d="M83.5,73c0.4,1.3,1,2.4,1.6,5.1c0.6,3,0.8,5.8,1.3,8.7c0.9,5.7,2.1,11.5,3.7,17.7
						c-0.9,0.8-2.8,0.8-3.4,0.6c-2-4.8-3.2-9.5-5-14.3c-2.4-6.7-5.1-13.3-7.1-19.7L83.5,73z"/>
				</g>
				<g>
					<linearGradient id="SVGID_14_" gradientUnits="userSpaceOnUse" x1="81.2203" y1="76.274" x2="81.6668" y2="65.3075">
						<stop  offset="0" style="stop-color:#BED2E8"/>
						<stop  offset="1" style="stop-color:#CEE0F3"/>
					</linearGradient>
					<path class="st41" d="M84.8,76.7c2.3-4.5,2.7-8.5-0.5-12.1c-0.6,4.6-0.2,7.3,0.2,10.9c-3.8,1.5-8.4,1.4-11.9-1.4
						c0.5-4.1,0.6-7.1,0.3-11.2c-0.1-1.5,0.2-3,0.7-4.1c1.2-2.5,3.1-3.3,6.4-3c1.6,0.2,3.2,0.8,4.7,1.8c2.4,1.8,4.9,6,5.6,9
						c1,4.4-0.8,8.2-4.8,13.3C85.3,79.3,84.9,77.3,84.8,76.7z"/>
					<path class="st30" d="M84.8,76.7c2.2-4.2,2.6-7.9,0.1-11.3l0,0c2.9,2.9,3.3,6.1,1.1,11.5c0,0.8,0.1,1.5,0,2.2
						c-0.2,0.2-0.4,0.5-0.6,0.8C85.3,79.3,84.9,77.3,84.8,76.7z"/>
				</g>
				<g>
					<g>
						<linearGradient id="SVGID_15_" gradientUnits="userSpaceOnUse" x1="79.5671" y1="55.7036" x2="78.7556" y2="56.4048">
							<stop  offset="0" style="stop-color:#E8A476"/>
							<stop  offset="1" style="stop-color:#F1B287"/>
						</linearGradient>
						<path class="st42" d="M81,53.9c0,0.7,0.1,1.3,0.2,2.1c-0.3,1.1-1.3,2.1-2.3,1.9c-0.9-0.1-1.1-1.5-0.8-2.3c0-0.4,0.1-0.7,0.1-1
							l2.2-0.7L81,53.9z"/>
						<linearGradient id="SVGID_16_" gradientUnits="userSpaceOnUse" x1="79.4764" y1="54.5258" x2="79.549" y2="55.1787">
							<stop  offset="0" style="stop-color:#CF8D61"/>
							<stop  offset="1" style="stop-color:#E8A476"/>
						</linearGradient>
						<path class="st43" d="M81,53.9c0,0.2,0,0.4,0,0.6c-0.9,1.1-2.2,1.3-2.9,1.1c0-0.4,0.1-0.7,0.1-1l2.2-0.7L81,53.9z"/>
					</g>
					<g>
						<linearGradient id="SVGID_17_" gradientUnits="userSpaceOnUse" x1="80.1595" y1="47.6612" x2="82.0835" y2="51.5564">
							<stop  offset="0" style="stop-color:#632E40"/>
							<stop  offset="1" style="stop-color:#48202D"/>
						</linearGradient>
						<path class="st44" d="M81.4,53.7c0.5,0.2,0.7,0.1,0.9-0.3c0.2-0.4,0.2-0.3,0.5-0.5c0.1-0.1,0.2-0.3,0.3-0.4
							c0.3-0.5,0.2-0.8,0.3-1.1c0.1-0.5,0.3-0.6,0.5-0.9c0.6-1.4-0.3-2.9-1.7-2.5c-0.3-1-1.1-1.2-1.8-0.9c-0.7-0.7-1.5-0.8-2.1-0.2
							c-1.3,1.1-0.5,2.5,0.1,3l2,2.2L81.4,53.7z"/>
						<path class="st45" d="M81.4,53.7c0.5,0.2,0.7,0.1,0.9-0.3c0.2-0.4,0.2-0.3,0.5-0.5c0.1-0.1,0.2-0.3,0.3-0.4
							c0.3-0.5,0.2-0.8,0.3-1.1l0,0c-0.5,0.5-1.2,0.5-1.1-0.4c-0.3-0.4-0.5-0.8-0.4-1.2c0-0.6-0.1-0.9-0.7-0.9
							c-1.4,0.1-2.7,0.7-3.6-0.8c0,0.7,0.4,1.4,0.8,1.7l2,2.2L81.4,53.7z"/>
						<g>
							<linearGradient id="SVGID_18_" gradientUnits="userSpaceOnUse" x1="79.4703" y1="52.0707" x2="78.1493" y2="52.7997">
								<stop  offset="0" style="stop-color:#E8A476"/>
								<stop  offset="1" style="stop-color:#F1B287"/>
							</linearGradient>
							<path class="st46" d="M78,49.6c-0.4,1.5-0.9,3-0.6,4.5c0.1,0.6,0.4,0.9,1.2,0.9c0.6,0,1.2-0.2,1.7-0.3
								c0.8-0.2,0.8-0.5,0.9-0.8c0.1-0.1,0.2-0.2,0.3-0.3c0.4-0.3,0.9-0.4,1-0.9c0.1-0.5-0.2-0.8-0.4-0.5c-0.3,0.4-1,1.1-0.2-1.2
								c-0.4-0.5-0.4-0.6-0.5-1c0-0.4-0.1-0.7-0.6-0.6C79.9,49.7,79,50,78,49.6z"/>
							<path class="st47" d="M78,49.6c0,0.1-0.1,0.3-0.1,0.4c1.3,0.5,2.1,0,3.1-0.4c0.2,0.6,0.3,0.8,0.6,1.4c0,0.2-0.4,1.1-0.3,1.5
								c0,0.4,0.2,0.4,0.5,0.2c0.2-0.1,0.6-0.7,0.8-0.3c0-0.3-0.3-0.5-0.4-0.2c-0.3,0.4-1,1.1-0.2-1.2c-0.4-0.5-0.4-0.6-0.5-1
								c0-0.4-0.1-0.7-0.6-0.6C79.9,49.7,79,50,78,49.6z"/>
						</g>
					</g>
				</g>
				<g>
					<linearGradient id="SVGID_19_" gradientUnits="userSpaceOnUse" x1="77.361" y1="68.8062" x2="78.8253" y2="58.3902">
						<stop  offset="0" style="stop-color:#31ADCC"/>
						<stop  offset="1" style="stop-color:#198AA6"/>
					</linearGradient>
					<path class="st48" d="M79.1,59.3l-0.4,9.4l-1.6,2.1l-1-2.5l2.4-9.2c-0.2-0.8-0.2-0.9,0-1.1c0.2-0.1,0-0.1,0.6-0.1
						c0.4,0,0.7,0.1,0.7,0.5C79.7,58.8,79.4,59,79.1,59.3z"/>
					<path class="st10" d="M81.1,55.6c0.3,0.1,0.5,0.2,0.6,0.4c0.2,0.7-1,2.8-1.8,3c-0.3-0.5-0.5-0.8-1-1.1
						C80.3,57.5,81,56.8,81.1,55.6z"/>
					<path class="st10" d="M78.1,55.6c-0.2,0-0.5,0.2-0.5,0.2c-0.3,0.4-0.3,2,0.2,3c0.4-0.5,0.8-0.7,1.2-0.9
						C77.9,57.2,77.9,56.4,78.1,55.6z"/>
				</g>
				<g>
					<g>
						<linearGradient id="SVGID_20_" gradientUnits="userSpaceOnUse" x1="30.5258" y1="108.9914" x2="31.038" y2="107.0391">
							<stop  offset="0" style="stop-color:#072C47"/>
							<stop  offset="1" style="stop-color:#104E7A"/>
						</linearGradient>
						<path class="st49" d="M27.3,106.6c-0.2,0.4-0.4,0.8-0.5,1.1c-0.1,0.9,0.4,1.7,1.3,1.7c2.1,0.1,4,0.1,6,0.1
							c0.3,0,0.2-0.3,0.2-0.4c-0.5-1.7-3.1-1.1-4.5-2.6C29.3,105.9,27.8,105.8,27.3,106.6z"/>
						<linearGradient id="SVGID_21_" gradientUnits="userSpaceOnUse" x1="29.0303" y1="105.5107" x2="28.3079" y2="106.9664">
							<stop  offset="0" style="stop-color:#E8A476"/>
							<stop  offset="1" style="stop-color:#F1B287"/>
						</linearGradient>
						<path class="st50" d="M30.8,103.9c-0.2,0.8-0.7,1.8-0.9,2.7c-0.2,0.8-2.5,0.8-2.2,0c0.2-0.7,0.3-1.4,0.5-2L30.8,103.9z"/>
					</g>
					<g>
						<linearGradient id="SVGID_22_" gradientUnits="userSpaceOnUse" x1="31.1527" y1="81.8896" x2="37.5318" y2="102.5861">
							<stop  offset="0" style="stop-color:#105B91"/>
							<stop  offset="1" style="stop-color:#0A3C5F"/>
						</linearGradient>
						<path class="st51" d="M33.9,75.1c-1.1,2.4-1.2,4.2-1.5,6.4c-0.8,8-2.7,16.3-5.1,24.3c0.6,0.7,2.1,0.6,2.9,0.3
							c4.5-11.5,8.3-17.3,10.3-29.9L33.9,75.1z"/>
						<path class="st39" d="M36.3,74.6c-0.6,6.1-0.9,11.8-2.2,17c-0.8,3.3-2.6,7.5-3.9,14.5c4.5-11.5,8.3-17.3,10.3-29.9L36.3,74.6z
							"/>
					</g>
				</g>
				<g>
					<g>
						<linearGradient id="SVGID_23_" gradientUnits="userSpaceOnUse" x1="40.0994" y1="108.9914" x2="40.6115" y2="107.0391">
							<stop  offset="0" style="stop-color:#072C47"/>
							<stop  offset="1" style="stop-color:#104E7A"/>
						</linearGradient>
						<path class="st52" d="M36.9,106.6c-0.2,0.4-0.4,0.8-0.5,1.1c-0.1,0.9,0.4,1.7,1.3,1.7c2.1,0.1,4,0.1,6,0.1
							c0.3,0,0.2-0.3,0.2-0.4c-0.5-1.7-3.1-1.1-4.5-2.6C38.9,105.9,37.4,105.8,36.9,106.6z"/>
						<linearGradient id="SVGID_24_" gradientUnits="userSpaceOnUse" x1="38.3265" y1="105.4644" x2="37.9771" y2="106.9292">
							<stop  offset="0" style="stop-color:#E8A476"/>
							<stop  offset="1" style="stop-color:#F1B287"/>
						</linearGradient>
						<path class="st53" d="M39.5,103.9c0,0.8-0.2,1.6-0.2,2.5c0,0.8-2.1,1.1-2.1,0.3c0-0.7,0-1.3,0-2L39.5,103.9z"/>
					</g>
					<linearGradient id="SVGID_25_" gradientUnits="userSpaceOnUse" x1="34.4045" y1="80.8292" x2="46.3296" y2="103.0703">
						<stop  offset="0" style="stop-color:#105B91"/>
						<stop  offset="1" style="stop-color:#0A3C5F"/>
					</linearGradient>
					<path class="st54" d="M36.5,75.6c-0.4,2-0.7,3.7-0.4,5.5c1.4,8.2,1.3,16.2,0.7,24.6c0.8,0.7,2,0.8,2.8,0.3
						c1.9-11.5,4.3-16.7,3.6-29.3L36.5,75.6z"/>
				</g>
				<g>
					<linearGradient id="SVGID_26_" gradientUnits="userSpaceOnUse" x1="53.394" y1="56.9684" x2="55.0142" y2="55.6248">
						<stop  offset="0" style="stop-color:#E8A476"/>
						<stop  offset="1" style="stop-color:#F1B287"/>
					</linearGradient>
					<path class="st55" d="M53,58.4l-1.6-0.8c0.6-0.6,0.8-0.8,1.2-1.5c0.5-0.8,1.1-1.4,1.7-1.7c0.7-0.4,0.9-0.1,0.3,0.6
						c-0.2,0.2-0.3,0.4-0.5,0.6c0.9-0.3,1-0.6,1.7-1.4c0.3-0.3,0.5-0.7,0.6-0.7c0.4-0.2,1.3,0.2,1.4,0.6c0.1,0.5-1.1,2-1.5,2.4
						c-0.6,0.7-1,1-1.4,1.1C53.8,57.8,53.9,57.9,53,58.4z"/>
					<linearGradient id="SVGID_27_" gradientUnits="userSpaceOnUse" x1="46.2866" y1="59.8689" x2="47.7333" y2="62.7685">
						<stop  offset="0" style="stop-color:#31ADCC"/>
						<stop  offset="1" style="stop-color:#198AA6"/>
					</linearGradient>
					<path class="st56" d="M53.3,58.3c-0.6-0.7-0.7-0.9-1.5-1.4c-1.9,1.7-3.1,3-4.4,3.8c-1.5,0.8-3.2,0.6-5.8-0.1l-2.1,1.5l3,3.2
						C48,64.7,49.6,63.8,53.3,58.3z"/>
					<linearGradient id="SVGID_28_" gradientUnits="userSpaceOnUse" x1="45.4818" y1="59.0738" x2="47.7779" y2="61.7108">
						<stop  offset="0" style="stop-color:#31ADCC"/>
						<stop  offset="1" style="stop-color:#198AA6"/>
					</linearGradient>
					<path class="st57" d="M53.3,58.3c-4.3,4.2-4.9,5.3-9,2.9c-0.8-0.1-1.6-0.3-2.6-0.6l-2.1,1.5l3,3.2C48,64.7,49.6,63.8,53.3,58.3
						z"/>
				</g>
				<g>
					<linearGradient id="SVGID_29_" gradientUnits="userSpaceOnUse" x1="38.4673" y1="57.6795" x2="38.2878" y2="59.309">
						<stop  offset="0" style="stop-color:#CF8D61"/>
						<stop  offset="1" style="stop-color:#E8A476"/>
					</linearGradient>
					<path class="st58" d="M40.2,57.5C40,58.2,39.8,59,40.3,60l-4.1,0c1.4-1.4,1.5-2.2,1.5-3.5l1.5,0.3L40.2,57.5z"/>
					<g>
						<g>
							<linearGradient id="SVGID_30_" gradientUnits="userSpaceOnUse" x1="41.463" y1="56.3267" x2="42.5487" y2="57.3965">
								<stop  offset="0" style="stop-color:#E8A476"/>
								<stop  offset="1" style="stop-color:#F1B287"/>
							</linearGradient>
							<path class="st59" d="M41.3,52.3c0.6,0.9,1.1,2.9,0.9,4.4c-0.1,0.5-0.1,1.2-0.5,1.3c-0.4,0.2-0.9,0.1-1.8,0
								c-1.2-0.1-1.1-0.5-1.7-1.7l-1.1-2.8l2.2-2.3L41.3,52.3z"/>
							<path class="st47" d="M41.3,52.3c0.1,0.1,0.2,0.3,0.3,0.5C41.3,53,41,53.1,40.4,53c0,0.7-0.4,2.5-1.2,2.3
								c-0.1,0-0.3-0.2-0.5-0.4c-0.2-0.1-0.5-0.1-0.3,0.3c0.3,1,0.6,1.2,0.2,2c-0.1-0.2-0.2-0.5-0.4-0.8l-1.1-2.8l2.2-2.3L41.3,52.3
								z"/>
						</g>
						<g>
							<linearGradient id="SVGID_31_" gradientUnits="userSpaceOnUse" x1="39.1287" y1="49.7132" x2="38.0732" y2="54.855">
								<stop  offset="0" style="stop-color:#632E40"/>
								<stop  offset="1" style="stop-color:#48202D"/>
							</linearGradient>
							<path class="st60" d="M40.1,52.7c2,0.3,2.2-1.1,1.8-2c-0.6-1.2-2.3-2-3.4-0.1c-0.8-0.4-1.2-0.3-1.5,0.6
								c-1.5-0.4-2.1,1.1-1.7,2.4c0.3,1.2,1.2,2,1.9,3c0.2,0.3,0.4,0.6,0.6,0.9c0.5-0.2,0.6-0.4,0.7-0.7c0.1-0.2-0.2-1.1-0.3-1.6
								c0-0.4,0.2-0.7,0.6-0.5c0.1,0.1,0.2,0.3,0.4,0.5C40.1,54.6,40,53.7,40.1,52.7z"/>
							<path class="st45" d="M40.1,52.7c2,0.3,2.2-1.1,1.8-2c0,0,0,0,0,0c-0.1,0.8-0.5,1.3-1.3,1.3c-0.9,0-1.2,0-1.3,1.2
								c-0.1,0.6-0.1,1-0.5,0.9c-0.8-0.2-1.3,0.2-1.3,1.2c0,0.5-0.2,0.9-0.5,1c0.1,0.1,0.2,0.2,0.2,0.3c0.2,0.3,0.3,0.6,0.4,1
								c1.4-0.5,0.7-1.4,0.6-2.5c0-0.4,0.2-0.7,0.6-0.5c0.1,0.1,0.2,0.3,0.4,0.5C40.1,54.6,40,53.7,40.1,52.7z"/>
						</g>
					</g>
				</g>
				<linearGradient id="SVGID_32_" gradientUnits="userSpaceOnUse" x1="36.2062" y1="67.7874" x2="44.2139" y2="76.288">
					<stop  offset="0" style="stop-color:#31ADCC"/>
					<stop  offset="1" style="stop-color:#198AA6"/>
				</linearGradient>
				<path class="st61" d="M42.1,60.6c-1.5-1.8-3-1.6-5-1.8c-2.4,2-2.7,3.7-3.1,6c-0.2,1.4-0.3,8-1,12.8c3.5,2,6.9,2.3,10.4,1.6
					c-0.1-2.8-0.1-4.6,0.1-6.7C43.9,67.1,44.3,63.2,42.1,60.6z"/>
				<linearGradient id="SVGID_33_" gradientUnits="userSpaceOnUse" x1="38.9798" y1="67.6844" x2="44.972" y2="73.3956">
					<stop  offset="0" style="stop-color:#31ADCC"/>
					<stop  offset="1" style="stop-color:#198AA6"/>
				</linearGradient>
				<path class="st62" d="M43.3,76.6c-0.1-0.9,0.2-3.3,0.1-4.3c-0.3-2-0.6-4.2-1-6.1c-1.4-1-1.7-1.7-2.8-2.7
					C38.7,70.2,41.9,72.2,43.3,76.6z"/>
				<g>
					<linearGradient id="SVGID_34_" gradientUnits="userSpaceOnUse" x1="53.9917" y1="71.7049" x2="56.2167" y2="71.288">
						<stop  offset="0" style="stop-color:#E8A476"/>
						<stop  offset="1" style="stop-color:#F1B287"/>
					</linearGradient>
					<path class="st63" d="M52.7,72.2l-0.8-1.7c0.8-0.1,1.1-0.1,1.8-0.4c0.9-0.3,1.7-0.3,2.4-0.2c0.8,0.1,0.7,0.5-0.1,0.7
						c-0.2,0-0.5,0.1-0.8,0.1c0.9,0.4,1.1,0.2,2.1,0.1c0.4-0.1,0.8-0.2,0.9-0.2c0.5,0.2,0.9,1,0.7,1.4c-0.2,0.4-2.1,0.8-2.6,0.8
						c-0.9,0.1-1.4,0.1-1.8-0.1C53.6,72.3,53.7,72.4,52.7,72.2z"/>
					<linearGradient id="SVGID_35_" gradientUnits="userSpaceOnUse" x1="45.7969" y1="62.0742" x2="46.8594" y2="72.7021">
						<stop  offset="0" style="stop-color:#31ADCC"/>
						<stop  offset="1" style="stop-color:#198AA6"/>
					</linearGradient>
					<path class="st64" d="M52.9,70.3c-9.1,0.3-8.1-0.9-9.2-5.2c-0.4-1.5-0.7-2.5-1.1-3.3c-1.7-2.9-3.4-0.6-3.2,2.1
						c0.1,1.3,0.3,2.4,0.9,4.4c2,6.6,6.9,5.2,12.8,4.2C53.3,72,53.3,71,52.9,70.3z"/>
				</g>
			</g>
			<g>
				<linearGradient id="SVGID_36_" gradientUnits="userSpaceOnUse" x1="26.1396" y1="54.0607" x2="24.94" y2="63.6581">
					<stop  offset="0" style="stop-color:#31ADCC"/>
					<stop  offset="1" style="stop-color:#198AA6"/>
				</linearGradient>
				<path class="st65" d="M20.2,64.6h10.3c0.7,0,1.3-0.7,1.3-1.5v-8.2l1.8-2.2l-2,0.4c-0.2-0.5-0.7-0.8-1.2-0.8H20.2
					c-0.7,0-1.3,0.7-1.3,1.5v9.3C18.9,64,19.4,64.6,20.2,64.6z"/>
				<g>
					<path class="st20" d="M25.4,54c2.3,0,4.2,2,4.2,4.5c0,2.5-1.9,4.5-4.2,4.5c-2.3,0-4.2-2-4.2-4.5C21.2,56,23.1,54,25.4,54z"/>
					<linearGradient id="SVGID_37_" gradientUnits="userSpaceOnUse" x1="25.5715" y1="56.5421" x2="25.0219" y2="63.5031">
						<stop  offset="0" style="stop-color:#105B91"/>
						<stop  offset="1" style="stop-color:#0A3C5F"/>
					</linearGradient>
					<ellipse class="st66" cx="25.4" cy="58.5" rx="3.6" ry="3.8"/>
					<path class="st19" d="M25.7,57.9c0.1,0.1,0.2,0.2,0.3,0.3h1.7c0.1,0,0.3,0.1,0.3,0.3l0,0c0,0.2-0.1,0.3-0.3,0.3H26
						c-0.1,0.2-0.3,0.4-0.6,0.4c-0.4,0-0.6-0.3-0.6-0.7c0-0.3,0.2-0.5,0.4-0.6v-1.2c0-0.2,0.1-0.3,0.3-0.3l0,0
						c0.1,0,0.3,0.1,0.3,0.3V57.9L25.7,57.9z M25.4,58.1c-0.2,0-0.3,0.2-0.3,0.3c0,0.2,0.1,0.3,0.3,0.3c0.2,0,0.3-0.2,0.3-0.3
						C25.7,58.3,25.6,58.1,25.4,58.1z"/>
					<path class="st20" d="M25.4,58.2c0.1,0,0.3,0.1,0.3,0.3c0,0.2-0.1,0.3-0.3,0.3c-0.1,0-0.1,0-0.2-0.1l-2.4,1.1
						c-0.1,0.1-0.2-0.1-0.1-0.2l2.4-1.1C25.2,58.3,25.3,58.2,25.4,58.2z"/>
					<path class="st19" d="M21.8,54.9c0.1-0.1,0.3-0.3,0.4-0.4c0.1-0.1,0.3-0.2,0.4-0.4l0.1,0.2c-0.1,0.1-0.3,0.2-0.4,0.3
						c-0.1,0.1-0.3,0.2-0.4,0.4L21.8,54.9L21.8,54.9z M23.1,53.9c0.1-0.1,0.2-0.1,0.4-0.2c0.1-0.1,0.2-0.1,0.4-0.2l0.1,0.2
						c-0.1,0-0.2,0.1-0.4,0.1c-0.1,0.1-0.2,0.1-0.3,0.2L23.1,53.9L23.1,53.9z M24.2,53.5c0.1,0,0.2,0,0.3-0.1c0.1,0,0.2,0,0.3,0
						l0,0.2c-0.1,0-0.2,0-0.3,0c-0.1,0-0.2,0-0.3,0.1L24.2,53.5L24.2,53.5z M25.2,53.3c0,0,0.1,0,0.1,0l0.1,0l0.1,0l0.1,0l0,0.2
						l-0.1,0l-0.1,0l-0.1,0c0,0-0.1,0-0.1,0L25.2,53.3L25.2,53.3z M26,53.3c0.1,0,0.1,0,0.2,0c0.1,0,0.1,0,0.2,0l0,0.2
						c0,0-0.1,0-0.2,0c-0.1,0-0.1,0-0.2,0L26,53.3L26,53.3z M27.8,53.9c0.8,0.4,1.4,1.1,1.9,1.9c0.4,0.8,0.7,1.7,0.7,2.6
						c0,0.5-0.1,0.9-0.2,1.4c-0.1,0.4-0.3,0.9-0.5,1.2L29.5,61c0.2-0.4,0.4-0.8,0.5-1.2c0.1-0.4,0.2-0.9,0.2-1.3
						c0-0.9-0.2-1.8-0.7-2.5c-0.4-0.8-1.1-1.4-1.8-1.8L27.8,53.9L27.8,53.9z M28.4,62.6c-0.4,0.3-0.9,0.6-1.4,0.8
						c-0.5,0.2-1,0.3-1.6,0.3c-0.4,0-0.8-0.1-1.2-0.2c-0.4-0.1-0.8-0.3-1.1-0.5l0.1-0.2c0.3,0.2,0.7,0.3,1.1,0.5
						c0.4,0.1,0.8,0.2,1.2,0.2c0.5,0,1-0.1,1.5-0.3c0.5-0.2,0.9-0.4,1.3-0.8L28.4,62.6L28.4,62.6z M21.7,61.9
						c-0.4-0.5-0.7-1-0.9-1.6c-0.2-0.6-0.3-1.2-0.3-1.8c0-0.5,0.1-1,0.2-1.5c0.1-0.5,0.3-0.9,0.6-1.4l0.2,0.1
						c-0.2,0.4-0.4,0.8-0.6,1.3c-0.1,0.4-0.2,0.9-0.2,1.4c0,0.6,0.1,1.2,0.3,1.8c0.2,0.6,0.5,1.1,0.9,1.5L21.7,61.9z"/>
					<path class="st19" d="M28.8,58.5L28.8,58.5c0,0.1-0.1,0.2-0.2,0.2h-0.2c-0.1,0-0.2-0.1-0.2-0.2v0c0-0.1,0.1-0.2,0.2-0.2h0.2
						C28.7,58.3,28.8,58.4,28.8,58.5L28.8,58.5z M23,55.9L23,55.9c0.1-0.1,0.2-0.1,0.3,0l0.2,0.2c0.1,0.1,0.1,0.2,0,0.3l0,0
						c-0.1,0.1-0.2,0.1-0.3,0L23,56.3C22.9,56.2,22.9,56,23,55.9L23,55.9z M27.4,60.6L27.4,60.6c0.1-0.1,0.2-0.1,0.3,0l0.2,0.2
						c0.1,0.1,0.1,0.2,0,0.3l0,0c-0.1,0.1-0.2,0.1-0.3,0l-0.2-0.2C27.3,60.8,27.3,60.6,27.4,60.6L27.4,60.6z M25.4,54.9L25.4,54.9
						c0.1,0,0.2,0.1,0.2,0.2v0.2c0,0.1-0.1,0.2-0.2,0.2h0c-0.1,0-0.2-0.1-0.2-0.2v-0.2C25.2,55,25.3,54.9,25.4,54.9L25.4,54.9z
						 M25.4,61.4L25.4,61.4c0.1,0,0.2,0.1,0.2,0.2v0.2c0,0.1-0.1,0.2-0.2,0.2h0c-0.1,0-0.2-0.1-0.2-0.2v-0.2
						C25.2,61.5,25.3,61.4,25.4,61.4L25.4,61.4z M27.8,55.9L27.8,55.9c0.1,0.1,0.1,0.2,0,0.3l-0.2,0.2c-0.1,0.1-0.2,0.1-0.3,0l0,0
						c-0.1-0.1-0.1-0.2,0-0.3l0.2-0.2C27.6,55.8,27.8,55.8,27.8,55.9L27.8,55.9z M22.6,58.5L22.6,58.5c0,0.1-0.1,0.2-0.2,0.2h-0.2
						c-0.1,0-0.2-0.1-0.2-0.2v0c0-0.1,0.1-0.2,0.2-0.2h0.2C22.5,58.3,22.6,58.4,22.6,58.5L22.6,58.5z M23.5,60.6L23.5,60.6
						c0.1,0.1,0.1,0.2,0,0.3L23.3,61c-0.1,0.1-0.2,0.1-0.3,0l0,0c-0.1-0.1-0.1-0.2,0-0.3l0.2-0.2C23.2,60.5,23.4,60.5,23.5,60.6z"/>
				</g>
			</g>
			<g>
				<g>
					<linearGradient id="SVGID_38_" gradientUnits="userSpaceOnUse" x1="58.3294" y1="80.4155" x2="58.2448" y2="88.8322">
						<stop  offset="0" style="stop-color:#FDD248"/>
						<stop  offset="1" style="stop-color:#FABD23"/>
					</linearGradient>
					<ellipse class="st67" cx="58.3" cy="83.7" rx="5.5" ry="5.8"/>
					<path class="st68" d="M58.3,78.9c1.2,0,2.4,0.5,3.2,1.4c0.8,0.9,1.3,2,1.3,3.4c0,1.3-0.5,2.5-1.3,3.4c-0.8,0.9-1.9,1.4-3.2,1.4
						c-1.2,0-2.4-0.5-3.2-1.4c-0.8-0.9-1.3-2-1.3-3.4c0-1.3,0.5-2.5,1.3-3.4C55.9,79.5,57.1,78.9,58.3,78.9L58.3,78.9z M60.9,80.9
						c-0.7-0.7-1.6-1.2-2.6-1.2c-1,0-2,0.4-2.6,1.2c-0.7,0.7-1.1,1.7-1.1,2.8c0,1.1,0.4,2.1,1.1,2.8c0.7,0.7,1.6,1.2,2.6,1.2
						c1,0,2-0.4,2.6-1.2c0.7-0.7,1.1-1.7,1.1-2.8C62,82.6,61.6,81.6,60.9,80.9z"/>
					<path class="st68" d="M60,84.6c0,0.5-0.1,1-0.4,1.3c-0.3,0.3-0.6,0.5-1,0.5v0.3h-0.5v-0.3c-0.4,0-0.8-0.1-1.1-0.4
						c-0.3-0.3-0.4-0.7-0.4-1.2h1.1c0,0.3,0.1,0.5,0.3,0.6c0.1,0.1,0.5,0.1,0.6,0c0.2-0.1,0.3-0.3,0.3-0.6c0-0.3-0.1-0.4-0.3-0.5
						c-0.2-0.1-0.4-0.1-0.6-0.1c-0.9-0.2-1.4-0.7-1.4-1.5c0-0.4,0.1-0.7,0.4-1c0.3-0.3,0.6-0.4,1-0.5l0-0.3h0.5l0,0.3
						c0.4,0,0.7,0.2,0.9,0.4c0.2,0.2,0.4,0.6,0.4,1h-1c0-0.1-0.1-0.3-0.2-0.4c-0.1-0.1-0.5-0.1-0.7,0c-0.2,0.1-0.3,0.3-0.3,0.5
						c0,0.2,0,0.3,0.1,0.3c0.1,0.1,0.7,0.2,0.9,0.3c0.3,0.1,0.6,0.2,0.8,0.5C59.9,83.9,60,84.2,60,84.6z"/>
				</g>
				<path class="st19" d="M53,78.4c0.2-0.2,0.4-0.4,0.6-0.6c0.2-0.2,0.4-0.4,0.7-0.5l0.2-0.1l0.4,0.6l-0.2,0.1
					c-0.2,0.1-0.4,0.3-0.6,0.5c-0.2,0.2-0.4,0.3-0.5,0.5l-0.1,0.1l-0.5-0.5L53,78.4L53,78.4z M54.9,76.9L54.7,77l0.3,0.7l0.2-0.1
					c0.2-0.1,0.3-0.2,0.5-0.2c0.2-0.1,0.3-0.1,0.5-0.2l0.2-0.1l-0.2-0.7L56,76.4c-0.2,0.1-0.4,0.1-0.6,0.2
					C55.2,76.7,55,76.8,54.9,76.9L54.9,76.9z M56.6,76.2c0.1,0,0.3-0.1,0.4-0.1c0.1,0,0.3-0.1,0.4-0.1l0.2,0l0.1,0.7l-0.2,0
					c-0.1,0-0.3,0-0.4,0.1c-0.1,0-0.3,0.1-0.4,0.1l-0.2,0l-0.2-0.7L56.6,76.2L56.6,76.2z M57.9,76c0.1,0,0.1,0,0.2,0l0.2,0l0.2,0
					l0.4,0l0,0.7l-0.3,0l-0.2,0l-0.2,0c-0.1,0-0.1,0-0.2,0l-0.2,0l0-0.7L57.9,76L57.9,76z M59.1,76.1c0.1,0,0.2,0,0.3,0
					c0.1,0,0.2,0,0.3,0l0.2,0l-0.1,0.7l-0.2,0c-0.1,0-0.2,0-0.2,0c-0.1,0-0.2,0-0.2,0l-0.2,0l0.1-0.7L59.1,76.1L59.1,76.1z
					 M61.8,76.9c1.2,0.7,2.1,1.6,2.8,2.8c0.7,1.2,1,2.5,1,3.9c0,0.7-0.1,1.4-0.3,2.1c-0.2,0.7-0.4,1.3-0.8,1.9l-0.1,0.2l-0.6-0.4
					l0.1-0.2c0.3-0.5,0.5-1.1,0.7-1.7c0.2-0.6,0.2-1.2,0.2-1.9c0-1.3-0.3-2.5-0.9-3.5c-0.6-1.1-1.5-2-2.5-2.6l-0.2-0.1l0.3-0.6
					L61.8,76.9L61.8,76.9z M62.7,89.8c-0.6,0.5-1.3,0.9-2.1,1.2c-0.7,0.3-1.5,0.4-2.3,0.4c-0.6,0-1.2-0.1-1.8-0.2
					c-0.6-0.2-1.2-0.4-1.7-0.7l-0.2-0.1l0.3-0.6l0.2,0.1c0.5,0.3,1,0.5,1.5,0.6c0.5,0.1,1.1,0.2,1.6,0.2c0.7,0,1.4-0.1,2.1-0.4
					c0.7-0.2,1.3-0.6,1.9-1.1l0.2-0.1l0.4,0.6L62.7,89.8L62.7,89.8z M52.8,88.8c-0.6-0.7-1.1-1.5-1.4-2.4c-0.3-0.9-0.5-1.8-0.5-2.7
					c0-0.7,0.1-1.5,0.3-2.2c0.2-0.7,0.5-1.4,0.9-2l0.1-0.2l0.6,0.4l-0.1,0.2c-0.3,0.6-0.6,1.2-0.8,1.8c-0.2,0.6-0.3,1.3-0.3,2
					c0,0.8,0.1,1.7,0.4,2.5c0.3,0.8,0.7,1.5,1.2,2.1l0.1,0.2L53,88.9L52.8,88.8z"/>
			</g>
			<g>
				<linearGradient id="SVGID_39_" gradientUnits="userSpaceOnUse" x1="58.6206" y1="110.1379" x2="58.6565" y2="102.5278">
					<stop  offset="0" style="stop-color:#105B91"/>
					<stop  offset="1" style="stop-color:#0A3C5F"/>
				</linearGradient>
				<path class="st69" d="M52.2,109.6h13c1.1,0,1.9-0.9,1.9-2v-9.6c0-1.1-0.9-2-1.9-2h-13c-1.1,0-1.9,0.9-1.9,2v9.6
					C50.3,108.7,51.1,109.6,52.2,109.6z"/>
				<path class="st70" d="M52.2,96.8h13c1.1,0,1.9,0.9,1.9,2v3.4l-5,2.9h-1.9v0.4c0,0.3-0.2,0.5-0.5,0.5h-2c-0.3,0-0.5-0.2-0.5-0.5
					v-0.4h-2l-5-2.9v-3.4C50.3,97.7,51.1,96.8,52.2,96.8z"/>
				<g>
					<linearGradient id="SVGID_40_" gradientUnits="userSpaceOnUse" x1="58.66" y1="94.786" x2="58.6331" y2="101.0239">
						<stop  offset="0" style="stop-color:#105B91"/>
						<stop  offset="1" style="stop-color:#0A3C5F"/>
					</linearGradient>
					<path class="st71" d="M56.4,94.1h4.6c0.5,0,0.9,0.4,0.9,0.9v1.6c-3.2,1.9-3.1,1.9-6.3,0V95C55.5,94.5,55.9,94.1,56.4,94.1
						L56.4,94.1z M57,95c-0.4,0-0.7,0.3-0.7,0.7v1.1c2.4,1.3,2.1,1.3,4.5,0v-1.1c0-0.4-0.3-0.7-0.7-0.7H57z"/>
					<path class="st70" d="M61.8,95.4v1.2c-3.2,1.9-3.1,1.9-6.3,0v-1.2h0.9c0,0.1-0.1,0.2-0.1,0.3v1.1c2.4,1.3,2.1,1.3,4.5,0v-1.1
						c0-0.1,0-0.2-0.1-0.3H61.8z"/>
				</g>
				<linearGradient id="SVGID_41_" gradientUnits="userSpaceOnUse" x1="58.6679" y1="97.3042" x2="58.5963" y2="110.7821">
					<stop  offset="0" style="stop-color:#105B91"/>
					<stop  offset="1" style="stop-color:#0A3C5F"/>
				</linearGradient>
				<path class="st72" d="M52.2,95.9h13c1.1,0,1.9,0.9,1.9,2v3.4l-5,2.9h-6.8l-5-2.9v-3.4C50.3,96.8,51.1,95.9,52.2,95.9z"/>
				<g>
					<linearGradient id="SVGID_42_" gradientUnits="userSpaceOnUse" x1="58.7176" y1="103.388" x2="58.7346" y2="104.8171">
						<stop  offset="0" style="stop-color:#FDD248"/>
						<stop  offset="1" style="stop-color:#FABD23"/>
					</linearGradient>
					<path class="st73" d="M58,103.1h1.5c0.2,0,0.3,0.2,0.3,0.4v1.5c0,0.2-0.2,0.4-0.3,0.4H58c-0.2,0-0.3-0.2-0.3-0.4v-1.5
						C57.6,103.3,57.8,103.1,58,103.1z"/>
					<path class="st74" d="M58,103.2h1.4c0.2,0,0.3,0.2,0.3,0.3v1.4C59.4,103.8,59,103.6,58,103.2z"/>
				</g>
			</g>
		</g>
		<g>
			<path class="st20" d="M31.2,28.7c0.1-1.1,0.7-1.7,1.6-1.8l2,3.9L31.2,28.7z"/>
			<path class="st14" d="M90.5,46l-2.1,2.7l3.4-0.1C91.5,47.7,91,46.8,90.5,46z"/>
			<path class="st25" d="M92.4,89.7l-3.3-0.8l2.6,4.5C92.2,92.4,92.5,91.1,92.4,89.7z"/>
			<path class="st75" d="M23.5,77.1l1.8-3L22,74.6C22.4,75.5,22.9,76.3,23.5,77.1z"/>
		</g>
	</g>
</g>
</svg>
