<?xml version="1.0" encoding="utf-8"?>
<!-- Generator: Adobe Illustrator 22.0.0, SVG Export Plug-In . SVG Version: 6.00 Build 0)  -->
<svg version="1.1" id="Layer_1" xmlns="http://www.w3.org/2000/svg" xmlns:xlink="http://www.w3.org/1999/xlink" x="0px" y="0px"
	 viewBox="0 0 64 64" style="enable-background:new 0 0 64 64;" xml:space="preserve">
<style type="text/css">
	.st0{fill:url(#SVGID_1_);}
	.st1{fill:#FFFFFF;}
	.st2{fill:#1E2235;}
</style>
<g id="Adaptability_x5F_Button">
	<g>
		<g>
			<linearGradient id="SVGID_1_" gradientUnits="userSpaceOnUse" x1="29.0153" y1="34.5252" x2="51.2671" y2="12.2733">
				<stop  offset="0" style="stop-color:#FFFFFF"/>
				<stop  offset="0.2538" style="stop-color:#FBFBFB"/>
				<stop  offset="0.4927" style="stop-color:#F0F0F1"/>
				<stop  offset="0.7258" style="stop-color:#DDDEDF"/>
				<stop  offset="0.9539" style="stop-color:#C2C4C6"/>
				<stop  offset="1" style="stop-color:#BCBEC0"/>
			</linearGradient>
			<circle class="st0" cx="40.1" cy="23.4" r="15.7"/>
			<path class="st1" d="M55.9,23.4c0,6.5-3.9,12-9.5,14.4c5.3-2.5,9-7.9,9-14.2c0-8.7-7-15.7-15.7-15.7c-2.2,0-4.3,0.5-6.3,1.3
				c2-1,4.3-1.5,6.7-1.5C48.8,7.7,55.9,14.7,55.9,23.4z"/>
		</g>
	</g>
	<g id="Adaptability">
		<path class="st2" d="M42.3,28.1c-0.3,0.2-0.6,0.3-0.9,0.4c0.1-0.2,0.3-0.4,0.4-0.6c0.1-0.1,0-0.3-0.1-0.4c-0.1-0.1-0.3,0-0.3,0.1
			c-0.3,0.5-0.7,0.9-1,1v-1.3c0-0.1-0.1-0.3-0.2-0.3c-0.1,0-0.2,0.1-0.2,0.3v1.3c-0.2-0.1-0.5-0.2-0.7-0.5c-0.1-0.1-0.2-0.1-0.3,0
			c-0.1,0.1-0.1,0.3,0,0.4c0,0,0,0,0,0c-0.1,0-0.1,0-0.2-0.1c-0.1,0-0.3,0-0.3,0.2c0,0.1,0,0.3,0.2,0.3c0.5,0.2,1.1,0.3,1.6,0.3
			c0.8,0,1.7-0.2,2.4-0.7c0.1-0.1,0.2-0.2,0.1-0.4C42.6,28.1,42.4,28,42.3,28.1z"/>
		<path class="st2" d="M43.4,27.6c0,0.1,0.1,0.1,0.2,0.1c0.1,0,0.1,0,0.2-0.1c0.5-0.5,0.9-1.2,1.1-1.9c0.4,0,0.7-0.4,0.8-0.8
			c2.2-0.4,2.5-0.9,2.5-1.2c0-0.5-0.7-1-2.2-1.3c-0.1,0-0.3,0.1-0.3,0.2c0,0.1,0.1,0.3,0.2,0.3c1.6,0.3,1.8,0.7,1.8,0.7
			c0,0.1-0.3,0.4-2.1,0.7c-0.1-0.2-0.2-0.3-0.3-0.4c0-0.1,0-0.2,0-0.4c0-0.9-0.2-1.7-0.5-2.4c0.5-0.7,1-1.3,1.3-1.9
			c0.5-0.8,0.9-1.5,1.1-2.1c0.3-0.7,0.3-1.1,0-1.4c-0.3-0.3-0.9-0.2-1.9,0.4c-0.1-0.1-0.3-0.2-0.5-0.2c-0.5,0-0.8,0.4-0.8,0.9
			c0,0.1,0,0.2,0,0.2c-0.3,0.3-0.7,0.5-1,0.8c-0.1,0.1-0.1,0.3,0,0.4c0,0.1,0.1,0.1,0.2,0.1c0.1,0,0.1,0,0.2-0.1
			c0.3-0.3,0.7-0.6,1-0.8c0.1,0.1,0.3,0.2,0.5,0.2c0.5,0,0.8-0.4,0.8-0.9c0-0.1,0-0.2,0-0.2c0.9-0.6,1.2-0.5,1.3-0.5
			c0,0,0.3,0.4-1.2,2.8c-0.3,0.5-0.8,1.1-1.2,1.7c-0.2-0.3-0.4-0.6-0.6-0.8c0,0,0,0,0-0.1c-0.9-1.1-2.3-1.8-3.7-1.8
			c-1.4,0-2.8,0.7-3.7,1.8c0,0,0,0,0,0c-0.3,0.4-0.6,0.8-0.8,1.2c-0.2-0.2-0.4-0.4-0.5-0.7c0.1-0.1,0.1-0.3,0.1-0.5
			c0-0.5-0.4-0.9-0.8-0.9c-0.1,0-0.2,0-0.2,0c-0.2-0.4-0.2-0.6-0.2-0.6c0.1-0.1,0.6-0.2,2.1,0.6c0.1,0.1,0.3,0,0.3-0.1
			s0-0.3-0.1-0.4c-1.5-0.8-2.3-1-2.7-0.5c-0.2,0.3-0.2,0.7,0.1,1.3c-0.1,0.2-0.2,0.4-0.2,0.6c0,0.5,0.4,0.9,0.8,0.9
			c0.1,0,0.2,0,0.3-0.1c1,1.3,2.6,2.9,4.4,4.4c0.3,0.3,0.6,0.5,0.9,0.8c-1.3,1.4-2.7,2.6-3.8,3.5c-0.1-0.1-0.3-0.2-0.5-0.2
			c-0.5,0-0.8,0.4-0.8,0.9c0,0.1,0,0.2,0,0.2c-1.1,0.7-1.5,0.7-1.6,0.6c0-0.1-0.1-0.4,0.3-1.2c0.3-0.7,0.9-1.7,1.7-2.8
			c0.1-0.1,0.1-0.3,0-0.4c-0.1-0.1-0.3-0.1-0.3,0c-0.8,1.1-1.4,2.1-1.8,2.9c-0.4,0.9-0.5,1.5-0.2,1.8c0.1,0.1,0.3,0.2,0.5,0.2
			c0.4,0,1-0.3,1.7-0.8c0.1,0.1,0.3,0.2,0.5,0.2c0.5,0,0.8-0.4,0.8-0.9c0-0.1,0-0.2,0-0.3c1.2-1,2.5-2.2,3.9-3.7
			c1.2,1,2.4,1.8,3.4,2.4c1,0.6,1.7,0.8,2.2,0.8c0.3,0,0.5-0.1,0.6-0.3c0.3-0.5,0-1.4-1.2-2.9c-0.1-0.1-0.2-0.1-0.3,0
			c-0.1,0.1-0.1,0.3,0,0.4c0.5,0.6,0.8,1.1,1,1.5c0.2,0.4,0.2,0.6,0.2,0.6c0,0-0.2,0.1-0.6,0c-0.4-0.1-1-0.4-1.6-0.7
			c-1-0.5-2.1-1.3-3.3-2.3c0.2-0.3,0.5-0.5,0.7-0.8c1.1-1.2,2.1-2.3,2.9-3.4c0.2,0.5,0.3,1.1,0.4,1.7h-1.2c-0.1,0-0.2,0.1-0.2,0.3
			c0,0.1,0.1,0.3,0.2,0.3h1.1c-0.3,0.1-0.5,0.3-0.6,0.7c-0.5,0.1-1.1,0.1-1.7,0.2c-0.1,0-0.2,0.1-0.2,0.3c0,0.1,0.1,0.2,0.2,0.2
			c0,0,0,0,0,0c0.6,0,1.2-0.1,1.7-0.2c0.1,0.2,0.2,0.3,0.3,0.4c-0.2,0.4-0.4,0.8-0.6,1.2c-0.3-0.1-0.9-0.4-1.3-0.5
			c0-0.1,0-0.2,0.1-0.3c0-0.1-0.1-0.3-0.2-0.3c-0.1,0-0.3,0.1-0.3,0.2c0,0.2-0.1,0.3-0.1,0.5l0,0c0,0,0,0,0,0c0,0,0,0,0,0
			c0,0,0,0,0,0c0,0,0,0,0,0c0,0,0,0,0,0c0,0,0,0,0,0c0,0,0,0,0,0c0,0,0,0,0,0c0,0,0,0,0,0c0,0,0,0,0,0c0,0,0,0,0,0c0,0,0,0,0,0
			c0,0,0,0,0,0c0,0,0,0,0,0c0,0,0,0,0,0c0,0,0,0,0,0c0,0,0,0,0,0c0,0,0,0,0,0c0,0,0,0,0,0c0,0,0,0,0,0c0.3,0.1,1,0.4,1.3,0.5
			c0,0,0,0-0.1,0.1C43.3,27.3,43.3,27.5,43.4,27.6z M44.8,17.3c-0.2,0-0.3-0.2-0.3-0.4c0-0.2,0.1-0.4,0.3-0.4c0.2,0,0.3,0.2,0.3,0.4
			C45.1,17.1,45,17.3,44.8,17.3z M35.7,30.6c-0.2,0-0.3-0.2-0.3-0.4c0-0.2,0.1-0.4,0.3-0.4c0.2,0,0.3,0.2,0.3,0.4
			C36,30.4,35.9,30.6,35.7,30.6z M38,20.3c-0.4-0.1-0.7-0.2-1.1-0.3c0.5-0.5,1.2-0.9,1.9-1.2c-0.2,0.2-0.3,0.4-0.5,0.7
			C38.2,19.7,38.1,20,38,20.3z M39.8,18.7v1.8c-0.5,0-0.9-0.1-1.3-0.1C38.8,19.5,39.3,18.8,39.8,18.7z M40.3,18.7
			c0.5,0.1,1,0.8,1.4,1.7c-0.4,0.1-0.9,0.1-1.4,0.1V18.7z M41.8,19.3c-0.1-0.2-0.3-0.4-0.4-0.5c0.7,0.2,1.3,0.6,1.9,1.2
			c-0.3,0.1-0.7,0.2-1.1,0.3C42.1,19.9,41.9,19.6,41.8,19.3z M34,19.9c0-0.2,0.1-0.4,0.3-0.4c0.2,0,0.3,0.2,0.3,0.4
			s-0.1,0.4-0.3,0.4C34.2,20.3,34,20.1,34,19.9z M40.1,25.4c0.1,0,0.3,0,0.4,0c-0.1,0.1-0.1,0.1-0.2,0.2
			C40.3,25.5,40.2,25.5,40.1,25.4z M41.1,24.8C41.1,24.8,41,24.8,41.1,24.8C41,24.9,41,24.8,41,24.8c-0.5,0-1,0-1.5,0
			c0,0-0.1-0.1-0.1-0.1c-1.3-1.1-2.5-2.2-3.4-3.3c0.2-0.4,0.4-0.8,0.7-1.1c0.4,0.2,0.8,0.3,1.3,0.4c-0.2,0.6-0.3,1.2-0.3,1.9
			c0,0.1,0.1,0.3,0.2,0.3c0,0,0,0,0,0c0.1,0,0.2-0.1,0.2-0.2c0.1-0.7,0.2-1.3,0.3-1.8c0.5,0.1,1,0.1,1.5,0.1v2.4H39
			c-0.1,0-0.2,0.1-0.2,0.3c0,0.1,0.1,0.3,0.2,0.3h0.8v0.3c0,0.1,0.1,0.3,0.2,0.3c0.1,0,0.2-0.1,0.2-0.3v-0.3h0.8
			c0.1,0,0.2-0.1,0.2-0.3c0-0.1-0.1-0.3-0.2-0.3h-0.8V21c0.5,0,1.1-0.1,1.5-0.1c0.1,0.4,0.2,0.9,0.3,1.4c0,0.1,0.1,0.2,0.3,0.2
			c0.1,0,0.2-0.2,0.2-0.3c-0.1-0.5-0.2-1-0.3-1.4c0.5-0.1,0.9-0.3,1.3-0.4c0.2,0.2,0.4,0.5,0.5,0.8C43.2,22.3,42.2,23.5,41.1,24.8z
			 M44.8,24.4c0.2,0,0.3,0.2,0.3,0.4c0,0.2-0.1,0.4-0.3,0.4c-0.2,0-0.3-0.2-0.3-0.4C44.5,24.6,44.6,24.4,44.8,24.4z"/>
		<path class="st2" d="M35.2,25.1c0.3,1.1,0.9,2.1,1.7,2.9c0,0,0.1,0.1,0.2,0.1c0.1,0,0.1,0,0.2-0.1c0.1-0.1,0.1-0.3,0-0.4
			c-0.1-0.1-0.2-0.2-0.3-0.3c0.3-0.1,0.7-0.3,1.1-0.4c0,0.1,0,0.1,0.1,0.2c0,0.1,0.1,0.2,0.2,0.2c0,0,0.1,0,0.1,0
			c0.1-0.1,0.2-0.2,0.1-0.3c0,0,0-0.1,0-0.1c0.1,0,0.1,0,0.2,0c0.1,0,0.2-0.2,0.2-0.3c0-0.1-0.1-0.2-0.3-0.2c-0.1,0-0.2,0-0.3,0
			c0-0.2-0.1-0.4-0.1-0.5c0-0.1-0.2-0.2-0.3-0.2c-0.1,0-0.2,0.2-0.2,0.3c0,0.2,0.1,0.4,0.1,0.5c-0.5,0.1-0.9,0.3-1.3,0.5
			c-0.4-0.5-0.6-1.1-0.8-1.7c0.7,0.1,1.5,0.2,2.4,0.2c0,0,0,0,0,0c0.1,0,0.2-0.1,0.2-0.3c0-0.1-0.1-0.3-0.2-0.3
			c-0.9,0-1.8-0.1-2.5-0.2c0-0.2-0.1-0.4-0.1-0.7h1c0.1,0,0.2-0.1,0.2-0.3c0-0.1-0.1-0.3-0.2-0.3h-1c0-0.3,0-0.5,0.1-0.8
			c0-0.1-0.1-0.3-0.2-0.3c-0.1,0-0.3,0.1-0.3,0.2C35,22.9,35,23.3,35,23.6c0,0.3,0,0.6,0.1,0.9c-0.4-0.1-0.7-0.1-1-0.2
			c-1.4-0.3-1.4-0.7-1.4-0.7c0,0,0.1-0.4,1.8-0.7c0.1,0,0.2-0.2,0.2-0.3c0-0.1-0.2-0.2-0.3-0.2c-1.5,0.3-2.2,0.7-2.2,1.3
			c0,0.5,0.6,0.9,1.8,1.2C34.3,24.9,34.7,25,35.2,25.1z"/>
	</g>
</g>
</svg>
