<?xml version="1.0" encoding="utf-8"?>
<!-- Generator: Adobe Illustrator 22.0.0, SVG Export Plug-In . SVG Version: 6.00 Build 0)  -->
<svg version="1.1" id="Layer_1" xmlns="http://www.w3.org/2000/svg" xmlns:xlink="http://www.w3.org/1999/xlink" x="0px" y="0px"
	 viewBox="0 0 64 64" style="enable-background:new 0 0 64 64;" xml:space="preserve">
<style type="text/css">
	.st0{fill:url(#SVGID_1_);}
	.st1{fill:#FFFFFF;}
	.st2{fill:#1E2235;}
</style>
<g id="Agility_x5F_Button">
	<g>
		<g>
			<linearGradient id="SVGID_1_" gradientUnits="userSpaceOnUse" x1="29.0153" y1="34.5252" x2="51.2671" y2="12.2733">
				<stop  offset="0" style="stop-color:#FFFFFF"/>
				<stop  offset="0.2538" style="stop-color:#FBFBFB"/>
				<stop  offset="0.4927" style="stop-color:#F0F0F1"/>
				<stop  offset="0.7258" style="stop-color:#DDDEDF"/>
				<stop  offset="0.9539" style="stop-color:#C2C4C6"/>
				<stop  offset="1" style="stop-color:#BCBEC0"/>
			</linearGradient>
			<circle class="st0" cx="40.1" cy="23.4" r="15.7"/>
			<path class="st1" d="M55.9,23.4c0,6.5-3.9,12-9.5,14.4c5.3-2.5,9-7.9,9-14.2c0-8.7-7-15.7-15.7-15.7c-2.2,0-4.3,0.5-6.3,1.3
				c2-1,4.3-1.5,6.7-1.5C48.8,7.7,55.9,14.7,55.9,23.4z"/>
		</g>
	</g>
	<g id="Agility">
		<path class="st2" d="M45.8,30.3c0.1-0.1,0.2-0.3,0.2-0.4c0.1-0.3,0.1-0.6,0-0.9l-0.8-2.7c0,0,0-0.1,0-0.1c0.1-0.2,0.2-0.5,0.2-0.8
			c0-0.7-0.6-1.3-1.3-1.3c-0.2,0-0.4,0.1-0.6,0.1c0,0,0,0,0,0l-1.5-0.4l-0.3-1.4c0-0.1-0.2-0.2-0.3-0.2c-0.1,0-0.2,0.2-0.2,0.3
			l0.3,1.6c0,0.1,0.1,0.2,0.2,0.2l1.3,0.3c-0.1,0.1-0.1,0.2-0.2,0.4l-1-0.2c-0.1,0-0.3,0.1-0.3,0.2c0,0.1,0.1,0.3,0.2,0.3l1.1,0.2
			c0,0.3,0.2,0.6,0.3,0.8l-1.1,0.1l-0.7-0.8c0,0,0,0-0.1-0.1c0-0.1-0.1-0.3-0.2-0.4c-0.2-0.1-0.3-0.2-0.6-0.2
			c-0.2,0-0.4,0.1-0.5,0.3l-1,1.2L38,26.3c0.2-0.2,0.3-0.6,0.3-0.9c0-0.7-0.6-1.3-1.3-1.3c-0.7,0-1.3,0.6-1.3,1.3
			c0,0.3,0.1,0.6,0.2,0.8c0,0,0,0.1,0,0.1l-0.8,2.7c-0.1,0.3-0.1,0.6,0,0.9c0.1,0.2,0.1,0.3,0.2,0.4c-0.4,0-0.8,0.4-0.8,0.9
			c0,0.5,0.4,0.9,0.9,0.9h3c0.1,0,0.3-0.1,0.3-0.3s-0.1-0.3-0.3-0.3h-3c-0.2,0-0.3-0.2-0.3-0.4c0-0.2,0.2-0.4,0.3-0.4h2.2
			c0.1,0,0.3-0.1,0.3-0.3c0-0.1-0.1-0.3-0.3-0.3h-1.3c-0.4,0-0.7-0.3-0.8-0.6c-0.1-0.2-0.1-0.4,0-0.6l0.7-2.6
			c0.1,0.1,0.2,0.1,0.3,0.1c0,0,0.1,0,0.1,0l2.4,0.3c0.1,0,0.2,0,0.2-0.1l1-1.3c0,0,0.1-0.1,0.2-0.1c0.1,0,0.1,0,0.2,0.1
			c0.1,0.1,0.1,0.2,0,0.3l-1.4,1.7l-2.3-0.2c-0.1,0-0.3,0.1-0.3,0.2c0,0.1,0.1,0.3,0.2,0.3l2.1,0.2l0.7,3.1c0,0.1,0,0.1,0,0.2
			c0,0.1-0.1,0.1-0.2,0.1c-0.1,0-0.2-0.1-0.2-0.2l-0.6-2.4c0-0.1-0.1-0.1-0.2-0.2c-0.1,0-0.2,0-0.2,0l-0.9,0.6
			c-0.1,0.1-0.2,0.2-0.1,0.4c0.1,0.1,0.2,0.2,0.4,0.1l0.6-0.4l0.6,2.1c0.1,0.3,0.4,0.6,0.7,0.6c0.2,0,0.4-0.1,0.6-0.3
			c0.1-0.2,0.2-0.4,0.1-0.7L39.7,28l0.9-1.1l1,1.1l-0.7,3.1c-0.1,0.2,0,0.5,0.1,0.7c0.1,0.2,0.4,0.3,0.6,0.3c0.3,0,0.6-0.2,0.7-0.6
			l0.6-2.1l0.6,0.4c0.1,0.1,0.3,0,0.4-0.1c0.1-0.1,0-0.3-0.1-0.4l-0.9-0.6c-0.1,0-0.2,0-0.2,0c-0.1,0-0.1,0.1-0.2,0.2l-0.6,2.4
			c0,0.1-0.1,0.2-0.2,0.2c-0.1,0-0.1,0-0.2-0.1c0-0.1-0.1-0.1,0-0.2l0.7-3.1l2.1-0.2c0.1,0,0.2-0.1,0.2-0.3c0-0.1-0.1-0.3-0.3-0.2
			l-2.3,0.2l-0.9-1l0.3-0.3c0,0,0,0,0-0.1l0.6,0.7c0,0.1,0.1,0.1,0.2,0.1c0,0,0,0,0,0l2.4-0.3c0,0,0.1,0,0.1,0
			c0.1,0,0.2-0.1,0.3-0.1l0.7,2.6c0.1,0.2,0,0.4,0,0.6c-0.1,0.3-0.4,0.6-0.8,0.6h-1.3c-0.1,0-0.3,0.1-0.3,0.3c0,0.1,0.1,0.3,0.3,0.3
			h2.2c0.2,0,0.3,0.2,0.3,0.4c0,0.2-0.2,0.4-0.3,0.4h-3c-0.1,0-0.3,0.1-0.3,0.3s0.1,0.3,0.3,0.3h3c0.5,0,0.9-0.4,0.9-0.9
			C46.6,30.7,46.3,30.3,45.8,30.3z M36.3,25.3c0-0.4,0.3-0.8,0.8-0.8c0.4,0,0.8,0.4,0.8,0.8c0,0.4-0.3,0.8-0.8,0.8
			C36.6,26.1,36.3,25.8,36.3,25.3z M44.3,26.1c-0.4,0-0.8-0.4-0.8-0.8c0-0.4,0.3-0.8,0.8-0.8s0.8,0.4,0.8,0.8
			C45,25.8,44.7,26.1,44.3,26.1z"/>
		<path class="st2" d="M41.3,21.7c0.2,0.1,0.4,0.1,0.6,0.1c0.7,0,1.3-0.6,1.3-1.3c0-0.2,0-0.3-0.1-0.5c0,0,0,0,0-0.1v-2.2
			c0-0.1-0.1-0.3-0.3-0.3c-0.1,0-0.3,0.1-0.3,0.3v1.6c-0.2-0.1-0.4-0.2-0.7-0.2c-0.7,0-1.3,0.6-1.3,1.3c0,0.3,0.1,0.7,0.3,0.9l0,0
			c-0.3,0.4-0.5,1-0.5,1.5l0.1,1.6c0,0.1,0.1,0.3,0.3,0.3c0,0,0,0,0,0c0.1,0,0.3-0.1,0.2-0.3L41,22.9C40.9,22.5,41.1,22.1,41.3,21.7
			L41.3,21.7z M41.9,19.7c0.4,0,0.8,0.4,0.8,0.8c0,0.4-0.3,0.8-0.8,0.8s-0.8-0.4-0.8-0.8C41.1,20,41.5,19.7,41.9,19.7z"/>
		<path class="st2" d="M38,21.7c0.1,0.1,0.3,0.1,0.4,0l5.1-5.4c0.1,0,0.1,0.1,0.1,0.2v6.7c0,0.1,0.1,0.3,0.3,0.3
			c0.1,0,0.3-0.1,0.3-0.3v-6.7c0-0.2-0.1-0.4-0.3-0.6l0.2-0.2l0.2,0.3c0,0.1,0.1,0.1,0.2,0.1c0,0,0,0,0,0c0.1,0,0.2-0.1,0.2-0.1
			l0.8-1.6c0-0.1,0-0.2,0-0.3c-0.1-0.1-0.2-0.1-0.3-0.1l-1.6,0.4c-0.1,0-0.2,0.1-0.2,0.2c0,0.1,0,0.2,0,0.3l0.3,0.4l-0.4,0.5
			c-0.3,0-0.6,0.3-0.6,0.6l-4.5,4.7l-1.3-1.3c0-0.1-0.1-0.1-0.2-0.1c-0.1,0-0.1,0-0.2,0.1l-5.8,6.3c-0.1,0.1-0.1,0.3,0,0.4
			c0.1,0.1,0.1,0.1,0.2,0.1c0.1,0,0.1,0,0.2-0.1l5.6-6.1L38,21.7z M44.7,14.7l-0.3,0.7L44,14.9L44.7,14.7z"/>
	</g>
</g>
</svg>
