<?xml version="1.0" encoding="utf-8"?>
<!-- Generator: Adobe Illustrator 22.0.0, SVG Export Plug-In . SVG Version: 6.00 Build 0)  -->
<svg version="1.1" id="Layer_1" xmlns="http://www.w3.org/2000/svg" xmlns:xlink="http://www.w3.org/1999/xlink" x="0px" y="0px"
	 viewBox="0 0 64 64" style="enable-background:new 0 0 64 64;" xml:space="preserve">
<style type="text/css">
	.st0{fill:url(#SVGID_1_);}
	.st1{fill:#FFFFFF;}
	.st2{fill:#1E2235;}
</style>
<g id="Communication_x5F_Button_1_">
	<g>
		<g>
			<linearGradient id="SVGID_1_" gradientUnits="userSpaceOnUse" x1="29.0153" y1="34.5252" x2="51.2671" y2="12.2733">
				<stop  offset="0" style="stop-color:#FFFFFF"/>
				<stop  offset="0.2538" style="stop-color:#FBFBFB"/>
				<stop  offset="0.4927" style="stop-color:#F0F0F1"/>
				<stop  offset="0.7258" style="stop-color:#DDDEDF"/>
				<stop  offset="0.9539" style="stop-color:#C2C4C6"/>
				<stop  offset="1" style="stop-color:#BCBEC0"/>
			</linearGradient>
			<circle class="st0" cx="40.1" cy="23.4" r="15.7"/>
			<path class="st1" d="M55.9,23.4c0,6.5-3.9,12-9.5,14.4c5.3-2.5,9-7.9,9-14.2c0-8.7-7-15.7-15.7-15.7c-2.2,0-4.3,0.5-6.3,1.3
				c2-1,4.3-1.5,6.7-1.5C48.8,7.7,55.9,14.7,55.9,23.4z"/>
		</g>
	</g>
	<g id="Communication_1_">
		<path class="st2" d="M43.9,31.2c-0.9,0-1.6-0.7-1.6-1.5c0-0.9,0.7-1.5,1.6-1.5c0.9,0,1.6,0.7,1.6,1.5
			C45.5,30.5,44.8,31.2,43.9,31.2z M43.9,28.6c-0.6,0-1.1,0.5-1.1,1c0,0.6,0.5,1,1.1,1c0.6,0,1.1-0.5,1.1-1
			C45,29.1,44.5,28.6,43.9,28.6z"/>
		<path class="st2" d="M46,28.9c-0.1,0-0.1,0-0.1,0c-0.1-0.1-0.1-0.2-0.1-0.3l1.2-1.7c0.1-0.1,0.1-0.2,0-0.3L45.9,25
			c-0.1-0.1-0.2-0.1-0.3-0.2c-0.1,0-0.2,0-0.3,0.1c-0.1,0.1-0.1,0.3-0.1,0.4l0.8,1.2c0.1,0.1,0,0.2,0,0.3l-0.7,1
			C45.2,28,45.1,28,45,28c-0.7-0.2-1.5-0.2-2.2,0c-0.1,0-0.2,0-0.3-0.1l-0.7-1c-0.1-0.1-0.1-0.2,0-0.3l0.8-1.2
			c0.1-0.1,0.1-0.3-0.1-0.4c-0.1-0.1-0.2-0.1-0.3-0.1c-0.1,0-0.2,0.1-0.3,0.2l-1.1,1.5c-0.1,0.1-0.1,0.2,0,0.3l1.2,1.6
			c0.1,0.1,0.1,0.3-0.1,0.3c-0.1,0.1-0.3,0-0.4-0.1l-1.2-1.7c-0.2-0.3-0.2-0.6,0-0.9l1.1-1.5c0.2-0.2,0.4-0.3,0.7-0.4
			c0.3,0,0.5,0.1,0.7,0.2c0.3,0.3,0.4,0.7,0.1,1l-0.7,1.1l0.5,0.7c0.7-0.2,1.4-0.2,2.1,0l0.5-0.7l-0.7-1.1c-0.2-0.3-0.2-0.8,0.1-1
			c0.2-0.2,0.5-0.3,0.7-0.2c0.3,0,0.5,0.2,0.7,0.4l1.1,1.5c0.2,0.3,0.2,0.6,0,0.9l-1.2,1.7C46.2,28.8,46.1,28.9,46,28.9z"/>
		<path class="st2" d="M35.3,31.2c-0.9,0-1.6-0.7-1.6-1.5c0-0.9,0.7-1.5,1.6-1.5c0.9,0,1.6,0.7,1.6,1.5
			C36.9,30.5,36.2,31.2,35.3,31.2z M35.3,28.6c-0.6,0-1.1,0.5-1.1,1c0,0.6,0.5,1,1.1,1c0.6,0,1.1-0.5,1.1-1
			C36.4,29.1,35.9,28.6,35.3,28.6z"/>
		<path class="st2" d="M37.4,28.9c-0.1,0-0.1,0-0.1,0c-0.1-0.1-0.1-0.2-0.1-0.3l1.2-1.7c0.1-0.1,0.1-0.2,0-0.3L37.3,25
			c-0.1-0.1-0.2-0.1-0.3-0.2c-0.1,0-0.2,0-0.3,0.1c-0.1,0.1-0.1,0.3-0.1,0.4l0.8,1.2c0.1,0.1,0,0.2,0,0.3l-0.7,1
			C36.6,28,36.5,28,36.3,28c-0.7-0.2-1.5-0.2-2.2,0c-0.1,0-0.2,0-0.3-0.1l-0.7-1c-0.1-0.1-0.1-0.2,0-0.3l0.8-1.2
			c0.1-0.1,0.1-0.3-0.1-0.4c-0.1-0.1-0.2-0.1-0.3-0.1c-0.1,0-0.2,0.1-0.3,0.2l-1.1,1.5c-0.1,0.1-0.1,0.2,0,0.3l1.2,1.6
			c0.1,0.1,0.1,0.3-0.1,0.3c-0.1,0.1-0.3,0-0.4-0.1l-1.2-1.7c-0.2-0.3-0.2-0.6,0-0.9l1.1-1.5c0.2-0.2,0.4-0.3,0.7-0.4
			c0.3,0,0.5,0.1,0.7,0.2c0.3,0.3,0.4,0.7,0.1,1l-0.7,1.1l0.5,0.7c0.7-0.2,1.4-0.2,2.1,0l0.5-0.7l-0.7-1.1c-0.2-0.3-0.2-0.8,0.1-1
			c0.2-0.2,0.4-0.3,0.7-0.2c0.3,0,0.5,0.2,0.7,0.4l1.1,1.5c0.2,0.3,0.2,0.6,0,0.9l-1.2,1.7C37.5,28.8,37.5,28.9,37.4,28.9z"/>
		<path class="st2" d="M39.6,18.3c-0.9,0-1.6-0.7-1.6-1.5s0.7-1.5,1.6-1.5c0.9,0,1.6,0.7,1.6,1.5S40.5,18.3,39.6,18.3z M39.6,15.7
			c-0.6,0-1.1,0.5-1.1,1s0.5,1,1.1,1c0.6,0,1.1-0.5,1.1-1S40.2,15.7,39.6,15.7z"/>
		<path class="st2" d="M37.9,22C37.9,22,37.8,22,37.9,22c-0.3,0-0.6-0.2-0.7-0.4l-1.1-1.5c-0.2-0.3-0.2-0.6,0-0.9l1.1-1.5
			c0.1-0.1,0.2-0.1,0.4-0.1c0.1,0.1,0.1,0.2,0.1,0.3l-1.1,1.5c-0.1,0.1-0.1,0.2,0,0.3l1.1,1.5c0.1,0.1,0.2,0.1,0.3,0.2
			c0.1,0,0.2,0,0.3-0.1c0.1-0.1,0.1-0.3,0.1-0.4l-0.8-1.2c-0.1-0.1,0-0.2,0-0.3l0.7-1c0.1-0.1,0.2-0.1,0.3-0.1
			c0.7,0.2,1.5,0.2,2.2,0c0.1,0,0.2,0,0.3,0.1l0.7,1c0.1,0.1,0.1,0.2,0,0.3L40.9,21c-0.1,0.1-0.1,0.3,0.1,0.4
			c0.1,0.1,0.2,0.1,0.3,0.1c0.1,0,0.2-0.1,0.3-0.2l1.1-1.5c0.1-0.1,0.1-0.2,0-0.3l-1.1-1.5c-0.1-0.1-0.1-0.3,0.1-0.3
			c0.1-0.1,0.3,0,0.4,0.1l1.1,1.5c0.2,0.3,0.2,0.6,0,0.9L42,21.7c-0.2,0.2-0.4,0.3-0.7,0.4c-0.3,0-0.5-0.1-0.7-0.2
			c-0.3-0.3-0.4-0.7-0.1-1l0.7-1.1l-0.5-0.7c-0.7,0.2-1.4,0.2-2.1,0L38,19.7l0.7,1.1c0.2,0.3,0.2,0.8-0.1,1
			C38.3,21.9,38.1,22,37.9,22z"/>
		<path class="st2" d="M33.9,24.1c-0.1,0-0.3-0.1-0.3-0.2v-4.3c0-0.1,0.1-0.2,0.3-0.2h2.3c0.1,0,0.3,0.1,0.3,0.2
			c0,0.1-0.1,0.2-0.3,0.2h-2v4.1C34.1,24,34,24.1,33.9,24.1z"/>
		<path class="st2" d="M45.3,24.1c-0.1,0-0.3-0.1-0.3-0.2v-4.1h-2c-0.1,0-0.3-0.1-0.3-0.2c0-0.1,0.1-0.2,0.3-0.2h2.3
			c0.1,0,0.3,0.1,0.3,0.2v4.3C45.5,24,45.4,24.1,45.3,24.1z"/>
		<path class="st2" d="M40.6,21.4h-2.1c-0.1,0-0.3-0.1-0.3-0.2c0-0.1,0.1-0.2,0.3-0.2h2.1c0.1,0,0.3,0.1,0.3,0.2
			C40.9,21.3,40.8,21.4,40.6,21.4z"/>
		<path class="st2" d="M41.1,23.9h-3c-0.1,0-0.3-0.1-0.3-0.2v-1.9c0-0.1,0.1-0.2,0.3-0.2c0.1,0,0.3,0.1,0.3,0.2v1.7h2.5v-1.7
			c0-0.1,0.1-0.2,0.3-0.2c0.1,0,0.3,0.1,0.3,0.2v1.9C41.4,23.8,41.2,23.9,41.1,23.9z"/>
		<path class="st2" d="M40.9,27.7h-2.7c-0.1,0-0.3-0.1-0.3-0.2c0-0.1,0.1-0.2,0.3-0.2h2.7c0.1,0,0.3,0.1,0.3,0.2
			C41.2,27.6,41.1,27.7,40.9,27.7z"/>
	</g>
</g>
</svg>
