<?xml version="1.0" encoding="utf-8"?>
<!-- Generator: Adobe Illustrator 22.0.0, SVG Export Plug-In . SVG Version: 6.00 Build 0)  -->
<svg version="1.1" id="Layer_1" xmlns="http://www.w3.org/2000/svg" xmlns:xlink="http://www.w3.org/1999/xlink" x="0px" y="0px"
	 viewBox="0 0 64 64" style="enable-background:new 0 0 64 64;" xml:space="preserve">
<style type="text/css">
	.st0{opacity:0;fill:#FFFFFF;}
	.st1{opacity:6.622517e-03;fill:#FEFEFE;}
	.st2{opacity:1.324503e-02;fill:#FEFEFE;}
	.st3{opacity:1.986755e-02;fill:#FDFDFD;}
	.st4{opacity:2.649007e-02;fill:#FDFDFD;}
	.st5{opacity:3.311258e-02;fill:#FCFCFC;}
	.st6{opacity:3.973510e-02;fill:#FCFCFC;}
	.st7{opacity:4.635762e-02;fill:#FBFBFB;}
	.st8{opacity:5.298013e-02;fill:#FAFAFB;}
	.st9{opacity:5.960265e-02;fill:#FAFAFA;}
	.st10{opacity:6.622516e-02;fill:#F9F9FA;}
	.st11{opacity:7.284768e-02;fill:#F9F9F9;}
	.st12{opacity:7.947020e-02;fill:#F8F8F8;}
	.st13{opacity:8.609272e-02;fill:#F7F8F8;}
	.st14{opacity:9.271523e-02;fill:#F7F7F7;}
	.st15{opacity:9.933775e-02;fill:#F6F6F7;}
	.st16{opacity:0.106;fill:#F6F6F6;}
	.st17{opacity:0.1126;fill:#F5F5F6;}
	.st18{opacity:0.1192;fill:#F5F5F5;}
	.st19{opacity:0.1258;fill:#F4F4F5;}
	.st20{opacity:0.1325;fill:#F3F4F4;}
	.st21{opacity:0.1391;fill:#F3F3F3;}
	.st22{opacity:0.1457;fill:#F2F2F3;}
	.st23{opacity:0.1523;fill:#F2F2F2;}
	.st24{opacity:0.1589;fill:#F1F1F2;}
	.st25{opacity:0.1656;fill:#F0F1F1;}
	.st26{opacity:0.1722;fill:#F0F0F1;}
	.st27{opacity:0.1788;fill:#EFF0F0;}
	.st28{opacity:0.1854;fill:#EFEFF0;}
	.st29{opacity:0.1921;fill:#EEEEEF;}
	.st30{opacity:0.1987;fill:#EEEEEF;}
	.st31{opacity:0.2053;fill:#EDEDEE;}
	.st32{opacity:0.2119;fill:#ECEDED;}
	.st33{opacity:0.2185;fill:#ECECED;}
	.st34{opacity:0.2252;fill:#EBECEC;}
	.st35{opacity:0.2318;fill:#EBEBEC;}
	.st36{opacity:0.2384;fill:#EAEAEB;}
	.st37{opacity:0.245;fill:#E9EAEB;}
	.st38{opacity:0.2517;fill:#E9E9EA;}
	.st39{opacity:0.2583;fill:#E8E9EA;}
	.st40{opacity:0.2649;fill:#E8E8E9;}
	.st41{opacity:0.2715;fill:#E7E8E8;}
	.st42{opacity:0.2781;fill:#E7E7E8;}
	.st43{opacity:0.2848;fill:#E6E7E7;}
	.st44{opacity:0.2914;fill:#E5E6E7;}
	.st45{opacity:0.298;fill:#E5E5E6;}
	.st46{opacity:0.3046;fill:#E4E5E6;}
	.st47{opacity:0.3113;fill:#E4E4E5;}
	.st48{opacity:0.3179;fill:#E3E4E5;}
	.st49{opacity:0.3245;fill:#E2E3E4;}
	.st50{opacity:0.3311;fill:#E2E3E4;}
	.st51{opacity:0.3377;fill:#E1E2E3;}
	.st52{opacity:0.3444;fill:#E1E1E2;}
	.st53{opacity:0.351;fill:#E0E1E2;}
	.st54{opacity:0.3576;fill:#E0E0E1;}
	.st55{opacity:0.3642;fill:#DFE0E1;}
	.st56{opacity:0.3709;fill:#DEDFE0;}
	.st57{opacity:0.3775;fill:#DEDFE0;}
	.st58{opacity:0.3841;fill:#DDDEDF;}
	.st59{opacity:0.3907;fill:#DDDDDF;}
	.st60{opacity:0.3974;fill:#DCDDDE;}
	.st61{opacity:0.404;fill:#DBDCDD;}
	.st62{opacity:0.4106;fill:#DBDCDD;}
	.st63{opacity:0.4172;fill:#DADBDC;}
	.st64{opacity:0.4238;fill:#DADBDC;}
	.st65{opacity:0.4305;fill:#D9DADB;}
	.st66{opacity:0.4371;fill:#D9D9DB;}
	.st67{opacity:0.4437;fill:#D8D9DA;}
	.st68{opacity:0.4503;fill:#D7D8DA;}
	.st69{opacity:0.457;fill:#D7D8D9;}
	.st70{opacity:0.4636;fill:#D6D7D9;}
	.st71{opacity:0.4702;fill:#D6D7D8;}
	.st72{opacity:0.4768;fill:#D5D6D7;}
	.st73{opacity:0.4834;fill:#D4D5D7;}
	.st74{opacity:0.4901;fill:#D4D5D6;}
	.st75{opacity:0.4967;fill:#D3D4D6;}
	.st76{opacity:0.5033;fill:#D3D4D5;}
	.st77{opacity:0.5099;fill:#D2D3D5;}
	.st78{opacity:0.5166;fill:#D2D3D4;}
	.st79{opacity:0.5232;fill:#D1D2D4;}
	.st80{opacity:0.5298;fill:#D0D1D3;}
	.st81{opacity:0.5364;fill:#D0D1D2;}
	.st82{opacity:0.543;fill:#CFD0D2;}
	.st83{opacity:0.5497;fill:#CFD0D1;}
	.st84{opacity:0.5563;fill:#CECFD1;}
	.st85{opacity:0.5629;fill:#CDCFD0;}
	.st86{opacity:0.5695;fill:#CDCED0;}
	.st87{opacity:0.5762;fill:#CCCDCF;}
	.st88{opacity:0.5828;fill:#CCCDCF;}
	.st89{opacity:0.5894;fill:#CBCCCE;}
	.st90{opacity:0.596;fill:#CBCCCE;}
	.st91{opacity:0.6026;fill:#CACBCD;}
	.st92{opacity:0.6093;fill:#C9CBCC;}
	.st93{opacity:0.6159;fill:#C9CACC;}
	.st94{opacity:0.6225;fill:#C8C9CB;}
	.st95{opacity:0.6291;fill:#C8C9CB;}
	.st96{opacity:0.6358;fill:#C7C8CA;}
	.st97{opacity:0.6424;fill:#C6C8CA;}
	.st98{opacity:0.649;fill:#C6C7C9;}
	.st99{opacity:0.6556;fill:#C5C7C9;}
	.st100{opacity:0.6623;fill:#C5C6C8;}
	.st101{opacity:0.6689;fill:#C4C5C7;}
	.st102{opacity:0.6755;fill:#C4C5C7;}
	.st103{opacity:0.6821;fill:#C3C4C6;}
	.st104{opacity:0.6887;fill:#C2C4C6;}
	.st105{opacity:0.6954;fill:#C2C3C5;}
	.st106{opacity:0.702;fill:#C1C3C5;}
	.st107{opacity:0.7086;fill:#C1C2C4;}
	.st108{opacity:0.7152;fill:#C0C1C4;}
	.st109{opacity:0.7219;fill:#BFC1C3;}
	.st110{opacity:0.7285;fill:#BFC0C3;}
	.st111{opacity:0.7351;fill:#BEC0C2;}
	.st112{opacity:0.7417;fill:#BEBFC1;}
	.st113{opacity:0.7483;fill:#BDBFC1;}
	.st114{opacity:0.755;fill:#BDBEC0;}
	.st115{opacity:0.7616;fill:#BCBEC0;}
	.st116{opacity:0.7682;fill:#BBBDBF;}
	.st117{opacity:0.7748;fill:#BBBCBF;}
	.st118{opacity:0.7815;fill:#BABCBE;}
	.st119{opacity:0.7881;fill:#BABBBE;}
	.st120{opacity:0.7947;fill:#B9BBBD;}
	.st121{opacity:0.8013;fill:#B8BABC;}
	.st122{opacity:0.8079;fill:#B8BABC;}
	.st123{opacity:0.8146;fill:#B7B9BB;}
	.st124{opacity:0.8212;fill:#B7B8BB;}
	.st125{opacity:0.8278;fill:#B6B8BA;}
	.st126{opacity:0.8344;fill:#B6B7BA;}
	.st127{opacity:0.8411;fill:#B5B7B9;}
	.st128{opacity:0.8477;fill:#B4B6B9;}
	.st129{opacity:0.8543;fill:#B4B6B8;}
	.st130{opacity:0.8609;fill:#B3B5B8;}
	.st131{opacity:0.8675;fill:#B3B4B7;}
	.st132{opacity:0.8742;fill:#B2B4B6;}
	.st133{opacity:0.8808;fill:#B1B3B6;}
	.st134{opacity:0.8874;fill:#B1B3B5;}
	.st135{opacity:0.894;fill:#B0B2B5;}
	.st136{opacity:0.9007;fill:#B0B2B4;}
	.st137{opacity:0.9073;fill:#AFB1B4;}
	.st138{opacity:0.9139;fill:#AFB0B3;}
	.st139{opacity:0.9205;fill:#AEB0B3;}
	.st140{opacity:0.9272;fill:#ADAFB2;}
	.st141{opacity:0.9338;fill:#ADAFB1;}
	.st142{opacity:0.9404;fill:#ACAEB1;}
	.st143{opacity:0.947;fill:#ACAEB0;}
	.st144{opacity:0.9536;fill:#ABADB0;}
	.st145{opacity:0.9603;fill:#AAACAF;}
	.st146{opacity:0.9669;fill:#AAACAF;}
	.st147{opacity:0.9735;fill:#A9ABAE;}
	.st148{opacity:0.9801;fill:#A9ABAE;}
	.st149{opacity:0.9868;fill:#A8AAAD;}
	.st150{opacity:0.9934;fill:#A8AAAD;}
	.st151{fill:#A7A9AC;}
	.st152{fill:url(#SVGID_1_);}
	.st153{fill:#FFFFFF;}
	.st154{fill:#1E2235;}
</style>
<g id="Culture_x5F_Button_1_">
	<g>
		<path class="st0" d="M12.5,28.8c-2.8,2.8-4.6,6.8-4.6,11.1c0,8.7,7,15.7,15.7,15.7c4.3,0,8.2-1.7,11.1-4.6L12.5,28.8z"/>
		<path class="st1" d="M12.6,28.7C9.7,31.6,8,35.5,8,39.8c0,8.7,7,15.7,15.7,15.7c4.3,0,8.2-1.7,11.1-4.6L12.6,28.7z"/>
		<path class="st2" d="M12.7,28.6c-2.8,2.8-4.6,6.8-4.6,11.1c0,8.7,7,15.7,15.7,15.7c4.3,0,8.2-1.7,11.1-4.6L12.7,28.6z"/>
		<path class="st3" d="M12.8,28.5c-2.8,2.8-4.6,6.8-4.6,11.1c0,8.7,7,15.7,15.7,15.7c4.3,0,8.2-1.7,11.1-4.6L12.8,28.5z"/>
		<path class="st4" d="M12.9,28.4c-2.8,2.8-4.6,6.8-4.6,11.1c0,8.7,7,15.7,15.7,15.7c4.3,0,8.2-1.7,11.1-4.6L12.9,28.4z"/>
		<path class="st5" d="M13,28.3c-2.8,2.8-4.6,6.8-4.6,11.1c0,8.7,7,15.7,15.7,15.7c4.3,0,8.2-1.7,11.1-4.6L13,28.3z"/>
		<path class="st6" d="M13.1,28.2c-2.8,2.8-4.6,6.8-4.6,11.1c0,8.7,7,15.7,15.7,15.7c4.3,0,8.2-1.7,11.1-4.6L13.1,28.2z"/>
		<path class="st7" d="M13.2,28.1c-2.8,2.8-4.6,6.8-4.6,11.1c0,8.7,7,15.7,15.7,15.7c4.3,0,8.2-1.7,11.1-4.6L13.2,28.1z"/>
		<path class="st8" d="M13.3,28c-2.8,2.8-4.6,6.8-4.6,11.1c0,8.7,7,15.7,15.7,15.7c4.3,0,8.2-1.7,11.1-4.6L13.3,28z"/>
		<path class="st9" d="M13.4,27.9c-2.8,2.8-4.6,6.8-4.6,11.1c0,8.7,7,15.7,15.7,15.7c4.3,0,8.2-1.7,11.1-4.6L13.4,27.9z"/>
		<path class="st10" d="M13.5,27.7C10.7,30.6,9,34.5,9,38.8c0,8.7,7,15.7,15.7,15.7c4.3,0,8.2-1.7,11.1-4.6L13.5,27.7z"/>
		<path class="st11" d="M13.7,27.6c-2.8,2.8-4.6,6.8-4.6,11.1c0,8.7,7,15.7,15.7,15.7c4.3,0,8.2-1.7,11.1-4.6L13.7,27.6z"/>
		<path class="st12" d="M13.8,27.5c-2.8,2.8-4.6,6.8-4.6,11.1c0,8.7,7,15.7,15.7,15.7c4.3,0,8.2-1.7,11.1-4.6L13.8,27.5z"/>
		<path class="st13" d="M13.9,27.4c-2.8,2.8-4.6,6.8-4.6,11.1c0,8.7,7,15.7,15.7,15.7c4.3,0,8.2-1.7,11.1-4.6L13.9,27.4z"/>
		<path class="st14" d="M14,27.3c-2.8,2.8-4.6,6.8-4.6,11.1c0,8.7,7,15.7,15.7,15.7c4.3,0,8.2-1.7,11.1-4.6L14,27.3z"/>
		<path class="st15" d="M14.1,27.2C11.3,30,9.5,34,9.5,38.3c0,8.7,7,15.7,15.7,15.7c4.3,0,8.2-1.7,11.1-4.6L14.1,27.2z"/>
		<path class="st16" d="M14.2,27.1c-2.8,2.8-4.6,6.8-4.6,11.1c0,8.7,7,15.7,15.7,15.7c4.3,0,8.2-1.7,11.1-4.6L14.2,27.1z"/>
		<path class="st17" d="M14.3,27c-2.8,2.8-4.6,6.8-4.6,11.1c0,8.7,7,15.7,15.7,15.7c4.3,0,8.2-1.7,11.1-4.6L14.3,27z"/>
		<path class="st18" d="M14.4,26.9c-2.8,2.8-4.6,6.8-4.6,11.1c0,8.7,7,15.7,15.7,15.7c4.3,0,8.2-1.7,11.1-4.6L14.4,26.9z"/>
		<path class="st19" d="M14.5,26.8c-2.8,2.8-4.6,6.8-4.6,11.1c0,8.7,7,15.7,15.7,15.7c4.3,0,8.2-1.7,11.1-4.6L14.5,26.8z"/>
		<path class="st20" d="M14.6,26.6c-2.8,2.8-4.6,6.8-4.6,11.1c0,8.7,7,15.7,15.7,15.7c4.3,0,8.2-1.7,11.1-4.6L14.6,26.6z"/>
		<path class="st21" d="M14.7,26.5c-2.8,2.8-4.6,6.8-4.6,11.1c0,8.7,7,15.7,15.7,15.7c4.3,0,8.2-1.7,11.1-4.6L14.7,26.5z"/>
		<path class="st22" d="M14.9,26.4c-2.8,2.8-4.6,6.8-4.6,11.1c0,8.7,7,15.7,15.7,15.7c4.3,0,8.2-1.7,11.1-4.6L14.9,26.4z"/>
		<path class="st23" d="M15,26.3c-2.8,2.8-4.6,6.8-4.6,11.1c0,8.7,7,15.7,15.7,15.7c4.3,0,8.2-1.7,11.1-4.6L15,26.3z"/>
		<path class="st24" d="M15.1,26.2c-2.8,2.8-4.6,6.8-4.6,11.1c0,8.7,7,15.7,15.7,15.7c4.3,0,8.2-1.7,11.1-4.6L15.1,26.2z"/>
		<path class="st25" d="M15.2,26.1c-2.8,2.8-4.6,6.8-4.6,11.1c0,8.7,7,15.7,15.7,15.7c4.3,0,8.2-1.7,11.1-4.6L15.2,26.1z"/>
		<path class="st26" d="M15.3,26c-2.8,2.8-4.6,6.8-4.6,11.1c0,8.7,7,15.7,15.7,15.7c4.3,0,8.2-1.7,11.1-4.6L15.3,26z"/>
		<path class="st27" d="M15.4,25.9c-2.8,2.8-4.6,6.8-4.6,11.1c0,8.7,7,15.7,15.7,15.7c4.3,0,8.2-1.7,11.1-4.6L15.4,25.9z"/>
		<path class="st28" d="M15.5,25.8c-2.8,2.8-4.6,6.8-4.6,11.1c0,8.7,7,15.7,15.7,15.7c4.3,0,8.2-1.7,11.1-4.6L15.5,25.8z"/>
		<path class="st29" d="M15.6,25.7c-2.8,2.8-4.6,6.8-4.6,11.1c0,8.7,7,15.7,15.7,15.7c4.3,0,8.2-1.7,11.1-4.6L15.6,25.7z"/>
		<path class="st30" d="M15.7,25.6c-2.8,2.8-4.6,6.8-4.6,11.1c0,8.7,7,15.7,15.7,15.7c4.3,0,8.2-1.7,11.1-4.6L15.7,25.6z"/>
		<path class="st31" d="M15.8,25.4c-2.8,2.8-4.6,6.8-4.6,11.1c0,8.7,7,15.7,15.7,15.7c4.3,0,8.2-1.7,11.1-4.6L15.8,25.4z"/>
		<path class="st32" d="M16,25.3c-2.8,2.8-4.6,6.8-4.6,11.1c0,8.7,7,15.7,15.7,15.7c4.3,0,8.2-1.7,11.1-4.6L16,25.3z"/>
		<path class="st33" d="M16.1,25.2c-2.8,2.8-4.6,6.8-4.6,11.1c0,8.7,7,15.7,15.7,15.7c4.3,0,8.2-1.7,11.1-4.6L16.1,25.2z"/>
		<path class="st34" d="M16.2,25.1c-2.8,2.8-4.6,6.8-4.6,11.1c0,8.7,7,15.7,15.7,15.7c4.3,0,8.2-1.7,11.1-4.6L16.2,25.1z"/>
		<path class="st35" d="M16.3,25c-2.8,2.8-4.6,6.8-4.6,11.1c0,8.7,7,15.7,15.7,15.7c4.3,0,8.2-1.7,11.1-4.6L16.3,25z"/>
		<path class="st36" d="M16.4,24.9c-2.8,2.8-4.6,6.8-4.6,11.1c0,8.7,7,15.7,15.7,15.7c4.3,0,8.2-1.7,11.1-4.6L16.4,24.9z"/>
		<path class="st37" d="M16.5,24.8c-2.8,2.8-4.6,6.8-4.6,11.1c0,8.7,7,15.7,15.7,15.7c4.3,0,8.2-1.7,11.1-4.6L16.5,24.8z"/>
		<path class="st38" d="M16.6,24.7c-2.8,2.8-4.6,6.8-4.6,11.1c0,8.7,7,15.7,15.7,15.7c4.3,0,8.2-1.7,11.1-4.6L16.6,24.7z"/>
		<path class="st39" d="M16.7,24.6c-2.8,2.8-4.6,6.8-4.6,11.1c0,8.7,7,15.7,15.7,15.7c4.3,0,8.2-1.7,11.1-4.6L16.7,24.6z"/>
		<path class="st40" d="M16.8,24.5c-2.8,2.8-4.6,6.8-4.6,11.1c0,8.7,7,15.7,15.7,15.7c4.3,0,8.2-1.7,11.1-4.6L16.8,24.5z"/>
		<path class="st41" d="M16.9,24.3c-2.8,2.8-4.6,6.8-4.6,11.1c0,8.7,7,15.7,15.7,15.7c4.3,0,8.2-1.7,11.1-4.6L16.9,24.3z"/>
		<path class="st42" d="M17,24.2c-2.8,2.8-4.6,6.8-4.6,11.1c0,8.7,7,15.7,15.7,15.7c4.3,0,8.2-1.7,11.1-4.6L17,24.2z"/>
		<path class="st43" d="M17.2,24.1c-2.8,2.8-4.6,6.8-4.6,11.1c0,8.7,7,15.7,15.7,15.7c4.3,0,8.2-1.7,11.1-4.6L17.2,24.1z"/>
		<path class="st44" d="M17.3,24c-2.8,2.8-4.6,6.8-4.6,11.1c0,8.7,7,15.7,15.7,15.7c4.3,0,8.2-1.7,11.1-4.6L17.3,24z"/>
		<path class="st45" d="M17.4,23.9c-2.8,2.8-4.6,6.8-4.6,11.1c0,8.7,7,15.7,15.7,15.7c4.3,0,8.2-1.7,11.1-4.6L17.4,23.9z"/>
		<path class="st46" d="M17.5,23.8c-2.8,2.8-4.6,6.8-4.6,11.1c0,8.7,7,15.7,15.7,15.7c4.3,0,8.2-1.7,11.1-4.6L17.5,23.8z"/>
		<path class="st47" d="M17.6,23.7c-2.8,2.8-4.6,6.8-4.6,11.1c0,8.7,7,15.7,15.7,15.7c4.3,0,8.2-1.7,11.1-4.6L17.6,23.7z"/>
		<path class="st48" d="M17.7,23.6c-2.8,2.8-4.6,6.8-4.6,11.1c0,8.7,7,15.7,15.7,15.7c4.3,0,8.2-1.7,11.1-4.6L17.7,23.6z"/>
		<path class="st49" d="M17.8,23.5c-2.8,2.8-4.6,6.8-4.6,11.1c0,8.7,7,15.7,15.7,15.7c4.3,0,8.2-1.7,11.1-4.6L17.8,23.5z"/>
		<path class="st50" d="M17.9,23.4c-2.8,2.8-4.6,6.8-4.6,11.1c0,8.7,7,15.7,15.7,15.7c4.3,0,8.2-1.7,11.1-4.6L17.9,23.4z"/>
		<path class="st51" d="M18,23.3c-2.8,2.8-4.6,6.8-4.6,11.1c0,8.7,7,15.7,15.7,15.7c4.3,0,8.2-1.7,11.1-4.6L18,23.3z"/>
		<path class="st52" d="M18.1,23.1c-2.8,2.8-4.6,6.8-4.6,11.1c0,8.7,7,15.7,15.7,15.7c4.3,0,8.2-1.7,11.1-4.6L18.1,23.1z"/>
		<path class="st53" d="M18.3,23c-2.8,2.8-4.6,6.8-4.6,11.1c0,8.7,7,15.7,15.7,15.7c4.3,0,8.2-1.7,11.1-4.6L18.3,23z"/>
		<path class="st54" d="M18.4,22.9c-2.8,2.8-4.6,6.8-4.6,11.1c0,8.7,7,15.7,15.7,15.7c4.3,0,8.2-1.7,11.1-4.6L18.4,22.9z"/>
		<path class="st55" d="M18.5,22.8c-2.8,2.8-4.6,6.8-4.6,11.1c0,8.7,7,15.7,15.7,15.7c4.3,0,8.2-1.7,11.1-4.6L18.5,22.8z"/>
		<path class="st56" d="M18.6,22.7c-2.8,2.8-4.6,6.8-4.6,11.1c0,8.7,7,15.7,15.7,15.7c4.3,0,8.2-1.7,11.1-4.6L18.6,22.7z"/>
		<path class="st57" d="M18.7,22.6c-2.8,2.8-4.6,6.8-4.6,11.1c0,8.7,7,15.7,15.7,15.7c4.3,0,8.2-1.7,11.1-4.6L18.7,22.6z"/>
		<path class="st58" d="M18.8,22.5c-2.8,2.8-4.6,6.8-4.6,11.1c0,8.7,7,15.7,15.7,15.7c4.3,0,8.2-1.7,11.1-4.6L18.8,22.5z"/>
		<path class="st59" d="M18.9,22.4c-2.8,2.8-4.6,6.8-4.6,11.1c0,8.7,7,15.7,15.7,15.7c4.3,0,8.2-1.7,11.1-4.6L18.9,22.4z"/>
		<path class="st60" d="M19,22.3c-2.8,2.8-4.6,6.8-4.6,11.1c0,8.7,7,15.7,15.7,15.7c4.3,0,8.2-1.7,11.1-4.6L19,22.3z"/>
		<path class="st61" d="M19.1,22.2c-2.8,2.8-4.6,6.8-4.6,11.1c0,8.7,7,15.7,15.7,15.7c4.3,0,8.2-1.7,11.1-4.6L19.1,22.2z"/>
		<path class="st62" d="M19.2,22.1c-2.8,2.8-4.6,6.8-4.6,11.1c0,8.7,7,15.7,15.7,15.7c4.3,0,8.2-1.7,11.1-4.6L19.2,22.1z"/>
		<path class="st63" d="M19.3,21.9c-2.8,2.8-4.6,6.8-4.6,11.1c0,8.7,7,15.7,15.7,15.7c4.3,0,8.2-1.7,11.1-4.6L19.3,21.9z"/>
		<path class="st64" d="M19.5,21.8c-2.8,2.8-4.6,6.8-4.6,11.1c0,8.7,7,15.7,15.7,15.7c4.3,0,8.2-1.7,11.1-4.6L19.5,21.8z"/>
		<path class="st65" d="M19.6,21.7c-2.8,2.8-4.6,6.8-4.6,11.1c0,8.7,7,15.7,15.7,15.7c4.3,0,8.2-1.7,11.1-4.6L19.6,21.7z"/>
		<path class="st66" d="M19.7,21.6c-2.8,2.8-4.6,6.8-4.6,11.1c0,8.7,7,15.7,15.7,15.7c4.3,0,8.2-1.7,11.1-4.6L19.7,21.6z"/>
		<path class="st67" d="M19.8,21.5c-2.8,2.8-4.6,6.8-4.6,11.1c0,8.7,7,15.7,15.7,15.7c4.3,0,8.2-1.7,11.1-4.6L19.8,21.5z"/>
		<path class="st68" d="M19.9,21.4c-2.8,2.8-4.6,6.8-4.6,11.1c0,8.7,7,15.7,15.7,15.7c4.3,0,8.2-1.7,11.1-4.6L19.9,21.4z"/>
		<path class="st69" d="M20,21.3c-2.8,2.8-4.6,6.8-4.6,11.1c0,8.7,7,15.7,15.7,15.7c4.3,0,8.2-1.7,11.1-4.6L20,21.3z"/>
		<path class="st70" d="M20.1,21.2c-2.8,2.8-4.6,6.8-4.6,11.1c0,8.7,7,15.7,15.7,15.7c4.3,0,8.2-1.7,11.1-4.6L20.1,21.2z"/>
		<path class="st71" d="M20.2,21.1c-2.8,2.8-4.6,6.8-4.6,11.1c0,8.7,7,15.7,15.7,15.7c4.3,0,8.2-1.7,11.1-4.6L20.2,21.1z"/>
		<path class="st72" d="M20.3,21c-2.8,2.8-4.6,6.8-4.6,11.1c0,8.7,7,15.7,15.7,15.7c4.3,0,8.2-1.7,11.1-4.6L20.3,21z"/>
		<path class="st73" d="M20.4,20.8c-2.8,2.8-4.6,6.8-4.6,11.1c0,8.7,7,15.7,15.7,15.7c4.3,0,8.2-1.7,11.1-4.6L20.4,20.8z"/>
		<path class="st74" d="M20.6,20.7c-2.8,2.8-4.6,6.8-4.6,11.1c0,8.7,7,15.7,15.7,15.7c4.3,0,8.2-1.7,11.1-4.6L20.6,20.7z"/>
		<path class="st75" d="M20.7,20.6c-2.8,2.8-4.6,6.8-4.6,11.1c0,8.7,7,15.7,15.7,15.7c4.3,0,8.2-1.7,11.1-4.6L20.7,20.6z"/>
		<path class="st76" d="M20.8,20.5c-2.8,2.8-4.6,6.8-4.6,11.1c0,8.7,7,15.7,15.7,15.7c4.3,0,8.2-1.7,11.1-4.6L20.8,20.5z"/>
		<path class="st77" d="M20.9,20.4c-2.8,2.8-4.6,6.8-4.6,11.1c0,8.7,7,15.7,15.7,15.7c4.3,0,8.2-1.7,11.1-4.6L20.9,20.4z"/>
		<path class="st78" d="M21,20.3c-2.8,2.8-4.6,6.8-4.6,11.1c0,8.7,7,15.7,15.7,15.7c4.3,0,8.2-1.7,11.1-4.6L21,20.3z"/>
		<path class="st79" d="M21.1,20.2c-2.8,2.8-4.6,6.8-4.6,11.1c0,8.7,7,15.7,15.7,15.7c4.3,0,8.2-1.7,11.1-4.6L21.1,20.2z"/>
		<path class="st80" d="M21.2,20.1c-2.8,2.8-4.6,6.8-4.6,11.1c0,8.7,7,15.7,15.7,15.7c4.3,0,8.2-1.7,11.1-4.6L21.2,20.1z"/>
		<path class="st81" d="M21.3,20c-2.8,2.8-4.6,6.8-4.6,11.1c0,8.7,7,15.7,15.7,15.7c4.3,0,8.2-1.7,11.1-4.6L21.3,20z"/>
		<path class="st82" d="M21.4,19.9c-2.8,2.8-4.6,6.8-4.6,11.1c0,8.7,7,15.7,15.7,15.7c4.3,0,8.2-1.7,11.1-4.6L21.4,19.9z"/>
		<path class="st83" d="M21.5,19.8c-2.8,2.8-4.6,6.8-4.6,11.1c0,8.7,7,15.7,15.7,15.7c4.3,0,8.2-1.7,11.1-4.6L21.5,19.8z"/>
		<path class="st84" d="M21.6,19.6c-2.8,2.8-4.6,6.8-4.6,11.1c0,8.7,7,15.7,15.7,15.7c4.3,0,8.2-1.7,11.1-4.6L21.6,19.6z"/>
		<path class="st85" d="M21.8,19.5c-2.8,2.8-4.6,6.8-4.6,11.1c0,8.7,7,15.7,15.7,15.7c4.3,0,8.2-1.7,11.1-4.6L21.8,19.5z"/>
		<path class="st86" d="M21.9,19.4c-2.8,2.8-4.6,6.8-4.6,11.1c0,8.7,7,15.7,15.7,15.7c4.3,0,8.2-1.7,11.1-4.6L21.9,19.4z"/>
		<path class="st87" d="M22,19.3c-2.8,2.8-4.6,6.8-4.6,11.1c0,8.7,7,15.7,15.7,15.7c4.3,0,8.2-1.7,11.1-4.6L22,19.3z"/>
		<path class="st88" d="M22.1,19.2c-2.8,2.8-4.6,6.8-4.6,11.1c0,8.7,7,15.7,15.7,15.7c4.3,0,8.2-1.7,11.1-4.6L22.1,19.2z"/>
		<path class="st89" d="M22.2,19.1c-2.8,2.8-4.6,6.8-4.6,11.1c0,8.7,7,15.7,15.7,15.7c4.3,0,8.2-1.7,11.1-4.6L22.2,19.1z"/>
		<path class="st90" d="M22.3,19c-2.8,2.8-4.6,6.8-4.6,11.1c0,8.7,7,15.7,15.7,15.7c4.3,0,8.2-1.7,11.1-4.6L22.3,19z"/>
		<path class="st91" d="M22.4,18.9c-2.8,2.8-4.6,6.8-4.6,11.1c0,8.7,7,15.7,15.7,15.7c4.3,0,8.2-1.7,11.1-4.6L22.4,18.9z"/>
		<path class="st92" d="M22.5,18.8c-2.8,2.8-4.6,6.8-4.6,11.1c0,8.7,7,15.7,15.7,15.7c4.3,0,8.2-1.7,11.1-4.6L22.5,18.8z"/>
		<path class="st93" d="M22.6,18.7c-2.8,2.8-4.6,6.8-4.6,11.1c0,8.7,7,15.7,15.7,15.7c4.3,0,8.2-1.7,11.1-4.6L22.6,18.7z"/>
		<path class="st94" d="M22.7,18.5c-2.8,2.8-4.6,6.8-4.6,11.1c0,8.7,7,15.7,15.7,15.7c4.3,0,8.2-1.7,11.1-4.6L22.7,18.5z"/>
		<path class="st95" d="M22.9,18.4c-2.8,2.8-4.6,6.8-4.6,11.1c0,8.7,7,15.7,15.7,15.7c4.3,0,8.2-1.7,11.1-4.6L22.9,18.4z"/>
		<path class="st96" d="M23,18.3c-2.8,2.8-4.6,6.8-4.6,11.1c0,8.7,7,15.7,15.7,15.7c4.3,0,8.2-1.7,11.1-4.6L23,18.3z"/>
		<path class="st97" d="M23.1,18.2c-2.8,2.8-4.6,6.8-4.6,11.1c0,8.7,7,15.7,15.7,15.7c4.3,0,8.2-1.7,11.1-4.6L23.1,18.2z"/>
		<path class="st98" d="M23.2,18.1c-2.8,2.8-4.6,6.8-4.6,11.1c0,8.7,7,15.7,15.7,15.7c4.3,0,8.2-1.7,11.1-4.6L23.2,18.1z"/>
		<path class="st99" d="M23.3,18c-2.8,2.8-4.6,6.8-4.6,11.1c0,8.7,7,15.7,15.7,15.7c4.3,0,8.2-1.7,11.1-4.6L23.3,18z"/>
		<path class="st100" d="M23.4,17.9c-2.8,2.8-4.6,6.8-4.6,11.1c0,8.7,7,15.7,15.7,15.7c4.3,0,8.2-1.7,11.1-4.6L23.4,17.9z"/>
		<path class="st101" d="M23.5,17.8c-2.8,2.8-4.6,6.8-4.6,11.1c0,8.7,7,15.7,15.7,15.7c4.3,0,8.2-1.7,11.1-4.6L23.5,17.8z"/>
		<path class="st102" d="M23.6,17.7c-2.8,2.8-4.6,6.8-4.6,11.1c0,8.7,7,15.7,15.7,15.7c4.3,0,8.2-1.7,11.1-4.6L23.6,17.7z"/>
		<path class="st103" d="M23.7,17.6c-2.8,2.8-4.6,6.8-4.6,11.1c0,8.7,7,15.7,15.7,15.7c4.3,0,8.2-1.7,11.1-4.6L23.7,17.6z"/>
		<path class="st104" d="M23.8,17.5c-2.8,2.8-4.6,6.8-4.6,11.1c0,8.7,7,15.7,15.7,15.7c4.3,0,8.2-1.7,11.1-4.6L23.8,17.5z"/>
		<path class="st105" d="M23.9,17.3c-2.8,2.8-4.6,6.8-4.6,11.1c0,8.7,7,15.7,15.7,15.7c4.3,0,8.2-1.7,11.1-4.6L23.9,17.3z"/>
		<path class="st106" d="M24.1,17.2c-2.8,2.8-4.6,6.8-4.6,11.1c0,8.7,7,15.7,15.7,15.7c4.3,0,8.2-1.7,11.1-4.6L24.1,17.2z"/>
		<path class="st107" d="M24.2,17.1c-2.8,2.8-4.6,6.8-4.6,11.1c0,8.7,7,15.7,15.7,15.7c4.3,0,8.2-1.7,11.1-4.6L24.2,17.1z"/>
		<path class="st108" d="M24.3,17c-2.8,2.8-4.6,6.8-4.6,11.1c0,8.7,7,15.7,15.7,15.7c4.3,0,8.2-1.7,11.1-4.6L24.3,17z"/>
		<path class="st109" d="M24.4,16.9c-2.8,2.8-4.6,6.8-4.6,11.1c0,8.7,7,15.7,15.7,15.7c4.3,0,8.2-1.7,11.1-4.6L24.4,16.9z"/>
		<path class="st110" d="M24.5,16.8c-2.8,2.8-4.6,6.8-4.6,11.1c0,8.7,7,15.7,15.7,15.7c4.3,0,8.2-1.7,11.1-4.6L24.5,16.8z"/>
		<path class="st111" d="M24.6,16.7c-2.8,2.8-4.6,6.8-4.6,11.1c0,8.7,7,15.7,15.7,15.7c4.3,0,8.2-1.7,11.1-4.6L24.6,16.7z"/>
		<path class="st112" d="M24.7,16.6c-2.8,2.8-4.6,6.8-4.6,11.1c0,8.7,7,15.7,15.7,15.7c4.3,0,8.2-1.7,11.1-4.6L24.7,16.6z"/>
		<path class="st113" d="M24.8,16.5c-2.8,2.8-4.6,6.8-4.6,11.1c0,8.7,7,15.7,15.7,15.7c4.3,0,8.2-1.7,11.1-4.6L24.8,16.5z"/>
		<path class="st114" d="M24.9,16.4c-2.8,2.8-4.6,6.8-4.6,11.1c0,8.7,7,15.7,15.7,15.7c4.3,0,8.2-1.7,11.1-4.6L24.9,16.4z"/>
		<path class="st115" d="M25,16.2c-2.8,2.8-4.6,6.8-4.6,11.1c0,8.7,7,15.7,15.7,15.7c4.3,0,8.2-1.7,11.1-4.6L25,16.2z"/>
		<path class="st116" d="M25.2,16.1c-2.8,2.8-4.6,6.8-4.6,11.1c0,8.7,7,15.7,15.7,15.7c4.3,0,8.2-1.7,11.1-4.6L25.2,16.1z"/>
		<path class="st117" d="M25.3,16c-2.8,2.8-4.6,6.8-4.6,11.1c0,8.7,7,15.7,15.7,15.7c4.3,0,8.2-1.7,11.1-4.6L25.3,16z"/>
		<path class="st118" d="M25.4,15.9c-2.8,2.8-4.6,6.8-4.6,11.1c0,8.7,7,15.7,15.7,15.7c4.3,0,8.2-1.7,11.1-4.6L25.4,15.9z"/>
		<path class="st119" d="M25.5,15.8c-2.8,2.8-4.6,6.8-4.6,11.1c0,8.7,7,15.7,15.7,15.7c4.3,0,8.2-1.7,11.1-4.6L25.5,15.8z"/>
		<path class="st120" d="M25.6,15.7c-2.8,2.8-4.6,6.8-4.6,11.1c0,8.7,7,15.7,15.7,15.7c4.3,0,8.2-1.7,11.1-4.6L25.6,15.7z"/>
		<path class="st121" d="M25.7,15.6c-2.8,2.8-4.6,6.8-4.6,11.1c0,8.7,7,15.7,15.7,15.7c4.3,0,8.2-1.7,11.1-4.6L25.7,15.6z"/>
		<path class="st122" d="M25.8,15.5c-2.8,2.8-4.6,6.8-4.6,11.1c0,8.7,7,15.7,15.7,15.7c4.3,0,8.2-1.7,11.1-4.6L25.8,15.5z"/>
		<path class="st123" d="M25.9,15.4c-2.8,2.8-4.6,6.8-4.6,11.1c0,8.7,7,15.7,15.7,15.7c4.3,0,8.2-1.7,11.1-4.6L25.9,15.4z"/>
		<path class="st124" d="M26,15.3c-2.8,2.8-4.6,6.8-4.6,11.1c0,8.7,7,15.7,15.7,15.7c4.3,0,8.2-1.7,11.1-4.6L26,15.3z"/>
		<path class="st125" d="M26.1,15.2c-2.8,2.8-4.6,6.8-4.6,11.1c0,8.7,7,15.7,15.7,15.7c4.3,0,8.2-1.7,11.1-4.6L26.1,15.2z"/>
		<path class="st126" d="M26.2,15c-2.8,2.8-4.6,6.8-4.6,11.1c0,8.7,7,15.7,15.7,15.7c4.3,0,8.2-1.7,11.1-4.6L26.2,15z"/>
		<path class="st127" d="M26.4,14.9c-2.8,2.8-4.6,6.8-4.6,11.1c0,8.7,7,15.7,15.7,15.7c4.3,0,8.2-1.7,11.1-4.6L26.4,14.9z"/>
		<path class="st128" d="M26.5,14.8c-2.8,2.8-4.6,6.8-4.6,11.1c0,8.7,7,15.7,15.7,15.7c4.3,0,8.2-1.7,11.1-4.6L26.5,14.8z"/>
		<path class="st129" d="M26.6,14.7c-2.8,2.8-4.6,6.8-4.6,11.1c0,8.7,7,15.7,15.7,15.7c4.3,0,8.2-1.7,11.1-4.6L26.6,14.7z"/>
		<path class="st130" d="M26.7,14.6c-2.8,2.8-4.6,6.8-4.6,11.1c0,8.7,7,15.7,15.7,15.7c4.3,0,8.2-1.7,11.1-4.6L26.7,14.6z"/>
		<path class="st131" d="M26.8,14.5c-2.8,2.8-4.6,6.8-4.6,11.1c0,8.7,7,15.7,15.7,15.7c4.3,0,8.2-1.7,11.1-4.6L26.8,14.5z"/>
		<path class="st132" d="M26.9,14.4c-2.8,2.8-4.6,6.8-4.6,11.1c0,8.7,7,15.7,15.7,15.7c4.3,0,8.2-1.7,11.1-4.6L26.9,14.4z"/>
		<path class="st133" d="M27,14.3c-2.8,2.8-4.6,6.8-4.6,11.1c0,8.7,7,15.7,15.7,15.7c4.3,0,8.2-1.7,11.1-4.6L27,14.3z"/>
		<path class="st134" d="M27.1,14.2c-2.8,2.8-4.6,6.8-4.6,11.1c0,8.7,7,15.7,15.7,15.7c4.3,0,8.2-1.7,11.1-4.6L27.1,14.2z"/>
		<path class="st135" d="M27.2,14.1c-2.8,2.8-4.6,6.8-4.6,11.1c0,8.7,7,15.7,15.7,15.7c4.3,0,8.2-1.7,11.1-4.6L27.2,14.1z"/>
		<path class="st136" d="M27.3,13.9c-2.8,2.8-4.6,6.8-4.6,11.1c0,8.7,7,15.7,15.7,15.7c4.3,0,8.2-1.7,11.1-4.6L27.3,13.9z"/>
		<path class="st137" d="M27.4,13.8c-2.8,2.8-4.6,6.8-4.6,11.1c0,8.7,7,15.7,15.7,15.7c4.3,0,8.2-1.7,11.1-4.6L27.4,13.8z"/>
		<path class="st138" d="M27.6,13.7c-2.8,2.8-4.6,6.8-4.6,11.1c0,8.7,7,15.7,15.7,15.7c4.3,0,8.2-1.7,11.1-4.6L27.6,13.7z"/>
		<path class="st139" d="M27.7,13.6c-2.8,2.8-4.6,6.8-4.6,11.1c0,8.7,7,15.7,15.7,15.7c4.3,0,8.2-1.7,11.1-4.6L27.7,13.6z"/>
		<path class="st140" d="M27.8,13.5c-2.8,2.8-4.6,6.8-4.6,11.1c0,8.7,7,15.7,15.7,15.7c4.3,0,8.2-1.7,11.1-4.6L27.8,13.5z"/>
		<path class="st141" d="M27.9,13.4c-2.8,2.8-4.6,6.8-4.6,11.1c0,8.7,7,15.7,15.7,15.7c4.3,0,8.2-1.7,11.1-4.6L27.9,13.4z"/>
		<path class="st142" d="M28,13.3c-2.8,2.8-4.6,6.8-4.6,11.1c0,8.7,7,15.7,15.7,15.7c4.3,0,8.2-1.7,11.1-4.6L28,13.3z"/>
		<path class="st143" d="M28.1,13.2c-2.8,2.8-4.6,6.8-4.6,11.1c0,8.7,7,15.7,15.7,15.7c4.3,0,8.2-1.7,11.1-4.6L28.1,13.2z"/>
		<path class="st144" d="M28.2,13.1c-2.8,2.8-4.6,6.8-4.6,11.1c0,8.7,7,15.7,15.7,15.7c4.3,0,8.2-1.7,11.1-4.6L28.2,13.1z"/>
		<path class="st145" d="M28.3,13c-2.8,2.8-4.6,6.8-4.6,11.1c0,8.7,7,15.7,15.7,15.7c4.3,0,8.2-1.7,11.1-4.6L28.3,13z"/>
		<path class="st146" d="M28.4,12.9c-2.8,2.8-4.6,6.8-4.6,11.1c0,8.7,7,15.7,15.7,15.7c4.3,0,8.2-1.7,11.1-4.6L28.4,12.9z"/>
		<path class="st147" d="M28.5,12.7c-2.8,2.8-4.6,6.8-4.6,11.1c0,8.7,7,15.7,15.7,15.7c4.3,0,8.2-1.7,11.1-4.6L28.5,12.7z"/>
		<path class="st148" d="M28.7,12.6c-2.8,2.8-4.6,6.8-4.6,11.1c0,8.7,7,15.7,15.7,15.7c4.3,0,8.2-1.7,11.1-4.6L28.7,12.6z"/>
		<path class="st149" d="M28.8,12.5c-2.8,2.8-4.6,6.8-4.6,11.1c0,8.7,7,15.7,15.7,15.7c4.3,0,8.2-1.7,11.1-4.6L28.8,12.5z"/>
		<path class="st150" d="M28.9,12.4c-2.8,2.8-4.6,6.8-4.6,11.1c0,8.7,7,15.7,15.7,15.7c4.3,0,8.2-1.7,11.1-4.6L28.9,12.4z"/>
		<path class="st151" d="M29,12.3c-2.8,2.8-4.6,6.8-4.6,11.1c0,8.7,7,15.7,15.7,15.7c4.3,0,8.2-1.7,11.1-4.6L29,12.3z"/>
	</g>
	<g>
		<g>
			<linearGradient id="SVGID_1_" gradientUnits="userSpaceOnUse" x1="29.0153" y1="34.5252" x2="51.2671" y2="12.2733">
				<stop  offset="0" style="stop-color:#FFFFFF"/>
				<stop  offset="0.2538" style="stop-color:#FBFBFB"/>
				<stop  offset="0.4927" style="stop-color:#F0F0F1"/>
				<stop  offset="0.7258" style="stop-color:#DDDEDF"/>
				<stop  offset="0.9539" style="stop-color:#C2C4C6"/>
				<stop  offset="1" style="stop-color:#BCBEC0"/>
			</linearGradient>
			<circle class="st152" cx="40.1" cy="23.4" r="15.7"/>
			<path class="st153" d="M55.9,23.4c0,6.5-3.9,12-9.5,14.4c5.3-2.5,9-7.9,9-14.2c0-8.7-7-15.7-15.7-15.7c-2.2,0-4.3,0.5-6.3,1.3
				c2-1,4.3-1.5,6.7-1.5C48.8,7.7,55.9,14.7,55.9,23.4z"/>
		</g>
	</g>
	<g id="Culture_1_">
		<path class="st154" d="M33.5,24.6c-0.5,0-0.8-0.4-0.8-0.9v-3.3c0-0.9,0.7-1.6,1.5-1.6c0.1,0,0.2,0.1,0.2,0.2
			c0,0.1-0.1,0.2-0.2,0.2c-0.6,0-1.1,0.5-1.1,1.2v3.3c0,0.2,0.2,0.4,0.4,0.4s0.4-0.2,0.4-0.4v-2.5c0-0.1,0.1-0.2,0.2-0.2
			c0.1,0,0.2,0.1,0.2,0.2v2.5C34.4,24.2,34,24.6,33.5,24.6z"/>
		<path class="st154" d="M35.6,29.9h-1.4c-0.1,0-0.2-0.1-0.2-0.2v-6.9c0-0.1,0.1-0.2,0.2-0.2c0.1,0,0.2,0.1,0.2,0.2v6.7h1v-5.4
			c0-0.1,0.1-0.2,0.2-0.2c0.1,0,0.2,0.1,0.2,0.2v5.6C35.8,29.8,35.7,29.9,35.6,29.9z"/>
		<path class="st154" d="M35.6,18.3c-0.8,0-1.4-0.7-1.4-1.5c0-0.8,0.6-1.5,1.4-1.5c0.8,0,1.4,0.7,1.4,1.5
			C37,17.6,36.3,18.3,35.6,18.3z M35.6,15.7c-0.5,0-1,0.5-1,1.1c0,0.6,0.4,1.1,1,1.1c0.5,0,1-0.5,1-1.1
			C36.6,16.2,36.1,15.7,35.6,15.7z"/>
		<path class="st154" d="M46,24.6c-0.5,0-0.8-0.4-0.8-0.9v-2.5c0-0.1,0.1-0.2,0.2-0.2c0.1,0,0.2,0.1,0.2,0.2v2.5
			c0,0.2,0.2,0.4,0.4,0.4c0.2,0,0.4-0.2,0.4-0.4v-3.3c0-0.7-0.5-1.2-1.1-1.2c-0.1,0-0.2-0.1-0.2-0.2s0.1-0.2,0.2-0.2
			c0.8,0,1.5,0.7,1.5,1.6v3.3C46.8,24.2,46.4,24.6,46,24.6z"/>
		<path class="st154" d="M45.4,29.9h-1.4c-0.1,0-0.2-0.1-0.2-0.2v-5.6c0-0.1,0.1-0.2,0.2-0.2c0.1,0,0.2,0.1,0.2,0.2v5.4h1v-6.7
			c0-0.1,0.1-0.2,0.2-0.2c0.1,0,0.2,0.1,0.2,0.2v6.9C45.6,29.8,45.5,29.9,45.4,29.9z"/>
		<path class="st154" d="M38.2,19.3h-1.3c-0.1,0-0.2-0.1-0.2-0.2c0-0.1,0.1-0.2,0.2-0.2h1.3c0.1,0,0.2,0.1,0.2,0.2
			C38.5,19.2,38.4,19.3,38.2,19.3z"/>
		<path class="st154" d="M42.6,19.3c0,0-0.8,0-0.8,0c-0.1,0-0.2-0.1-0.2-0.2c0-0.1,0.1-0.2,0.2-0.2c0,0,0.8,0,0.8,0
			c0.1,0,0.2,0.1,0.2,0.2C42.8,19.2,42.7,19.3,42.6,19.3z"/>
		<path class="st154" d="M40.9,19.3H40c-0.1,0-0.2-0.1-0.2-0.2c0-0.1,0.1-0.2,0.2-0.2h0.9c0.1,0,0.2,0.1,0.2,0.2
			C41.1,19.2,41,19.3,40.9,19.3z"/>
		<path class="st154" d="M39.1,19.3h-0.8c-0.1,0-0.2-0.1-0.2-0.2c0-0.1,0.1-0.2,0.2-0.2h0.8c0.1,0,0.2,0.1,0.2,0.2
			C39.3,19.2,39.2,19.3,39.1,19.3z"/>
		<path class="st154" d="M37,29.9h-1.4c-0.1,0-0.2-0.1-0.2-0.2v-5.6c0-0.1,0.1-0.2,0.2-0.2c0.1,0,0.2,0.1,0.2,0.2v5.4h1v-9
			c0-0.1,0.1-0.2,0.2-0.2c0.1,0,0.2,0.1,0.2,0.2v9.2C37.2,29.8,37.1,29.9,37,29.9z"/>
		<path class="st154" d="M40.6,20.7c0,0-0.6,0-0.6,0c-0.1,0-0.2-0.1-0.2-0.2c0-0.1,0.1-0.2,0.2-0.2c0,0,0.6,0,0.6,0
			c0.1,0,0.2,0.1,0.2,0.2C40.8,20.6,40.7,20.7,40.6,20.7z"/>
		<path class="st154" d="M39.2,20.7c0,0-0.8,0-0.8,0c-0.1,0-0.2-0.1-0.2-0.2c0-0.1,0.1-0.2,0.2-0.2c0,0,0.8,0,0.8,0
			c0.1,0,0.2,0.1,0.2,0.2C39.4,20.6,39.3,20.7,39.2,20.7z"/>
		<path class="st154" d="M37.6,20.7c0,0-0.6,0-0.6,0c-0.1,0-0.2-0.1-0.2-0.2c0-0.1,0.1-0.2,0.2-0.2c0,0,0.6,0,0.6,0
			c0.1,0,0.2,0.1,0.2,0.2C37.8,20.6,37.7,20.7,37.6,20.7z"/>
		<path class="st154" d="M43.9,29.9h-1.4c-0.1,0-0.2-0.1-0.2-0.2v-9l-1.8,0c-0.1,0-0.2-0.1-0.2-0.2c0-0.1,0.1-0.2,0.2-0.2
			c0,0,2,0,2,0c0.1,0,0.2,0.1,0.2,0.2v9h1v-5.3c0-0.1,0.1-0.2,0.2-0.2c0.1,0,0.2,0.1,0.2,0.2v5.6C44.2,29.8,44.1,29.9,43.9,29.9z"/>
		<path class="st154" d="M43.9,18.3c-0.8,0-1.4-0.7-1.4-1.5s0.6-1.5,1.4-1.5c0.8,0,1.4,0.7,1.4,1.5S44.7,18.3,43.9,18.3z M43.9,15.7
			c-0.5,0-1,0.5-1,1.1c0,0.6,0.4,1.1,1,1.1c0.5,0,1-0.5,1-1.1C44.9,16.2,44.5,15.7,43.9,15.7z"/>
		<path class="st154" d="M47.5,29.9H32c-0.1,0-0.2-0.1-0.2-0.2c0-0.1,0.1-0.2,0.2-0.2h15.6c0.1,0,0.2,0.1,0.2,0.2
			C47.8,29.8,47.7,29.9,47.5,29.9z"/>
		<path class="st154" d="M46.6,31.3H32.9c-0.1,0-0.2-0.1-0.2-0.2c0-0.1,0.1-0.2,0.2-0.2h13.7c0.1,0,0.2,0.1,0.2,0.2
			C46.8,31.2,46.7,31.3,46.6,31.3z"/>
	</g>
</g>
</svg>
