<?xml version="1.0" encoding="utf-8"?>
<!-- Generator: Adobe Illustrator 22.0.0, SVG Export Plug-In . SVG Version: 6.00 Build 0)  -->
<svg version="1.1" id="Layer_1" xmlns="http://www.w3.org/2000/svg" xmlns:xlink="http://www.w3.org/1999/xlink" x="0px" y="0px"
	 viewBox="0 0 64 64" style="enable-background:new 0 0 64 64;" xml:space="preserve">
<style type="text/css">
	.st0{fill:url(#SVGID_1_);}
	.st1{fill:#FFFFFF;}
	.st2{fill:#1E2235;}
</style>
<g id="Culture_x5F_Button_1_">
	<g>
		<g>
			<linearGradient id="SVGID_1_" gradientUnits="userSpaceOnUse" x1="29.0153" y1="34.5252" x2="51.2671" y2="12.2733">
				<stop  offset="0" style="stop-color:#FFFFFF"/>
				<stop  offset="0.2538" style="stop-color:#FBFBFB"/>
				<stop  offset="0.4927" style="stop-color:#F0F0F1"/>
				<stop  offset="0.7258" style="stop-color:#DDDEDF"/>
				<stop  offset="0.9539" style="stop-color:#C2C4C6"/>
				<stop  offset="1" style="stop-color:#BCBEC0"/>
			</linearGradient>
			<circle class="st0" cx="40.1" cy="23.4" r="15.7"/>
			<path class="st1" d="M55.9,23.4c0,6.5-3.9,12-9.5,14.4c5.3-2.5,9-7.9,9-14.2c0-8.7-7-15.7-15.7-15.7c-2.2,0-4.3,0.5-6.3,1.3
				c2-1,4.3-1.5,6.7-1.5C48.8,7.7,55.9,14.7,55.9,23.4z"/>
		</g>
	</g>
	<g id="Culture_1_">
		<path class="st2" d="M33.5,24.6c-0.5,0-0.8-0.4-0.8-0.9v-3.3c0-0.9,0.7-1.6,1.5-1.6c0.1,0,0.2,0.1,0.2,0.2c0,0.1-0.1,0.2-0.2,0.2
			c-0.6,0-1.1,0.5-1.1,1.2v3.3c0,0.2,0.2,0.4,0.4,0.4s0.4-0.2,0.4-0.4v-2.5c0-0.1,0.1-0.2,0.2-0.2c0.1,0,0.2,0.1,0.2,0.2v2.5
			C34.4,24.2,34,24.6,33.5,24.6z"/>
		<path class="st2" d="M35.6,29.9h-1.4c-0.1,0-0.2-0.1-0.2-0.2v-6.9c0-0.1,0.1-0.2,0.2-0.2c0.1,0,0.2,0.1,0.2,0.2v6.7h1v-5.4
			c0-0.1,0.1-0.2,0.2-0.2c0.1,0,0.2,0.1,0.2,0.2v5.6C35.8,29.8,35.7,29.9,35.6,29.9z"/>
		<path class="st2" d="M35.6,18.3c-0.8,0-1.4-0.7-1.4-1.5c0-0.8,0.6-1.5,1.4-1.5c0.8,0,1.4,0.7,1.4,1.5C37,17.6,36.3,18.3,35.6,18.3
			z M35.6,15.7c-0.5,0-1,0.5-1,1.1c0,0.6,0.4,1.1,1,1.1c0.5,0,1-0.5,1-1.1C36.6,16.2,36.1,15.7,35.6,15.7z"/>
		<path class="st2" d="M46,24.6c-0.5,0-0.8-0.4-0.8-0.9v-2.5c0-0.1,0.1-0.2,0.2-0.2c0.1,0,0.2,0.1,0.2,0.2v2.5
			c0,0.2,0.2,0.4,0.4,0.4c0.2,0,0.4-0.2,0.4-0.4v-3.3c0-0.7-0.5-1.2-1.1-1.2c-0.1,0-0.2-0.1-0.2-0.2s0.1-0.2,0.2-0.2
			c0.8,0,1.5,0.7,1.5,1.6v3.3C46.8,24.2,46.4,24.6,46,24.6z"/>
		<path class="st2" d="M45.4,29.9h-1.4c-0.1,0-0.2-0.1-0.2-0.2v-5.6c0-0.1,0.1-0.2,0.2-0.2c0.1,0,0.2,0.1,0.2,0.2v5.4h1v-6.7
			c0-0.1,0.1-0.2,0.2-0.2c0.1,0,0.2,0.1,0.2,0.2v6.9C45.6,29.8,45.5,29.9,45.4,29.9z"/>
		<path class="st2" d="M38.2,19.3h-1.3c-0.1,0-0.2-0.1-0.2-0.2c0-0.1,0.1-0.2,0.2-0.2h1.3c0.1,0,0.2,0.1,0.2,0.2
			C38.5,19.2,38.4,19.3,38.2,19.3z"/>
		<path class="st2" d="M42.6,19.3c0,0-0.8,0-0.8,0c-0.1,0-0.2-0.1-0.2-0.2c0-0.1,0.1-0.2,0.2-0.2c0,0,0.8,0,0.8,0
			c0.1,0,0.2,0.1,0.2,0.2C42.8,19.2,42.7,19.3,42.6,19.3z"/>
		<path class="st2" d="M40.9,19.3H40c-0.1,0-0.2-0.1-0.2-0.2c0-0.1,0.1-0.2,0.2-0.2h0.9c0.1,0,0.2,0.1,0.2,0.2
			C41.1,19.2,41,19.3,40.9,19.3z"/>
		<path class="st2" d="M39.1,19.3h-0.8c-0.1,0-0.2-0.1-0.2-0.2c0-0.1,0.1-0.2,0.2-0.2h0.8c0.1,0,0.2,0.1,0.2,0.2
			C39.3,19.2,39.2,19.3,39.1,19.3z"/>
		<path class="st2" d="M37,29.9h-1.4c-0.1,0-0.2-0.1-0.2-0.2v-5.6c0-0.1,0.1-0.2,0.2-0.2c0.1,0,0.2,0.1,0.2,0.2v5.4h1v-9
			c0-0.1,0.1-0.2,0.2-0.2c0.1,0,0.2,0.1,0.2,0.2v9.2C37.2,29.8,37.1,29.9,37,29.9z"/>
		<path class="st2" d="M40.6,20.7c0,0-0.6,0-0.6,0c-0.1,0-0.2-0.1-0.2-0.2c0-0.1,0.1-0.2,0.2-0.2c0,0,0.6,0,0.6,0
			c0.1,0,0.2,0.1,0.2,0.2C40.8,20.6,40.7,20.7,40.6,20.7z"/>
		<path class="st2" d="M39.2,20.7c0,0-0.8,0-0.8,0c-0.1,0-0.2-0.1-0.2-0.2c0-0.1,0.1-0.2,0.2-0.2c0,0,0.8,0,0.8,0
			c0.1,0,0.2,0.1,0.2,0.2C39.4,20.6,39.3,20.7,39.2,20.7z"/>
		<path class="st2" d="M37.6,20.7c0,0-0.6,0-0.6,0c-0.1,0-0.2-0.1-0.2-0.2c0-0.1,0.1-0.2,0.2-0.2c0,0,0.6,0,0.6,0
			c0.1,0,0.2,0.1,0.2,0.2C37.8,20.6,37.7,20.7,37.6,20.7z"/>
		<path class="st2" d="M43.9,29.9h-1.4c-0.1,0-0.2-0.1-0.2-0.2v-9l-1.8,0c-0.1,0-0.2-0.1-0.2-0.2c0-0.1,0.1-0.2,0.2-0.2c0,0,2,0,2,0
			c0.1,0,0.2,0.1,0.2,0.2v9h1v-5.3c0-0.1,0.1-0.2,0.2-0.2c0.1,0,0.2,0.1,0.2,0.2v5.6C44.2,29.8,44.1,29.9,43.9,29.9z"/>
		<path class="st2" d="M43.9,18.3c-0.8,0-1.4-0.7-1.4-1.5s0.6-1.5,1.4-1.5c0.8,0,1.4,0.7,1.4,1.5S44.7,18.3,43.9,18.3z M43.9,15.7
			c-0.5,0-1,0.5-1,1.1c0,0.6,0.4,1.1,1,1.1c0.5,0,1-0.5,1-1.1C44.9,16.2,44.5,15.7,43.9,15.7z"/>
		<path class="st2" d="M47.5,29.9H32c-0.1,0-0.2-0.1-0.2-0.2c0-0.1,0.1-0.2,0.2-0.2h15.6c0.1,0,0.2,0.1,0.2,0.2
			C47.8,29.8,47.7,29.9,47.5,29.9z"/>
		<path class="st2" d="M46.6,31.3H32.9c-0.1,0-0.2-0.1-0.2-0.2c0-0.1,0.1-0.2,0.2-0.2h13.7c0.1,0,0.2,0.1,0.2,0.2
			C46.8,31.2,46.7,31.3,46.6,31.3z"/>
	</g>
</g>
</svg>
