<?xml version="1.0" encoding="utf-8"?>
<!-- Generator: Adobe Illustrator 22.0.0, SVG Export Plug-In . SVG Version: 6.00 Build 0)  -->
<svg version="1.1" id="Layer_1" xmlns="http://www.w3.org/2000/svg" xmlns:xlink="http://www.w3.org/1999/xlink" x="0px" y="0px"
	 viewBox="0 0 64 64" style="enable-background:new 0 0 64 64;" xml:space="preserve">
<style type="text/css">
	.st0{fill:url(#SVGID_1_);}
	.st1{fill:#FFFFFF;}
	.st2{fill:#1E2235;}
</style>
<g id="Mutual_x5F_Button">
	<g>
		<g>
			<linearGradient id="SVGID_1_" gradientUnits="userSpaceOnUse" x1="29.0153" y1="34.5252" x2="51.2671" y2="12.2733">
				<stop  offset="0" style="stop-color:#FFFFFF"/>
				<stop  offset="0.2538" style="stop-color:#FBFBFB"/>
				<stop  offset="0.4927" style="stop-color:#F0F0F1"/>
				<stop  offset="0.7258" style="stop-color:#DDDEDF"/>
				<stop  offset="0.9539" style="stop-color:#C2C4C6"/>
				<stop  offset="1" style="stop-color:#BCBEC0"/>
			</linearGradient>
			<circle class="st0" cx="40.1" cy="23.4" r="15.7"/>
			<path class="st1" d="M55.9,23.4c0,6.5-3.9,12-9.5,14.4c5.3-2.5,9-7.9,9-14.2c0-8.7-7-15.7-15.7-15.7c-2.2,0-4.3,0.5-6.3,1.3
				c2-1,4.3-1.5,6.7-1.5C48.8,7.7,55.9,14.7,55.9,23.4z"/>
		</g>
	</g>
	<g id="Mutual">
		<path class="st2" d="M42.2,29.2c-0.2-0.8-0.8-1.5-1.6-1.8c0.5-0.3,0.8-0.8,0.8-1.4c0-0.9-0.7-1.6-1.6-1.6s-1.6,0.7-1.6,1.6
			c0,0.6,0.3,1.1,0.8,1.4c-0.2,0.1-0.5,0.2-0.7,0.4c-0.4,0.3-0.7,0.8-0.9,1.4L37,30.9c0,0.1,0.1,0.3,0.2,0.3c0,0,0,0,0.1,0
			c0.1,0,0.2-0.1,0.2-0.2l0.4-1.8c0.2-0.9,1-1.5,1.9-1.5c0.9,0,1.7,0.7,1.9,1.5l0.3,1.7c0,0.1,0.2,0.2,0.3,0.2
			c0.1,0,0.2-0.2,0.2-0.3L42.2,29.2z M39.8,24.9c0.6,0,1.1,0.5,1.1,1.1c0,0.6-0.5,1.1-1.1,1.1s-1.1-0.5-1.1-1.1
			C38.6,25.4,39.2,24.9,39.8,24.9z"/>
		<path class="st2" d="M44.9,27.5h0.5c0.6,0,1.1-0.4,1.1-1c0,0,0,0,0,0l0.1-2.1c0-0.1-0.1-0.2-0.2-0.3c-0.1,0-0.3,0.1-0.3,0.2
			l-0.1,2.1c0,0.3-0.3,0.6-0.7,0.6h-2.7c-0.2,0-0.3-0.1-0.3-0.3c0-0.2,0.1-0.3,0.3-0.3h2.4c0.1,0,0.2-0.1,0.2-0.2l0.1-1.1
			c0-0.1-0.1-0.2-0.2-0.3c-0.1,0-0.3,0.1-0.3,0.2l-0.1,0.9h-2.2c-0.4,0-0.8,0.3-0.8,0.8c0,0.4,0.4,0.8,0.8,0.8h1.5l2.2,2.5h-3.1
			c-0.1,0-0.2,0.1-0.2,0.2c0,0.1,0.1,0.2,0.2,0.2H47c0.1,0,0.2-0.1,0.2-0.1c0-0.1,0-0.2,0-0.3L44.9,27.5z"/>
		<path class="st2" d="M47.2,23.5c-0.2-0.2-0.4-0.3-0.6-0.4c0.4-0.3,0.7-0.8,0.7-1.3c0-0.9-0.7-1.6-1.6-1.6s-1.6,0.7-1.6,1.6
			c0,0.1,0,0.2,0,0.3l-0.8-0.5c0,0,0,0-0.1-0.1c0,0,0-0.1-0.1-0.2L42,19.7c0,0,0,0,0,0c-0.3-0.4-0.8-0.4-1.1-0.2
			c-0.2,0.1-0.3,0.3-0.4,0.5c0,0.2,0,0.4,0.1,0.6l1.3,1.9c0.1,0.2,0.3,0.3,0.5,0.4l1.8,1.1L44,25.3c0,0.1,0.1,0.2,0.2,0.3
			c0,0,0,0,0,0c0.1,0,0.2-0.1,0.2-0.2l0.2-1.5c0-0.1,0-0.2-0.1-0.2l-1.9-1.2c0,0,0,0,0,0c-0.1-0.1-0.2-0.2-0.3-0.3L41,20.3
			C41,20.2,41,20.2,41,20.1c0-0.1,0.1-0.2,0.1-0.2c0.2-0.1,0.4-0.1,0.5,0.1l1.2,1.7c0,0,0,0.1,0.1,0.1c0,0.1,0.1,0.2,0.3,0.3
			l1.5,0.9c0,0,0,0,0,0c0.3,0.3,0.7,0.4,1.1,0.4c0,0,0,0,0,0c0.4,0,0.8,0.2,1.1,0.5c0.3,0.3,0.5,0.7,0.5,1.1v4.2
			c0,0.1,0.1,0.2,0.2,0.2c0.1,0,0.2-0.1,0.2-0.2v-4.2C47.8,24.4,47.6,23.9,47.2,23.5z M45.8,20.6c0.6,0,1.1,0.5,1.1,1.1
			c0,0.6-0.5,1.1-1.1,1.1c-0.6,0-1.1-0.5-1.1-1.1C44.6,21.1,45.1,20.6,45.8,20.6z"/>
		<path class="st2" d="M36.9,27.5c0.4,0,0.8-0.3,0.8-0.8c0-0.4-0.4-0.8-0.8-0.8h-2.2L34.7,25c0-0.1-0.1-0.2-0.3-0.2
			c-0.1,0-0.2,0.1-0.2,0.3l0.1,1.1c0,0.1,0.1,0.2,0.2,0.2h2.4c0.2,0,0.3,0.1,0.3,0.3c0,0.2-0.1,0.3-0.3,0.3h-2.7
			c-0.3,0-0.6-0.2-0.7-0.6l-0.1-2.1c0-0.1-0.1-0.2-0.3-0.2c-0.1,0-0.2,0.1-0.2,0.3l0.1,2.1c0,0,0,0,0,0c0.1,0.6,0.6,1,1.1,1h0.4
			l-2.2,2.6c-0.1,0.1-0.1,0.2,0,0.3c0,0.1,0.1,0.1,0.2,0.1h3.6c0.1,0,0.2-0.1,0.2-0.2c0-0.1-0.1-0.2-0.2-0.2h-3.1l2.2-2.5H36.9z"/>
		<path class="st2" d="M32.3,24.9c0-0.4,0.2-0.8,0.5-1.1c0.3-0.3,0.7-0.5,1.1-0.5c0,0,0,0,0,0c0.4,0,0.8-0.2,1.1-0.4c0,0,0,0,0,0
			l1.4-0.9c0.2-0.1,0.3-0.2,0.4-0.4l1.2-1.7c0.1-0.1,0.3-0.2,0.5-0.1c0.1,0.1,0.1,0.1,0.1,0.2c0,0.1,0,0.2-0.1,0.3l-1.3,1.9
			c-0.1,0.1-0.2,0.2-0.3,0.3c0,0,0,0,0,0l-1.9,1.2c-0.1,0-0.1,0.1-0.1,0.2l0.2,1.5c0,0.1,0.1,0.2,0.2,0.2c0,0,0,0,0,0
			c0.1,0,0.2-0.1,0.2-0.3L35.5,24l1.8-1.1c0.2-0.1,0.3-0.2,0.5-0.4l1.3-1.9c0.1-0.2,0.2-0.4,0.1-0.6c0-0.2-0.2-0.4-0.4-0.5
			c-0.4-0.2-0.9-0.2-1.1,0.2c0,0,0,0,0,0l-1.2,1.7c-0.1,0.1-0.2,0.2-0.3,0.3c0,0,0,0,0,0l-0.7,0.4c0-0.1,0-0.2,0-0.3
			c0-0.9-0.7-1.6-1.6-1.6c-0.9,0-1.6,0.7-1.6,1.6c0,0.6,0.3,1,0.7,1.3c-0.2,0.1-0.4,0.2-0.6,0.4c-0.4,0.4-0.6,0.9-0.6,1.5v4.2
			c0,0.1,0.1,0.2,0.2,0.2c0.1,0,0.2-0.1,0.2-0.2V24.9z M33.9,20.6c0.6,0,1.1,0.5,1.1,1.1c0,0.6-0.5,1.1-1.1,1.1
			c-0.6,0-1.1-0.5-1.1-1.1C32.8,21.1,33.3,20.6,33.9,20.6z"/>
		<path class="st2" d="M38.9,18c0.2,0.2,0.5,0.6,0.6,0.9c0,0.1,0.1,0.1,0.2,0.1h0.4c0.1,0,0.2-0.1,0.2-0.2l0,0
			c0.1-0.3,0.3-0.6,0.5-0.8c0.4-0.3,0.6-0.8,0.6-1.3c0-0.4-0.2-0.8-0.5-1.1c-0.3-0.3-0.7-0.5-1.1-0.5c-0.4,0-0.9,0.2-1.2,0.5
			c-0.3,0.3-0.5,0.7-0.5,1.1C38.3,17.2,38.5,17.7,38.9,18z M39.1,16c0.2-0.2,0.5-0.3,0.8-0.3c0.6,0,1.1,0.5,1.1,1.1
			c0,0.4-0.2,0.7-0.4,0.9c-0.3,0.2-0.5,0.6-0.7,0.9h-0.1c-0.1-0.2-0.4-0.7-0.6-0.9c-0.3-0.2-0.4-0.5-0.4-0.9
			C38.7,16.5,38.9,16.2,39.1,16z"/>
		<path class="st2" d="M40.1,19.2h-0.4c-0.1,0-0.2,0.1-0.2,0.2s0.1,0.2,0.2,0.2h0.4c0.1,0,0.2-0.1,0.2-0.2S40.2,19.2,40.1,19.2z"/>
		<path class="st2" d="M40.1,19.9h-0.4c-0.1,0-0.2,0.1-0.2,0.2c0,0.1,0.1,0.2,0.2,0.2h0.4c0.1,0,0.2-0.1,0.2-0.2
			C40.3,20,40.2,19.9,40.1,19.9z"/>
	</g>
</g>
</svg>
