<?xml version="1.0" encoding="utf-8"?>
<!-- Generator: Adobe Illustrator 22.0.0, SVG Export Plug-In . SVG Version: 6.00 Build 0)  -->
<svg version="1.1" id="Layer_1" xmlns="http://www.w3.org/2000/svg" xmlns:xlink="http://www.w3.org/1999/xlink" x="0px" y="0px"
	 viewBox="0 0 64 64" style="enable-background:new 0 0 64 64;" xml:space="preserve">
<style type="text/css">
	.st0{fill:url(#SVGID_1_);}
	.st1{fill:#FFFFFF;}
	.st2{fill:#1E2235;}
</style>
<g id="People_x5F_Button">
	<g>
		<g>
			<linearGradient id="SVGID_1_" gradientUnits="userSpaceOnUse" x1="29.0153" y1="34.5252" x2="51.2671" y2="12.2733">
				<stop  offset="0" style="stop-color:#FFFFFF"/>
				<stop  offset="0.2538" style="stop-color:#FBFBFB"/>
				<stop  offset="0.4927" style="stop-color:#F0F0F1"/>
				<stop  offset="0.7258" style="stop-color:#DDDEDF"/>
				<stop  offset="0.9539" style="stop-color:#C2C4C6"/>
				<stop  offset="1" style="stop-color:#BCBEC0"/>
			</linearGradient>
			<circle class="st0" cx="40.1" cy="23.4" r="15.7"/>
			<path class="st1" d="M55.9,23.4c0,6.5-3.9,12-9.5,14.4c5.3-2.5,9-7.9,9-14.2c0-8.7-7-15.7-15.7-15.7c-2.2,0-4.3,0.5-6.3,1.3
				c2-1,4.3-1.5,6.7-1.5C48.8,7.7,55.9,14.7,55.9,23.4z"/>
		</g>
	</g>
</g>
<g id="People">
	<path class="st2" d="M39.5,19c0.8,0,1.4-0.7,1.4-1.5c0-0.8-0.6-1.5-1.4-1.5c-0.8,0-1.4,0.7-1.4,1.5C38.1,18.3,38.7,19,39.5,19z
		 M39.5,16.5c0.5,0,0.9,0.4,0.9,0.9c0,0.5-0.4,0.9-0.9,0.9s-0.9-0.4-0.9-0.9C38.6,16.9,39,16.5,39.5,16.5z"/>
	<path class="st2" d="M39.6,25.6c-0.2,0-0.3,0.1-0.3,0.3v5.8c0,0.2,0.1,0.3,0.3,0.3c0.2,0,0.3-0.1,0.3-0.3v-5.8
		C39.9,25.7,39.8,25.6,39.6,25.6z"/>
	<path class="st2" d="M38.8,19.1l-0.4,0.1c-0.4,0.1-0.7,0.4-1,0.7c-0.1-0.2-0.3-0.3-0.6-0.4l-0.4-0.1c-0.1,0-0.3,0.1-0.3,0.2
		c0,0.2,0.1,0.3,0.2,0.4l0.4,0.1c0.3,0.1,0.3,0.1,0.4,0.4c0,0,0,0.1,0.1,0.1c0,0,0,0,0,0.1l-0.8,4.5c0,0,0,0,0,0
		c0,0.3,0.1,0.7,0.4,0.8l-0.4,4.8c0,0.2,0.1,0.3,0.3,0.3c0,0,0,0,0,0c0.1,0,0.3-0.1,0.3-0.3l0.4-4.8c0.2,0,0.3-0.1,0.4-0.2l0.5,5.9
		c0,0.2,0.1,0.3,0.3,0.3c0,0,0,0,0,0c0.2,0,0.3-0.2,0.2-0.3l-0.6-6.9l0.1-0.6c0,0,0,0,0-0.1l0.2-2.8c0-0.2-0.1-0.3-0.2-0.3
		c-0.2,0-0.3,0.1-0.3,0.3L37.8,24l-0.3,1.3c0,0,0,0,0,0c0,0.1-0.1,0.2-0.3,0.2c-0.1,0-0.2-0.1-0.2-0.3l0.8-4.5c0,0,0,0,0,0
		c0,0,0-0.1,0-0.1c0,0,0,0,0,0c0.1-0.4,0.4-0.7,0.8-0.8l0.4-0.1c0.1,0,0.2-0.2,0.2-0.4C39.1,19.1,39,19,38.8,19.1z"/>
	<path class="st2" d="M39.3,19.7v0.2c0,0.2,0.1,0.3,0.3,0.3c0.2,0,0.3-0.1,0.3-0.3v-0.2c0-0.2-0.1-0.3-0.3-0.3
		C39.4,19.4,39.3,19.5,39.3,19.7z"/>
	<path class="st2" d="M39.6,23.5c0.2,0,0.3-0.1,0.3-0.3v-2.4c0-0.2-0.1-0.3-0.3-0.3c-0.2,0-0.3,0.1-0.3,0.3v2.4
		C39.3,23.3,39.4,23.5,39.6,23.5z"/>
	<path class="st2" d="M43.4,19.3c0.7,0,1.3-0.6,1.3-1.4c0-0.8-0.6-1.4-1.3-1.4c-0.7,0-1.3,0.6-1.3,1.4
		C42.1,18.7,42.7,19.3,43.4,19.3z M43.4,17.2c0.4,0,0.7,0.4,0.7,0.8c0,0.4-0.3,0.8-0.7,0.8c-0.4,0-0.7-0.4-0.7-0.8
		C42.7,17.5,43,17.2,43.4,17.2z"/>
	<path class="st2" d="M43.3,25.1c-0.2,0-0.3,0.1-0.3,0.3v5.4c0,0.2,0.1,0.3,0.3,0.3c0.2,0,0.3-0.1,0.3-0.3v-5.4
		C43.6,25.3,43.5,25.1,43.3,25.1z"/>
	<path class="st2" d="M46.2,24.7C46.2,24.7,46.2,24.7,46.2,24.7l-0.7-4c-0.1-0.6-0.5-1.1-1.1-1.3L44,19.4c-0.1,0-0.3,0.1-0.3,0.2
		c0,0.2,0.1,0.3,0.2,0.4l0.4,0.1c0.4,0.1,0.6,0.4,0.7,0.8c0,0,0,0,0,0l0.7,3.9c0,0.1-0.1,0.2-0.1,0.2c-0.1,0-0.2,0-0.2-0.1
		c0,0,0,0,0,0L45,23.7l-0.2-2.4c0-0.2-0.1-0.3-0.3-0.3c-0.2,0-0.3,0.2-0.2,0.3l0.2,2.4c0,0,0,0,0,0l0,0.6L44,30.8
		c0,0.2,0.1,0.3,0.3,0.3c0,0,0,0,0,0c0.1,0,0.3-0.1,0.3-0.3l0.4-5.1l0.3,4.3c0,0.2,0.1,0.3,0.3,0.3c0,0,0,0,0,0
		c0.2,0,0.3-0.2,0.3-0.3l-0.3-4.4c0,0,0,0,0.1,0C45.9,25.5,46.2,25.1,46.2,24.7z"/>
	<path class="st2" d="M43.1,19.6c0-0.2-0.2-0.2-0.3-0.2l-0.4,0.1c-0.4,0.1-0.5,0.2-0.7,0.4c-0.2-0.4-0.6-0.6-1-0.8l-0.4-0.1
		c-0.1,0-0.3,0.1-0.3,0.2c0,0.2,0.1,0.3,0.2,0.4l0.4,0.1c0.4,0.1,0.7,0.5,0.8,1c0,0,0,0,0,0l0.8,4.5c0,0.1-0.1,0.2-0.2,0.3
		c-0.1,0-0.2-0.1-0.3-0.2c0,0,0,0,0,0l-0.3-1.3c0,0,0,0,0,0L41.3,21c0-0.2-0.1-0.3-0.3-0.3c-0.2,0-0.3,0.1-0.3,0.3l0.1,3.6l-0.5,6.9
		c0,0.2,0.1,0.3,0.3,0.3c0,0,0,0,0,0c0.1,0,0.3-0.1,0.3-0.3l0.4-5.9c0.1,0.2,0.3,0.3,0.5,0.3l0.4,4.8c0,0.2,0.1,0.3,0.3,0.3
		c0,0,0,0,0,0c0.2,0,0.3-0.2,0.3-0.3l-0.4-4.9c0.2-0.2,0.4-0.5,0.3-0.8c0,0,0,0,0,0L42,20.6c0-0.1,0.1-0.1,0.1-0.2
		c0.1-0.2,0.2-0.3,0.4-0.4l0.4-0.1C43,19.9,43.1,19.8,43.1,19.6z"/>
	<path class="st2" d="M43.4,19.7c-0.2,0-0.3,0.1-0.3,0.3v0.1c0,0.2,0.1,0.3,0.3,0.3c0.2,0,0.3-0.1,0.3-0.3V20
		C43.7,19.8,43.5,19.7,43.4,19.7z"/>
	<path class="st2" d="M43.4,20.6c-0.2,0-0.3,0.1-0.3,0.3v2.2c0,0.2,0.1,0.3,0.3,0.3c0.2,0,0.3-0.1,0.3-0.3v-2.2
		C43.7,20.7,43.5,20.6,43.4,20.6z"/>
	<path class="st2" d="M46.1,20c0.6,0,1.1-0.5,1.1-1.2s-0.5-1.2-1.1-1.2c-0.6,0-1.1,0.5-1.1,1.2S45.5,20,46.1,20z M46.1,18.2
		c0.3,0,0.6,0.3,0.6,0.6c0,0.3-0.3,0.6-0.6,0.6c-0.3,0-0.6-0.3-0.6-0.6C45.5,18.5,45.8,18.2,46.1,18.2z"/>
	<path class="st2" d="M46.3,25.6c-0.2,0-0.3,0.1-0.3,0.3V30c0,0.2,0.1,0.3,0.3,0.3c0.2,0,0.3-0.1,0.3-0.3v-4.1
		C46.6,25.7,46.4,25.6,46.3,25.6z"/>
	<path class="st2" d="M48.6,24.6C48.6,24.6,48.6,24.5,48.6,24.6l-0.6-3.3c-0.1-0.5-0.4-1-0.9-1.1l-0.3-0.1c-0.1,0-0.3,0.1-0.3,0.2
		c0,0.2,0.1,0.3,0.2,0.4l0.3,0.1c0.3,0.1,0.5,0.3,0.5,0.6c0,0,0,0,0,0l0.5,3.2c0,0.1,0,0.1-0.1,0.1c0,0-0.1,0-0.1-0.1c0,0,0,0,0,0
		l-0.2-0.8l-0.3-2.1c0-0.2-0.2-0.3-0.3-0.2c-0.1,0-0.3,0.2-0.2,0.3l0.3,2c0,0,0,0.1,0,0.1l0,0l0.1,0.3L46.7,30
		c0,0.2,0.1,0.3,0.3,0.3c0,0,0,0,0,0c0.1,0,0.3-0.1,0.3-0.3l0.4-4.9c0.1,0.1,0.2,0.1,0.3,0.1c0,0,0.1,0,0.1,0
		C48.4,25.2,48.7,24.9,48.6,24.6z"/>
	<path class="st2" d="M35.8,19.3c0.7,0,1.3-0.6,1.3-1.4c0-0.8-0.6-1.4-1.3-1.4c-0.7,0-1.3,0.6-1.3,1.4
		C34.5,18.7,35.1,19.3,35.8,19.3z M35.8,17.2c0.4,0,0.7,0.4,0.7,0.8c0,0.4-0.3,0.8-0.7,0.8c-0.4,0-0.7-0.4-0.7-0.8
		C35.1,17.5,35.4,17.2,35.8,17.2z"/>
	<path class="st2" d="M35.9,25.1c-0.2,0-0.3,0.1-0.3,0.3v5.4c0,0.2,0.1,0.3,0.3,0.3c0.2,0,0.3-0.1,0.3-0.3v-5.4
		C36.2,25.3,36.1,25.1,35.9,25.1z"/>
	<path class="st2" d="M35.2,19.4l-0.4,0.1c-0.6,0.2-1,0.7-1.1,1.3l-0.7,3.9c0,0,0,0,0,0c0,0.4,0.2,0.8,0.6,0.8c0,0,0,0,0.1,0
		L33.5,30c0,0.2,0.1,0.3,0.3,0.3c0,0,0,0,0,0c0.1,0,0.3-0.1,0.3-0.3l0.3-4.3l0.4,5.1c0,0.2,0.1,0.3,0.3,0.3c0,0,0,0,0,0
		c0.2,0,0.3-0.2,0.3-0.3l-0.5-6.4l0-0.6c0,0,0,0,0,0l0.2-2.4c0-0.2-0.1-0.3-0.2-0.3c-0.2,0-0.3,0.1-0.3,0.3l-0.2,2.4L34,24.8
		c0,0,0,0,0,0c0,0.1-0.1,0.2-0.2,0.1c-0.1,0-0.2-0.1-0.1-0.2l0.7-3.9c0,0,0,0,0,0c0.1-0.4,0.3-0.7,0.7-0.8l0.4-0.1
		c0.1,0,0.2-0.2,0.2-0.4C35.5,19.5,35.3,19.4,35.2,19.4z"/>
	<path class="st2" d="M35.6,20v0.1c0,0.2,0.1,0.3,0.3,0.3c0.2,0,0.3-0.1,0.3-0.3V20c0-0.2-0.1-0.3-0.3-0.3
		C35.7,19.7,35.6,19.8,35.6,20z"/>
	<path class="st2" d="M35.9,23.4c0.2,0,0.3-0.1,0.3-0.3v-2.2c0-0.2-0.1-0.3-0.3-0.3c-0.2,0-0.3,0.1-0.3,0.3v2.2
		C35.6,23.3,35.7,23.4,35.9,23.4z"/>
	<path class="st2" d="M33.1,20c0.6,0,1.1-0.5,1.1-1.2s-0.5-1.2-1.1-1.2c-0.6,0-1.1,0.5-1.1,1.2S32.5,20,33.1,20z M33.1,18.2
		c0.3,0,0.6,0.3,0.6,0.6c0,0.3-0.3,0.6-0.6,0.6c-0.3,0-0.6-0.3-0.6-0.6C32.6,18.5,32.8,18.2,33.1,18.2z"/>
	<path class="st2" d="M33,25.6c-0.2,0-0.3,0.1-0.3,0.3V30c0,0.2,0.1,0.3,0.3,0.3c0.2,0,0.3-0.1,0.3-0.3v-4.1
		C33.2,25.7,33.1,25.6,33,25.6z"/>
	<path class="st2" d="M32.7,20.3c0-0.2-0.2-0.2-0.3-0.2l-0.3,0.1c-0.5,0.1-0.9,0.6-0.9,1.1l-0.5,3.3c0,0,0,0,0,0
		c0,0.4,0.2,0.7,0.5,0.7c0,0,0.1,0,0.1,0c0.1,0,0.2,0,0.3-0.1l0.4,4.9c0,0.2,0.1,0.3,0.3,0.3c0,0,0,0,0,0c0.2,0,0.3-0.2,0.3-0.3
		l-0.4-5.8l0-0.3l0,0c0,0,0-0.1,0-0.1l0.3-2c0-0.2-0.1-0.3-0.2-0.3c-0.1,0-0.3,0.1-0.3,0.2l-0.3,2.1l-0.2,0.8c0,0,0,0,0,0
		c0,0.1-0.1,0.1-0.1,0.1c0,0-0.1-0.1-0.1-0.1l0.5-3.2c0,0,0,0,0,0c0-0.3,0.3-0.5,0.5-0.6l0.3-0.1C32.7,20.6,32.8,20.5,32.7,20.3z"/>
</g>
</svg>
