<?xml version="1.0" encoding="utf-8"?>
<!-- Generator: Adobe Illustrator 22.0.0, SVG Export Plug-In . SVG Version: 6.00 Build 0)  -->
<svg version="1.1" id="Layer_1" xmlns="http://www.w3.org/2000/svg" xmlns:xlink="http://www.w3.org/1999/xlink" x="0px" y="0px"
	 viewBox="0 0 64 64" style="enable-background:new 0 0 64 64;" xml:space="preserve">
<style type="text/css">
	.st0{fill:url(#SVGID_1_);}
	.st1{fill:#FFFFFF;}
	.st2{fill:#1E2235;}
</style>
<g id="Range_x5F_Button_1_">
	<g>
		<g>
			<linearGradient id="SVGID_1_" gradientUnits="userSpaceOnUse" x1="29.0153" y1="34.5252" x2="51.2671" y2="12.2733">
				<stop  offset="0" style="stop-color:#FFFFFF"/>
				<stop  offset="0.2538" style="stop-color:#FBFBFB"/>
				<stop  offset="0.4927" style="stop-color:#F0F0F1"/>
				<stop  offset="0.7258" style="stop-color:#DDDEDF"/>
				<stop  offset="0.9539" style="stop-color:#C2C4C6"/>
				<stop  offset="1" style="stop-color:#BCBEC0"/>
			</linearGradient>
			<circle class="st0" cx="40.1" cy="23.4" r="15.7"/>
			<path class="st1" d="M55.9,23.4c0,6.5-3.9,12-9.5,14.4c5.3-2.5,9-7.9,9-14.2c0-8.7-7-15.7-15.7-15.7c-2.2,0-4.3,0.5-6.3,1.3
				c2-1,4.3-1.5,6.7-1.5C48.8,7.7,55.9,14.7,55.9,23.4z"/>
		</g>
	</g>
	<g id="Range_1_">
		<path class="st2" d="M47.7,32.9h-0.5l-0.4-1.2c-0.1-0.2,0-0.5,0.1-0.7l0.7-0.9c0.2-0.3,0.3-0.7,0.3-1l-0.5-3
			c0-0.3-0.2-0.6-0.4-0.8c-0.7-0.7-1.7-1.2-2.9-1.5c0,0,0,0,0,0l-0.2-0.4c-0.1-0.2-0.3-0.3-0.5-0.4c-0.2-0.1-0.4,0-0.6,0.1l-1,0.5
			c0-0.2-0.1-0.5-0.2-0.7c-0.4-0.7-1.4-0.9-2.2-0.5c-0.8,0.4-1,1.3-0.6,2c0.1,0.2,0.3,0.4,0.5,0.5l-1,0.5c-0.4,0.2-0.5,0.7-0.3,1.1
			l0.5,0.9c-0.2,0-0.5,0.1-0.7,0.2c-0.4,0.2-0.6,0.5-0.7,0.9c-0.1,0.4-0.1,0.8,0.2,1.1c0.2,0.3,0.6,0.6,1,0.7
			c0.4,0.1,0.8,0.1,1.2-0.1c0.2-0.1,0.4-0.3,0.5-0.5l0.5,0.9c0.1,0.2,0.3,0.3,0.5,0.4c0.1,0,0.1,0,0.2,0c0.1,0,0.3,0,0.4-0.1
			l1.6-0.8c-0.2,0.5-0.1,1,0.1,1.4c0,0,0,0,0,0c0.4,0.6,0.5,1,0.3,1.6h-0.3c-0.1,0-0.2,0.1-0.2,0.2v1.3c0,0.1,0.1,0.2,0.2,0.2
			c0.1,0,0.2-0.1,0.2-0.2v-1h0.3c0,0,0,0,0,0c0,0,0,0,0,0h3.6v1c0,0.1,0.1,0.2,0.2,0.2c0.1,0,0.2-0.1,0.2-0.2v-1.3
			C47.9,32.9,47.8,32.9,47.7,32.9z M43.6,29.1l-2.2,1.2c-0.1,0-0.2,0.1-0.3,0c-0.1,0-0.2-0.1-0.2-0.2l-0.8-1.2
			c0-0.1-0.1-0.1-0.2-0.1c-0.1,0-0.2,0.1-0.2,0.2c-0.1,0.3-0.3,0.5-0.5,0.6c-0.3,0.1-0.6,0.2-0.8,0.1c-0.3-0.1-0.5-0.2-0.7-0.5
			c-0.1-0.2-0.2-0.5-0.1-0.8c0.1-0.3,0.3-0.5,0.5-0.6c0.3-0.1,0.6-0.2,0.8-0.1c0.1,0,0.2,0,0.3-0.1c0.1-0.1,0.1-0.2,0-0.2l-0.8-1.2
			c-0.1-0.2,0-0.4,0.1-0.5L40,25c0.1,0,0.1-0.1,0.1-0.2c0-0.1-0.1-0.2-0.2-0.2c-0.3-0.1-0.6-0.2-0.7-0.5c-0.3-0.5-0.1-1.1,0.4-1.4
			c0.5-0.3,1.2-0.1,1.5,0.4c0.2,0.2,0.2,0.5,0.1,0.8c0,0.1,0,0.2,0.1,0.2c0.1,0.1,0.2,0.1,0.3,0l1.4-0.7c0.1,0,0.2-0.1,0.3,0
			c0.1,0,0.2,0.1,0.2,0.2l1.5,2.3c-0.1,0.1-0.2,0.1-0.3,0.2c-0.3,0.3-0.4,0.6-0.4,0.9l0,1.5c0,0.1,0,0.1-0.1,0.2
			C44,28.8,43.8,28.9,43.6,29.1C43.7,29.1,43.7,29.1,43.6,29.1z M43.8,31.1c-0.3-0.7,0-1.6,0.7-2c0.2-0.1,0.3-0.3,0.3-0.6l0-1.5
			c0-0.5,0.4-0.9,0.9-0.9c0,0,0,0,0,0c0,0,0,0,0,0l0,0.6h-0.3c0,0,0,0,0,0c0-0.1-0.1-0.2-0.2-0.2c-0.1,0-0.2,0.1-0.2,0.2
			c0,0.2,0.2,0.4,0.5,0.4h0.3l0,1.6c0,0.1,0.1,0.2,0.2,0.2c0.1,0,0.2-0.1,0.2-0.2l0-2.6c0-0.3-0.3-0.5-0.6-0.5c0,0,0,0,0,0
			c-0.1,0-0.2,0-0.3,0l-0.9-1.4c0.9,0.3,1.7,0.7,2.2,1.3c0.1,0.1,0.2,0.3,0.3,0.5l0.5,3c0,0.3,0,0.5-0.2,0.7l-0.7,0.9
			c-0.2,0.3-0.3,0.7-0.2,1.1l0.4,1.1h-2.5C44.3,32.2,44.2,31.7,43.8,31.1z"/>
		<path class="st2" d="M44,27.6c0-0.1,0-0.2,0-0.2l-0.7-0.8l0.3-1c0-0.1,0-0.2-0.1-0.2c-0.1-0.1-0.2-0.1-0.2,0l-1,0.3L41.3,25
			c-0.1,0-0.2-0.1-0.3,0c-0.1,0-0.1,0.1-0.1,0.2l0,1l-0.9,0.6C40,26.9,40,27,40,27.1s0.1,0.1,0.2,0.2l1.1,0.3l0.3,1
			c0,0.1,0.1,0.1,0.2,0.1c0,0,0,0,0,0c0.1,0,0.2,0,0.2-0.1l0.6-0.8l1.1,0C43.8,27.7,43.9,27.6,44,27.6z M42.5,27.2
			c-0.1,0-0.2,0-0.2,0.1l-0.4,0.6l-0.2-0.6c0-0.1-0.1-0.1-0.2-0.1l-0.7-0.2l0.6-0.4c0.1,0,0.1-0.1,0.1-0.2l0-0.7l0.6,0.4
			c0.1,0,0.1,0.1,0.2,0l0.7-0.2l-0.2,0.7c0,0.1,0,0.1,0,0.2l0.5,0.5L42.5,27.2z"/>
		<g id="_x33__1_">
			<path class="st2" d="M33.8,18.4l-0.3-0.9l1.3-0.3c0.1,0,0.2-0.2,0.2-0.3c0-0.1-0.2-0.2-0.3-0.1l-1.3,0.4
				c-0.2,0.1-0.3,0.3-0.3,0.5l0.3,0.9c0,0.1,0.2,0.2,0.3,0.2c0,0,0,0,0,0C33.8,18.7,33.8,18.5,33.8,18.4z"/>
			<path class="st2" d="M38.7,20.1l-1.3,0.4c-0.1,0-0.2,0.2-0.2,0.3c0,0.1,0.2,0.2,0.3,0.2c0,0,0,0,0,0l1.3-0.4
				c0.1,0,0.2-0.2,0.2-0.3C39,20.1,38.8,20,38.7,20.1z"/>
			<path class="st2" d="M36.1,20.8l-1.4,0.4l-0.2-0.7c0-0.1-0.2-0.2-0.3-0.1c-0.1,0-0.2,0.2-0.2,0.3l0.3,0.8
				c0.1,0.2,0.3,0.3,0.5,0.3c0,0,0,0,0,0l1.4-0.4c0.1,0,0.2-0.2,0.2-0.3C36.3,20.8,36.2,20.8,36.1,20.8z"/>
			<path class="st2" d="M40.5,19.1c0.8-0.2,1.3-1,1-1.8l0,0c-0.1-0.4-0.4-0.7-0.7-0.8c-0.4-0.2-0.8-0.2-1.2-0.1
				c-0.2,0.1-0.4,0.2-0.6,0.3l-0.4-1.1c-0.1-0.4-0.6-0.6-1.1-0.5l-1.1,0.3c0-0.2,0-0.5,0-0.7c-0.1-0.4-0.4-0.7-0.8-0.9
				c-0.4-0.2-0.8-0.2-1.3-0.1c-0.4,0.1-0.8,0.4-1,0.7c-0.2,0.4-0.3,0.8-0.1,1.2c0.1,0.2,0.2,0.4,0.4,0.6l-1.1,0.3
				c-0.4,0.1-0.7,0.6-0.6,1l1.5,4.6c0.1,0.4,0.6,0.6,1.1,0.5l1.1-0.3c-0.1,0.3-0.1,0.5,0,0.8c0.1,0.4,0.4,0.7,0.8,0.9
				c0.3,0.2,0.7,0.2,1.1,0.2c0.1,0,0.1,0,0.2,0c0.9-0.2,1.4-1.1,1.1-1.9c-0.1-0.2-0.2-0.5-0.4-0.7l1.1-0.3c0.2-0.1,0.4-0.2,0.5-0.4
				c0.1-0.2,0.1-0.4,0.1-0.6l-0.4-1.1C40.1,19.2,40.3,19.2,40.5,19.1z M39.6,18.6c-0.1,0-0.2,0-0.3,0c-0.1,0.1-0.1,0.1-0.1,0.2
				l0.5,1.5c0.1,0.2-0.1,0.4-0.2,0.4l-1.6,0.4c-0.1,0-0.2,0.1-0.2,0.2c0,0.1,0,0.2,0.1,0.2c0.3,0.1,0.5,0.4,0.6,0.7
				c0.2,0.6-0.2,1.2-0.8,1.4c-0.3,0.1-0.6,0.1-0.9-0.1c-0.3-0.1-0.5-0.4-0.6-0.6c-0.1-0.3-0.1-0.6,0.1-0.9c0.1-0.1,0-0.2,0-0.2
				c-0.1-0.1-0.1-0.1-0.2-0.1c0,0,0,0,0,0l-1.6,0.4c-0.2,0.1-0.4,0-0.4-0.2l-1.5-4.6c-0.1-0.2,0.1-0.4,0.2-0.4l1.6-0.4
				c0.1,0,0.2-0.1,0.2-0.2c0-0.1,0-0.2-0.1-0.2c-0.3-0.1-0.5-0.4-0.6-0.6c-0.1-0.3-0.1-0.6,0.1-0.8c0.2-0.3,0.4-0.4,0.7-0.5
				c0.3-0.1,0.6-0.1,0.9,0.1c0.3,0.1,0.5,0.4,0.6,0.6c0.1,0.3,0.1,0.6-0.1,0.8c0,0.1,0,0.2,0,0.2c0.1,0.1,0.2,0.1,0.3,0.1l1.6-0.4
				c0.2-0.1,0.4,0,0.4,0.2l0.5,1.5c0,0.1,0.1,0.1,0.2,0.2c0.1,0,0.2,0,0.2-0.1c0.1-0.2,0.4-0.4,0.6-0.5c0.3-0.1,0.6,0,0.8,0.1
				c0.3,0.1,0.4,0.3,0.5,0.6l0,0c0.2,0.5-0.2,1.1-0.7,1.2C40.1,18.7,39.8,18.7,39.6,18.6z"/>
			<path class="st2" d="M42.9,19.8c0,0.1,0.1,0.2,0.3,0.2l1.5-0.1c0,0,0,0,0,0c0.2,0,0.3-0.2,0.3-0.4L45,18.5c0-0.1-0.1-0.2-0.3-0.2
				c-0.1,0-0.2,0.1-0.2,0.2l0.1,1l-1.4,0.1C43,19.6,42.9,19.7,42.9,19.8z"/>
			<path class="st2" d="M44.7,16.9C44.7,16.9,44.7,16.9,44.7,16.9c0.1,0,0.2-0.1,0.2-0.2l-0.1-0.9c0-0.1-0.1-0.2-0.1-0.3
				c-0.1-0.1-0.2-0.1-0.3-0.1l-1.4,0.1c-0.1,0-0.2,0.1-0.2,0.2c0,0.1,0.1,0.2,0.3,0.2l1.3-0.1l0,0.8C44.4,16.9,44.6,17,44.7,16.9z"
				/>
			<path class="st2" d="M45.6,14.7c-0.2-0.1-0.4-0.2-0.6-0.2l-5.3,0.3c-0.2,0-0.4,0.1-0.6,0.3c-0.2,0.2-0.2,0.4-0.2,0.6l0,0.2
				c0,0.1,0.1,0.2,0.3,0.2c0.1,0,0.2-0.1,0.2-0.2l0-0.2c0-0.1,0-0.2,0.1-0.2c0.1-0.1,0.2-0.1,0.2-0.1l5.3-0.3c0.1,0,0.2,0,0.3,0.1
				c0.1,0.1,0.1,0.1,0.1,0.2l0.3,4.8c0,0.2-0.1,0.3-0.3,0.3l-1.7,0.1c-0.1,0-0.2,0.1-0.2,0.2c0,0.1,0,0.2,0.1,0.2
				c0.3,0.2,0.4,0.5,0.4,0.8c0,0.3-0.1,0.6-0.3,0.8c-0.2,0.2-0.5,0.3-0.8,0.4c-0.3,0-0.6-0.1-0.9-0.3c-0.2-0.2-0.4-0.5-0.4-0.8
				c0-0.3,0.1-0.6,0.3-0.8c0.1-0.1,0.1-0.2,0-0.2c0-0.1-0.1-0.1-0.2-0.1l-0.9,0c-0.1,0-0.2,0.1-0.2,0.2c0,0.1,0.1,0.2,0.3,0.2l0.4,0
				c-0.1,0.2-0.2,0.5-0.2,0.7c0,0.4,0.2,0.8,0.6,1.1c0.3,0.3,0.8,0.4,1.2,0.4c0.1,0,0.1,0,0.2,0c0.4-0.1,0.7-0.2,1-0.5
				c0.3-0.3,0.5-0.7,0.4-1.1c0-0.3-0.1-0.5-0.3-0.7l1.2-0.1c0.5,0,0.8-0.4,0.8-0.8l-0.3-4.8C45.8,15,45.7,14.8,45.6,14.7z"/>
			<path class="st2" d="M38.5,14.2c0.1,0,0.2-0.1,0.2-0.3l-0.2-1.2c0-0.1-0.1-0.2-0.3-0.2c-0.1,0-0.2,0.1-0.2,0.3l0.2,1.2
				C38.2,14.2,38.3,14.3,38.5,14.2z"/>
			<path class="st2" d="M39.3,14.4c0,0,0.1,0,0.1,0c0.1,0,0.2-0.1,0.2-0.1l0.5-1c0-0.1,0-0.2-0.1-0.3c-0.1,0-0.3,0-0.3,0.1l-0.5,1
				C39.2,14.2,39.2,14.3,39.3,14.4z"/>
			<path class="st2" d="M37.3,14.6c0.1,0.1,0.1,0.1,0.2,0.1c0,0,0.1,0,0.1-0.1c0.1-0.1,0.1-0.2,0-0.3l-0.8-0.8
				c-0.1-0.1-0.2-0.1-0.3,0c-0.1,0.1-0.1,0.2,0,0.3L37.3,14.6z"/>
		</g>
	</g>
</g>
</svg>
