<?xml version="1.0" encoding="utf-8"?>
<!-- Generator: Adobe Illustrator 22.0.0, SVG Export Plug-In . SVG Version: 6.00 Build 0)  -->
<svg version="1.1" id="Layer_1" xmlns="http://www.w3.org/2000/svg" xmlns:xlink="http://www.w3.org/1999/xlink" x="0px" y="0px"
	 viewBox="0 0 64 64" style="enable-background:new 0 0 64 64;" xml:space="preserve">
<style type="text/css">
	.st0{fill:url(#XMLID_4_);}
	.st1{fill:url(#XMLID_5_);}
	.st2{fill:url(#XMLID_6_);}
	.st3{fill:#FFE04E;}
	.st4{fill:url(#XMLID_7_);}
	.st5{fill:#CC2929;}
	.st6{fill:#CF4B4D;}
	.st7{fill:url(#XMLID_8_);}
	.st8{fill:url(#XMLID_9_);}
	.st9{fill:url(#XMLID_10_);}
	.st10{fill:url(#XMLID_11_);}
	.st11{fill:url(#XMLID_12_);}
	.st12{fill:url(#XMLID_13_);}
</style>
<g id="XMLID_52_">
	<g id="XMLID_152_">
		<linearGradient id="XMLID_4_" gradientUnits="userSpaceOnUse" x1="22.4545" y1="25.9786" x2="22.4545" y2="44.9408">
			<stop  offset="0" style="stop-color:#5900D7"/>
			<stop  offset="1" style="stop-color:#34007D"/>
		</linearGradient>
		<path id="XMLID_154_" class="st0" d="M26,26c0,0-5.1,2.3-7.5,10.3s-1.5,10.3,1.2,7.5c2.6-2.8,6.4-5.1,8.3-5.1L26,26z"/>
		<linearGradient id="XMLID_5_" gradientUnits="userSpaceOnUse" x1="41.5455" y1="25.9786" x2="41.5455" y2="44.9408">
			<stop  offset="0" style="stop-color:#5900D7"/>
			<stop  offset="1" style="stop-color:#34007D"/>
		</linearGradient>
		<path id="XMLID_153_" class="st1" d="M38,26c0,0,5.1,2.3,7.5,10.3s1.5,10.3-1.2,7.5c-2.6-2.8-6.4-5.1-8.3-5.1L38,26z"/>
	</g>
	<linearGradient id="XMLID_6_" gradientUnits="userSpaceOnUse" x1="32" y1="59.7153" x2="32" y2="46.586">
		<stop  offset="0" style="stop-color:#FF6D6D"/>
		<stop  offset="1" style="stop-color:#FFE04E"/>
	</linearGradient>
	<path id="XMLID_150_" class="st2" d="M34.1,46.6c0,0,1.7,1.9,1.7,5.6c0,3.6-1.8,5.4-2.1,5.4s-0.6-0.4-0.6-0.4s-0.7,2.6-1.3,2.6
		c-0.7,0-1.6-3.4-1.8-3.6c-0.2-0.2-0.3,0.3-0.8,0.4c-0.5,0.1-1.1-2-1.1-4.5l0,0c0-3.6,1.7-5.4,1.7-5.4H34.1z"/>
	<path id="XMLID_15_" class="st3" d="M33.1,46.9c0,0,1.1,2.4,1.1,4.9s-0.6,3.1-0.8,3.1c-0.3,0-0.6-0.7-0.6-0.7s-0.3,1.3-0.8,1.3
		c-0.5,0-0.9-1.5-1-1.9c0,0-0.2,0.3-0.5,0.3s-0.7-1.6-0.7-3.2s1.1-4.1,1.1-4.1L33.1,46.9z"/>
	<linearGradient id="XMLID_7_" gradientUnits="userSpaceOnUse" x1="32" y1="44.3027" x2="32" y2="47.1387">
		<stop  offset="0" style="stop-color:#5900D7"/>
		<stop  offset="1" style="stop-color:#9482AD"/>
	</linearGradient>
	<path id="XMLID_172_" class="st4" d="M32,44.3h3.6c0,0-0.1,1.4-0.5,2c-0.4,0.6-2.1,0.8-3.1,0.8s-2.7-0.2-3.1-0.8
		c-0.4-0.6-0.5-2-0.5-2H32z"/>
	<path id="XMLID_180_" class="st5" d="M25.1,17.9C26.5,11,30.6,4.8,32,4.8c1.4,0,5.4,6.2,6.8,13.1c1.4,6.9,1.3,17.3-0.5,22
		c-1.5,4.1-2.3,4.9-3.9,4.9c-1.5,0-2.5,0-2.5,0s-1,0-2.5,0c-1.5,0-2.4-0.8-3.9-4.9C23.9,35.2,23.7,24.8,25.1,17.9z"/>
	<path id="XMLID_61_" class="st6" d="M35,12.5l1.4-0.3c0,0,2.4,6.9,2.4,13s-2.3,15.4-2.7,16.6c-0.4,1.3,1.1-6.9,1.1-16.3
		S35,12.5,35,12.5z"/>
	<linearGradient id="XMLID_8_" gradientUnits="userSpaceOnUse" x1="31.9849" y1="4.7623" x2="31.9849" y2="11.979">
		<stop  offset="0" style="stop-color:#5900D7"/>
		<stop  offset="1" style="stop-color:#34007D"/>
	</linearGradient>
	<path id="XMLID_176_" class="st7" d="M32,12c-2.3,0-3.8-0.4-4.7-0.7C29,7.5,31.1,4.8,32,4.8c0.9,0,3,2.7,4.7,6.5
		C35.8,11.6,34.3,12,32,12z"/>
	<linearGradient id="XMLID_9_" gradientUnits="userSpaceOnUse" x1="27.909" y1="18.6462" x2="36.091" y2="18.6462">
		<stop  offset="0" style="stop-color:#5900D7"/>
		<stop  offset="1" style="stop-color:#34007D"/>
	</linearGradient>
	<circle id="XMLID_162_" class="st8" cx="32" cy="18.6" r="4.1"/>
	<linearGradient id="XMLID_10_" gradientUnits="userSpaceOnUse" x1="32" y1="15.5163" x2="32" y2="21.7762">
		<stop  offset="0" style="stop-color:#D1D3D4"/>
		<stop  offset="1" style="stop-color:#FFFFFF"/>
	</linearGradient>
	<circle id="XMLID_159_" class="st9" cx="32" cy="18.6" r="3.1"/>
	<linearGradient id="XMLID_11_" gradientUnits="userSpaceOnUse" x1="34.0842" y1="5.5447" x2="34.0842" y2="11.2593">
		<stop  offset="0" style="stop-color:#5900D7"/>
		<stop  offset="1" style="stop-color:#454DEF"/>
	</linearGradient>
	<path id="XMLID_48_" class="st10" d="M32.3,5.6c-0.4,0.2,1.6,2.6,2.3,5.7c0,0,0.7-0.1,1.4-0.3C36,11,33.1,5.1,32.3,5.6z"/>
	<linearGradient id="XMLID_12_" gradientUnits="userSpaceOnUse" x1="43.9135" y1="30.7957" x2="43.9135" y2="43.3407">
		<stop  offset="0" style="stop-color:#5900D7"/>
		<stop  offset="1" style="stop-color:#454DEF"/>
	</linearGradient>
	<path id="XMLID_24_" class="st11" d="M41.8,30.8c0,0,2,2.5,3,6.1s1.7,6.4,1,6.5c-0.7,0-1.3-1-1.3-1S43.8,35.1,41.8,30.8z"/>
	<linearGradient id="XMLID_13_" gradientUnits="userSpaceOnUse" x1="19.0679" y1="34.1818" x2="19.0679" y2="43.1119">
		<stop  offset="0" style="stop-color:#5900D7"/>
		<stop  offset="1" style="stop-color:#454DEF"/>
	</linearGradient>
	<path id="XMLID_60_" class="st12" d="M20.1,34.2c0,0-1.8,4.6-2,7.7c-0.2,3.1,1-0.5,1-0.5S19.4,37.3,20.1,34.2z"/>
</g>
</svg>
