<?xml version="1.0" encoding="utf-8"?>
<!-- Generator: Adobe Illustrator 22.0.0, SVG Export Plug-In . SVG Version: 6.00 Build 0)  -->
<svg version="1.1" id="Layer_1" xmlns="http://www.w3.org/2000/svg" xmlns:xlink="http://www.w3.org/1999/xlink" x="0px" y="0px"
	 viewBox="0 0 64 64" style="enable-background:new 0 0 64 64;" xml:space="preserve">
<style type="text/css">
	.st0{fill:#CC2929;}
	.st1{clip-path:url(#SVGID_2_);fill:#CF4B4D;}
	.st2{clip-path:url(#SVGID_2_);fill:#CC2929;}
</style>
<g id="XMLID_5_">
	<g id="XMLID_4_">
		<path id="XMLID_10_" class="st0" d="M47.2,10.1h-3.9c-0.7,0-1.3,0.6-1.3,1.3v5.7c0,0.3,0.1,0.6,0.3,0.9l3.9,4.3
			c0.8,0.9,2.3,0.3,2.3-0.9v-10C48.5,10.6,47.9,10.1,47.2,10.1z"/>
		<g id="XMLID_3_">
			<defs>
				<path id="SVGID_1_" d="M9,37.1h2.1c0.7,0,1.3,0.6,1.3,1.3v13.9c3,0.6,6.5,1,10.2,0.9c2.1,0,4.1-0.3,6.2-0.6v-7.3
					c0-0.9,0.8-1.7,1.7-1.7h3.1c0.9,0,1.7,0.8,1.7,1.7v5.8c5.9-1.6,11.4-3.5,16.5-4l-0.1-8.8c0-0.7,0.6-1.3,1.3-1.3H55
					c1.8,0,2.7-2.2,1.4-3.4l-23-23c-0.8-0.8-2-0.8-2.8,0l-23,23C6.3,35,7.2,37.1,9,37.1z"/>
			</defs>
			<use xlink:href="#SVGID_1_"  style="overflow:visible;fill:#CC2929;"/>
			<clipPath id="SVGID_2_">
				<use xlink:href="#SVGID_1_"  style="overflow:visible;"/>
			</clipPath>
			<path id="XMLID_80_" class="st1" d="M9,37.1h2.1c0.7,0,1.3,0.6,1.3,1.3v13.9c3,0.6,6.5,1,10.2,0.9c2.1,0,4.1-0.3,6.2-0.6v-7.3
				c0-0.9,0.8-1.7,1.7-1.7h3.1c0.9,0,1.7,0.8,1.7,1.7v5.8c5.9-1.6,11.4-3.5,16.5-4l-0.1-8.8c0-0.7,0.6-1.3,1.3-1.3H55
				c1.8,0,2.7-2.2,1.4-3.4l-23-23c-0.8-0.8-2-0.8-2.8,0l-23,23C6.3,35,7.2,37.1,9,37.1z"/>
			<path id="XMLID_35_" class="st2" d="M30.3,11.1c0,0,9.4,4.6,5.5,14.1c-4,9.5-22.4,18.8-23.4,28.9h42.8L61.9,36L33.5,7.4
				L30.3,11.1z"/>
		</g>
	</g>
</g>
</svg>
