<?xml version="1.0" encoding="utf-8"?>
<!-- Generator: Adobe Illustrator 22.0.0, SVG Export Plug-In . SVG Version: 6.00 Build 0)  -->
<svg version="1.1" id="Layer_1" xmlns="http://www.w3.org/2000/svg" xmlns:xlink="http://www.w3.org/1999/xlink" x="0px" y="0px"
	 viewBox="0 0 64 64" style="enable-background:new 0 0 64 64;" xml:space="preserve">
<style type="text/css">
	.st0{fill:#292929;}
	.st1{fill:#323232;}
	.st2{fill:#B92626;}
	.st3{fill:#CC2929;}
	.st4{fill:#CF4B4D;}
	.st5{fill:#2F2A2A;}
	.st6{fill:#483F3F;}
	.st7{opacity:0.48;fill:#B5D7DE;}
	.st8{fill:#535C61;}
	.st9{clip-path:url(#SVGID_2_);fill:#687881;}
	.st10{clip-path:url(#SVGID_2_);fill:#53595C;}
	.st11{opacity:0.64;clip-path:url(#SVGID_2_);fill:#FFFFFF;}
	.st12{clip-path:url(#SVGID_4_);fill:#F1F1F1;}
	.st13{clip-path:url(#SVGID_6_);fill:#F1F1F1;}
	.st14{fill:#292424;}
	.st15{opacity:0.2;clip-path:url(#SVGID_8_);fill:#822224;}
</style>
<g>
	<g>
		<path class="st0" d="M50.5,36.9h3.9c1.1,0,2.1,0.9,2.1,2.1v8.7c0,1.1-0.9,2.1-2.1,2.1h-3.9c-1.1,0-2.1-0.9-2.1-2.1V39
			C48.5,37.8,49.4,36.9,50.5,36.9z"/>
		<path class="st1" d="M8.9,36.9h3.9c1.1,0,2.1,0.9,2.1,2.1v8.7c0,1.1-0.9,2.1-2.1,2.1H8.9c-1.1,0-2.1-0.9-2.1-2.1V39
			C6.9,37.9,7.8,36.9,8.9,36.9z"/>
		<path class="st2" d="M56.2,25.2h-3.4c-0.2,0-0.3,0.1-0.3,0.3l0,0c0,0.5-0.2,0.9-0.3,1.3l-0.6,1.3c-0.1,0.2,0,0.4,0.2,0.4l0.9,0.4
			c0.2,0.1,0.4,0,0.4-0.2l0.3-0.7c0.1-0.3,0.4-0.5,0.7-0.5h1.8c0.2,0,0.3-0.1,0.3-0.3l0.4-1.8C56.5,25.4,56.4,25.2,56.2,25.2z"/>
		<path class="st3" d="M7.1,25.2h3.4c0.2,0,0.3,0.1,0.3,0.3l0,0c0,0.5,0.2,0.9,0.3,1.3l0.6,1.3c0.1,0.2,0,0.4-0.2,0.4L10.7,29
			c-0.2,0.1-0.4,0-0.4-0.2l-0.3-0.7c-0.1-0.3-0.4-0.5-0.7-0.5H7.4c-0.2,0-0.3-0.1-0.3-0.3l-0.4-1.8C6.7,25.4,6.8,25.2,7.1,25.2z"/>
		<path class="st3" d="M51.6,27.7l-4.4-9.3c-0.4-0.9-1.3-1.5-2.3-1.5c0,0-10-0.2-13.3-0.2c-3.3,0-13.3,0.2-13.3,0.2
			c-1,0-1.9,0.6-2.3,1.5l-4.4,9.3c-2.7,0.3-4.9,2.6-4.8,5.4l0.4,12.8c0,1.1,0.9,2,2.6,2h44.4c1.1,0,2-0.9,2-2l0.4-12.8
			C56.6,30.2,54.4,27.9,51.6,27.7z M48.5,28.6c0,0-12.7,0.5-16.9,0.5c-4.2,0-16.9-0.5-16.9-0.5c-1.1,0-1.9-1.2-1.4-2.2l3.4-7.1
			c0.4-0.8,1.2-1.3,2-1.3h25.7c0.9,0,1.7,0.5,2,1.3l3.4,7.1C50.3,27.4,49.6,28.6,48.5,28.6z"/>
		<path class="st4" d="M10.6,34.4l6.8,0.5c1.6,0.1,2.9,1,3.6,2.3l0.2,0.4H42l0.2-0.4c0.7-1.4,2-2.2,3.6-2.3l8-0.5
			c0.5,0,1.3-0.3,1.2-0.6L54.7,30c-0.1-0.8-2.4-1.5-5.1-1.5c0,0-13.8,1.3-18.3,1.3c-4.5,0-17.6-1.3-17.6-1.3c-2.7,0-5.1,0.7-5.1,2.8
			l-0.4,2.5C8.2,34.1,9,34.4,10.6,34.4z"/>
		<path class="st3" d="M41.3,36.7c-0.1-0.6-0.6-1-1.2-1H23.1c-0.6,0-1.1,0.4-1.2,1l-1.4,6.8C20.4,44.2,21,45,21.7,45h19.7
			c0.8,0,1.4-0.7,1.2-1.5L41.3,36.7z"/>
		<path class="st5" d="M21.7,46.2h19.7c0.8,0,1.4-0.7,1.2-1.5l-1.4-6.8c-0.1-0.6-0.6-1-1.2-1H23.1c-0.6,0-1.1,0.4-1.2,1l-1.4,6.8
			C20.4,45.4,21,46.2,21.7,46.2z"/>
		<path class="st6" d="M22.9,46.2h18.4c0.7,0,1.3-0.7,1.2-1.3l-1.3-6.1c-0.1-0.5-0.6-0.9-1.2-0.9H24.2c-0.6,0-1,0.4-1.2,0.9
			l-1.3,6.1C21.6,45.5,22.2,46.2,22.9,46.2z"/>
		<path class="st7" d="M18.7,18h25.7c0.9,0,1.7,0.5,2,1.3l3.4,7.1c0.5,1-0.3,2.2-1.4,2.2c0,0-12.7,0.5-16.9,0.5
			c-4.2,0-16.9-0.5-16.9-0.5c-1.1,0-1.9-1.2-1.4-2.2l3.4-7.1C17.1,18.5,17.9,18,18.7,18z"/>
		<path class="st8" d="M28.7,20.4H35c0.4,0,0.7-0.3,0.7-0.7v0c0-0.4-0.3-0.7-0.7-0.7h-6.3c-0.4,0-0.7,0.3-0.7,0.7v0
			C28.1,20.1,28.4,20.4,28.7,20.4z"/>
		<g>
			<defs>
				<path id="SVGID_1_" d="M18.7,18h25.7c0.9,0,1.7,0.5,2,1.3l3.4,7.1c0.5,1-0.3,2.2-1.4,2.2c0,0-12.7,0.5-16.9,0.5
					c-4.2,0-16.9-0.5-16.9-0.5c-1.1,0-1.9-1.2-1.4-2.2l3.4-7.1C17.1,18.5,17.9,18,18.7,18z"/>
			</defs>
			<clipPath id="SVGID_2_">
				<use xlink:href="#SVGID_1_"  style="overflow:visible;"/>
			</clipPath>
			<path class="st9" d="M20,31.8h7c0.8,0,1.4-0.7,1.3-1.5l-0.9-5.7c-0.1-0.6-0.7-1.1-1.3-1.1h-5.3c-0.7,0-1.2,0.5-1.3,1.1l-0.9,5.7
				C18.5,31.1,19.2,31.8,20,31.8z"/>
			<path class="st9" d="M36.8,31.8h7c0.8,0,1.4-0.7,1.3-1.5l-0.9-5.7c-0.1-0.6-0.7-1.1-1.3-1.1h-5.3c-0.7,0-1.2,0.5-1.3,1.1
				l-0.9,5.7C35.3,31.1,35.9,31.8,36.8,31.8z"/>
			<path class="st10" d="M10.4,30.6h41.7c0.5,0,0.3-0.4-0.3-0.9l-2.5-1.9c-0.5-0.4-1.2-0.6-1.6-0.6H14.8c-0.4,0-1.1,0.3-1.6,0.6
				l-2.5,1.9C10.1,30.2,9.9,30.6,10.4,30.6z"/>
			<path class="st10" d="M17.4,27.2c0,0.7,2,1.3,4.5,1.3c2.5,0,4.5-0.6,4.5-1.3c0-0.7-2-1.3-4.5-1.3C19.4,25.8,17.4,26.4,17.4,27.2z
				"/>
			
				<rect x="21.5" y="23.3" transform="matrix(0.5952 0.8036 -0.8036 0.5952 33.4702 -16.1257)" class="st11" width="22.5" height="3.8"/>
			
				<rect x="25.7" y="24.7" transform="matrix(0.5952 0.8036 -0.8036 0.5952 35.2671 -19.4217)" class="st11" width="22.5" height="1.2"/>
		</g>
		<g>
			<g>
				<defs>
					<path id="SVGID_3_" d="M45.6,39.5l8.5-0.5c0.3,0,0.5-0.3,0.5-0.5v-2.3c0-0.3-0.3-0.6-0.6-0.5l-8.5,0.5c-0.3,0-0.5,0.3-0.5,0.5
						V39C45,39.3,45.2,39.6,45.6,39.5z"/>
				</defs>
				<use xlink:href="#SVGID_3_"  style="overflow:visible;fill:#D7D7D7;"/>
				<clipPath id="SVGID_4_">
					<use xlink:href="#SVGID_3_"  style="overflow:visible;"/>
				</clipPath>
				<circle class="st12" cx="51.7" cy="35.6" r="2.2"/>
				<circle class="st12" cx="47.1" cy="36.9" r="1.7"/>
			</g>
		</g>
		<g>
			<g>
				<defs>
					<path id="SVGID_5_" d="M17.7,39.5L9.1,39c-0.3,0-0.5-0.3-0.5-0.5v-2.3c0-0.3,0.3-0.6,0.6-0.5l8.5,0.5c0.3,0,0.5,0.3,0.5,0.5V39
						C18.2,39.3,18,39.6,17.7,39.5z"/>
				</defs>
				<use xlink:href="#SVGID_5_"  style="overflow:visible;fill:#D7D7D7;"/>
				<clipPath id="SVGID_6_">
					<use xlink:href="#SVGID_5_"  style="overflow:visible;"/>
				</clipPath>
				<circle class="st13" cx="11.5" cy="35.8" r="2.1"/>
				<circle class="st13" cx="15.9" cy="36.7" r="1.6"/>
			</g>
		</g>
		<path class="st14" d="M46.8,44.6l6.4-0.4c0.2,0,0.3,0.2,0.3,0.4l-0.3,1.4c0,0.1-0.1,0.2-0.3,0.2h-8c-0.1,0-0.1-0.1-0.1-0.2l0,0
			C45.1,45.2,45.9,44.7,46.8,44.6z"/>
		<path class="st14" d="M16.3,44.6L10,44.2c-0.2,0-0.3,0.2-0.3,0.4l0.3,1.4c0,0.1,0.1,0.2,0.3,0.2h8c0.1,0,0.1-0.1,0.1-0.2l0,0
			C18,45.2,17.2,44.7,16.3,44.6z"/>
		<g>
			<defs>
				<path id="SVGID_7_" d="M11.5,27.7l4.4-9.3c0.4-0.9,1.3-1.5,2.3-1.5h26.7c1,0,1.9,0.6,2.3,1.5l4.4,9.2c2.9,0,5.3,2.5,5.2,5.4
					l-0.4,12.8c0,1.1-1,2-2,2H10c-1.7,0-2.6-0.9-2.6-2L7,33.1C6.9,30.4,8.9,28.1,11.5,27.7z"/>
			</defs>
			<clipPath id="SVGID_8_">
				<use xlink:href="#SVGID_7_"  style="overflow:visible;"/>
			</clipPath>
			<polygon class="st15" points="56.7,16.9 34.1,50 48.7,49.7 61,45 			"/>
		</g>
	</g>
</g>
</svg>
