<svg height="512" viewBox="0 0 512 512" width="512" xmlns="http://www.w3.org/2000/svg"><g id="Filled_outline" data-name="Filled outline"><path d="m488 104v320h-304v-400h224z" fill="#4db7e5"/><path d="m408 24h80v80z" fill="#3b9dc7"/><path d="m408 24v80h80z" fill="#79c6e8"/><path d="m488 120v304h-304v-57.9z" fill="#4aafdb"/><path d="m264 208v216h-80v-240h56a23.968 23.968 0 0 1 24 24z" fill="#4aafdb"/><rect fill="#4d5e78" height="320" rx="24" width="224" x="24" y="168"/><path d="m248 230.01v233.99a23.968 23.968 0 0 1 -24 24h-176a23.968 23.968 0 0 1 -24-24v-52.65z" fill="#485870"/><g fill="#b0b0ae"><path d="m56 296h32v32h-32z"/><path d="m120 296h32v32h-32z"/><path d="m184 296h32v32h-32z"/><path d="m56 360h32v32h-32z"/><path d="m120 360h32v32h-32z"/></g><path d="m184 360h32v96h-32z" fill="#f98500"/><path d="m56 424h32v32h-32z" fill="#b0b0ae"/><path d="m120 424h32v32h-32z" fill="#b0b0ae"/><path d="m56 200h160v64h-160z" fill="#7eb457"/><path d="m56 200h160v16h-160z" fill="#5f943a"/><path d="m152 168h-96v-144l16 8 16-8 16 8 16-8 16 8 16-8z" fill="#60d1e0"/><path d="m488 384v-48h-35.146a95.275 95.275 0 0 0 -10.222-24.691l24.848-24.848-33.941-33.941-24.848 24.848a95.275 95.275 0 0 0 -24.691-10.222v-35.146h-48v35.146a95.275 95.275 0 0 0 -24.691 10.222l-24.848-24.848-33.941 33.941 24.848 24.848a95.275 95.275 0 0 0 -10.222 24.691h-35.146v48h35.146a95.275 95.275 0 0 0 10.222 24.691l-24.848 24.848 33.941 33.941 24.848-24.848a95.31 95.31 0 0 0 24.691 10.222v35.146h48v-35.146a95.31 95.31 0 0 0 24.691-10.222l24.848 24.848 33.941-33.941-24.848-24.848a95.275 95.275 0 0 0 10.222-24.691zm-128-8a16 16 0 1 1 16-16 16 16 0 0 1 -16 16z" fill="#f35244"/><path d="m488 328h-29.141a103.326 103.326 0 0 0 -6.324-15.28l20.6-20.6a8 8 0 0 0 0-11.314l-33.935-33.943a8 8 0 0 0 -11.314 0l-20.6 20.6a103.326 103.326 0 0 0 -15.286-6.322v-29.141a8 8 0 0 0 -8-8h-48a8 8 0 0 0 -8 8v29.141a103.326 103.326 0 0 0 -15.28 6.324l-20.6-20.6a8 8 0 0 0 -11.314 0l-33.943 33.935a8 8 0 0 0 0 11.314l20.6 20.6a103.326 103.326 0 0 0 -6.322 15.286h-29.141a8 8 0 0 0 -8 8v48a8 8 0 0 0 8 8h29.141a103.326 103.326 0 0 0 6.324 15.28l-20.6 20.6a8 8 0 0 0 0 11.314l33.935 33.943a8 8 0 0 0 11.314 0l20.6-20.6a103.258 103.258 0 0 0 15.286 6.321v29.142a8 8 0 0 0 8 8h48a8 8 0 0 0 8-8v-29.142a103.258 103.258 0 0 0 15.28-6.323l20.6 20.6a8 8 0 0 0 11.314 0l33.943-33.935a8 8 0 0 0 0-11.314l-20.6-20.6a103.326 103.326 0 0 0 6.322-15.286h29.141a8 8 0 0 0 8-8v-48a8 8 0 0 0 -8-8zm-8 48h-27.146a8 8 0 0 0 -7.747 6 87.368 87.368 0 0 1 -9.363 22.621 8 8 0 0 0 1.232 9.725l19.191 19.191-22.628 22.628-19.191-19.192a8 8 0 0 0 -9.725-1.231 87.4 87.4 0 0 1 -22.623 9.365 8 8 0 0 0 -6 7.747v27.146h-32v-27.146a8 8 0 0 0 -6-7.747 87.4 87.4 0 0 1 -22.621-9.363 8 8 0 0 0 -9.725 1.231l-19.191 19.192-22.628-22.628 19.191-19.191a8 8 0 0 0 1.232-9.725 87.368 87.368 0 0 1 -9.365-22.623 8 8 0 0 0 -7.747-6h-27.146v-32h27.146a8 8 0 0 0 7.747-6 87.368 87.368 0 0 1 9.363-22.621 8 8 0 0 0 -1.232-9.725l-19.191-19.191 22.628-22.628 19.191 19.191a8 8 0 0 0 9.725 1.232 87.368 87.368 0 0 1 22.623-9.365 8 8 0 0 0 6-7.747v-27.146h32v27.146a8 8 0 0 0 6 7.747 87.368 87.368 0 0 1 22.621 9.363 8 8 0 0 0 9.725-1.232l19.191-19.191 22.628 22.628-19.191 19.191a8 8 0 0 0 -1.232 9.725 87.368 87.368 0 0 1 9.365 22.623 8 8 0 0 0 7.747 6h27.146z"/><path d="m360 336a24 24 0 1 0 24 24 24.028 24.028 0 0 0 -24-24zm0 32a8 8 0 1 1 8-8 8.009 8.009 0 0 1 -8 8z"/><path d="m360 296a64 64 0 1 0 64 64 64.072 64.072 0 0 0 -64-64zm0 112a48 48 0 1 1 48-48 48.055 48.055 0 0 1 -48 48z"/><path d="m48 496h176a32.036 32.036 0 0 0 32-32h-16a16.019 16.019 0 0 1 -16 16h-176a16.019 16.019 0 0 1 -16-16v-272a16.019 16.019 0 0 1 16-16h176a16.019 16.019 0 0 1 16 16v64h16v-64a32.036 32.036 0 0 0 -32-32h-64v-136a8 8 0 0 0 -11.578-7.155l-12.422 6.211-12.422-6.211a8 8 0 0 0 -7.156 0l-12.422 6.211-12.422-6.211a8 8 0 0 0 -7.156 0l-12.422 6.211-12.422-6.211a8 8 0 0 0 -11.578 7.155v136a32.036 32.036 0 0 0 -32 32v272a32.036 32.036 0 0 0 32 32zm16-459.056 4.422 2.211a8 8 0 0 0 7.156 0l12.422-6.211 12.422 6.211a8 8 0 0 0 7.156 0l12.422-6.211 12.422 6.211a8 8 0 0 0 7.156 0l4.422-2.211v123.056h-80z"/><path d="m224 200a8 8 0 0 0 -8-8h-160a8 8 0 0 0 -8 8v64a8 8 0 0 0 8 8h160a8 8 0 0 0 8-8zm-16 56h-144v-48h144z"/><path d="m96 296a8 8 0 0 0 -8-8h-32a8 8 0 0 0 -8 8v32a8 8 0 0 0 8 8h32a8 8 0 0 0 8-8zm-16 24h-16v-16h16z"/><path d="m160 296a8 8 0 0 0 -8-8h-32a8 8 0 0 0 -8 8v32a8 8 0 0 0 8 8h32a8 8 0 0 0 8-8zm-16 24h-16v-16h16z"/><path d="m224 296a8 8 0 0 0 -8-8h-32a8 8 0 0 0 -8 8v32a8 8 0 0 0 8 8h24v-16h-16v-16h16v8h16z"/><path d="m96 360a8 8 0 0 0 -8-8h-32a8 8 0 0 0 -8 8v32a8 8 0 0 0 8 8h32a8 8 0 0 0 8-8zm-16 24h-16v-16h16z"/><path d="m160 360a8 8 0 0 0 -8-8h-32a8 8 0 0 0 -8 8v32a8 8 0 0 0 8 8h32a8 8 0 0 0 8-8zm-16 24h-16v-16h16z"/><path d="m208 368v-16h-24a8 8 0 0 0 -8 8v96a8 8 0 0 0 8 8h32a8 8 0 0 0 8-8v-56h-16v48h-16v-80z"/><path d="m88 416h-32a8 8 0 0 0 -8 8v32a8 8 0 0 0 8 8h32a8 8 0 0 0 8-8v-32a8 8 0 0 0 -8-8zm-8 32h-16v-16h16z"/><path d="m152 416h-32a8 8 0 0 0 -8 8v32a8 8 0 0 0 8 8h32a8 8 0 0 0 8-8v-32a8 8 0 0 0 -8-8zm-8 32h-16v-16h16z"/><path d="m176 224h16v16h-16z"/><path d="m144 224h16v16h-16z"/><path d="m112 224h16v16h-16z"/><path d="m80 64h48v16h-48z"/><path d="m80 96h48v16h-48z"/><path d="m80 128h48v16h-48z"/><path d="m488 16h-304a8 8 0 0 0 -8 8v120h16v-112h208v72a8 8 0 0 0 8 8h72v152h16v-240a8 8 0 0 0 -8-8zm-8 16v52.687l-52.687-52.687zm-64 11.314 52.686 52.686h-52.686z"/><path d="m216 112v3.007a21.016 21.016 0 0 0 20.993 20.993h3.007v16h16v-16h3.007a20.993 20.993 0 0 0 3.451-41.7l-26.286-4.381a4.993 4.993 0 0 1 .821-9.919h22.014a5 5 0 0 1 4.993 4.993v3.007h16v-3.007a21.016 21.016 0 0 0 -20.993-20.993h-3.007v-16h-16v16h-3.007a20.993 20.993 0 0 0 -3.451 41.7l26.286 4.381a4.993 4.993 0 0 1 -.821 9.918h-22.014a5 5 0 0 1 -4.993-4.992v-3.007z"/><path d="m296 64h88v16h-88z"/><path d="m296 96h88v16h-88z"/><path d="m296 128h160v16h-160z"/><path d="m296 160h160v16h-160z"/><path d="m296 192h160v16h-160z"/><path d="m408 224h48v16h-48z"/><path d="m296 224h16v16h-16z"/></g></svg>