<svg height="512" viewBox="0 0 64 64" width="512" xmlns="http://www.w3.org/2000/svg"><g id="Data_storage_protect_cloud_server_sheild" data-name="Data storage_protect_cloud_server_sheild"><path d="m61 26.05a12.975 12.975 0 0 1 -12 12.95h-34a12.993 12.993 0 0 1 -.43-25.87 13.973 13.973 0 0 1 23.96-5.28 7.973 7.973 0 0 1 11.24 5.34 12.981 12.981 0 0 1 11.23 12.86z" fill="#57a4ff"/><path d="m28 3.05a13.845 13.845 0 0 1 9.82 4.05 5.557 5.557 0 0 0 -.82-.05 7.932 7.932 0 0 0 -3.47.8 13.9 13.9 0 0 0 -8.03-4.57 13.757 13.757 0 0 1 2.5-.23z" fill="#2488ff"/><path d="m61 26.05a12.975 12.975 0 0 1 -12 12.95h-5a12.983 12.983 0 0 0 .77-25.81 8 8 0 0 0 -5.27-5.73 7.709 7.709 0 0 1 2.5-.41 8 8 0 0 1 7.77 6.14 12.981 12.981 0 0 1 11.23 12.86z" fill="#2488ff"/><path d="m16 17h32v12h-32z" fill="#fee9ab"/><path d="m16 33h32v12h-32z" fill="#ff7956"/><path d="m20 29h24v4h-24z" fill="#e0e0e2"/><path d="m44 17h4v12h-4z" fill="#ffde55"/><path d="m40 29h4v4h-4z" fill="#c6c5ca"/><path d="m16 49h32v12h-32z" fill="#fee9ab"/><path d="m37 45a9.908 9.908 0 0 0 .9 4h-17.9v-4z" fill="#e0e0e2"/><path d="m61 36v8.86a9.991 9.991 0 0 1 -2.93 7.07l-9.07 9.07-9.07-9.07a10.027 10.027 0 0 1 -2.93-6.93v-9l12-5z" fill="#a78966"/><path d="m61 36v8.86a9.991 9.991 0 0 1 -2.93 7.07l-9.07 9.07-2-2 7.07-7.07a9.991 9.991 0 0 0 2.93-7.07v-8.86l-10-4.17 2-.83z" fill="#957856"/><path d="m58 38v6.86a6.959 6.959 0 0 1 -2.05 4.95l-6.95 6.95-6.95-6.95a6.959 6.959 0 0 1 -2.05-4.95v-6.86l9-3.75z" fill="#ffde55"/><path d="m58 38v6.86a6.959 6.959 0 0 1 -2.05 4.95l-6.95 6.95-2-2 4.95-4.95a6.959 6.959 0 0 0 2.05-4.95v-6.86l-7-2.92 2-.83z" fill="#ffd422"/><g fill="#b2fa09"><circle cx="30" cy="23" r="2"/><circle cx="30" cy="39" r="2"/><circle cx="30" cy="55" r="2"/></g><circle cx="22" cy="23" fill="#ff3051" r="2"/><circle cx="22" cy="39" fill="#ff3051" r="2"/><circle cx="22" cy="55" fill="#ff3051" r="2"/><path d="m32 23a2 2 0 0 1 -3 1.73 2 2 0 0 0 0-3.46 2 2 0 0 1 3 1.73z" fill="#9cdd05"/><path d="m32 39a2 2 0 0 1 -3 1.73 2 2 0 0 0 0-3.46 2 2 0 0 1 3 1.73z" fill="#9cdd05"/><path d="m32 55a2 2 0 0 1 -3 1.73 2 2 0 0 0 0-3.46 2 2 0 0 1 3 1.73z" fill="#9cdd05"/><path d="m24 23a2 2 0 0 1 -3 1.73 2 2 0 0 0 0-3.46 2 2 0 0 1 3 1.73z" fill="#cd2a00"/><path d="m24 39a2 2 0 0 1 -3 1.73 2 2 0 0 0 0-3.46 2 2 0 0 1 3 1.73z" fill="#cd2a00"/><path d="m24 55a2 2 0 0 1 -3 1.73 2 2 0 0 0 0-3.46 2 2 0 0 1 3 1.73z" fill="#cd2a00"/><path d="m46.879 43.465-1.414 1.414 2.828 2.828a1 1 0 0 0 1.414 0l5.657-5.657-1.414-1.414-4.95 4.95z"/><path d="m61.38 35.08-2.05-.86a13.985 13.985 0 0 0 -8.77-21.97 8.956 8.956 0 0 0 -8.56-6.25 8.753 8.753 0 0 0 -3.21.6 14.973 14.973 0 0 0 -24.98 5.57 14 14 0 0 0 .8 27.75 1.006 1.006 0 0 0 .39.08v5a1 1 0 0 0 1 1h3v2h-3a1 1 0 0 0 -1 1v12a1 1 0 0 0 1 1h32a1.047 1.047 0 0 0 .5-.15 1 1 0 0 0 .5.15 1.024 1.024 0 0 0 .71-.29l9.07-9.07a10.922 10.922 0 0 0 3.22-7.78v-8.86a.987.987 0 0 0 -.62-.92zm-46.38-2.08v4.94a11.991 11.991 0 0 1 -.32-23.87.985.985 0 0 0 .85-.71 12.974 12.974 0 0 1 22.25-4.9.992.992 0 0 0 1.19.24 6.9 6.9 0 0 1 3.03-.7 6.977 6.977 0 0 1 6.8 5.36 1 1 0 0 0 .83.76 12.044 12.044 0 0 1 10.37 11.88 11.914 11.914 0 0 1 -2.59 7.42l-8.03-3.34a.916.916 0 0 0 -.76 0l-3.62 1.5v-1.58h3a1 1 0 0 0 1-1v-12a1 1 0 0 0 -1-1h-32a1 1 0 0 0 -1 1v12a1 1 0 0 0 1 1h3v2h-3a1 1 0 0 0 -1 1zm2-5v-10h30v10zm26 2v2h-22v-2zm-26 14v-10h22.2l-2.58 1.08a.987.987 0 0 0 -.62.92v8zm19.46 4h-15.46v-2h15.06a10.423 10.423 0 0 0 .4 2zm-19.46 12v-10h20.27a11.067 11.067 0 0 0 1.95 2.64l7.37 7.36zm43-15.14a8.942 8.942 0 0 1 -2.64 6.36l-8.36 8.37-8.36-8.37a8.942 8.942 0 0 1 -2.64-6.36v-8.19l11-4.59 11 4.59z"/><path d="m58.38 37.08-9-3.75a.916.916 0 0 0 -.76 0l-9 3.75a.987.987 0 0 0 -.62.92v6.86a7.943 7.943 0 0 0 2.34 5.65l6.95 6.95a.99.99 0 0 0 1.42 0l6.95-6.95a7.943 7.943 0 0 0 2.34-5.65v-6.86a.987.987 0 0 0 -.62-.92zm-1.38 7.78a5.928 5.928 0 0 1 -1.76 4.24l-6.24 6.24-6.24-6.24a5.928 5.928 0 0 1 -1.76-4.24v-6.19l8-3.34 8 3.34z"/><path d="m22 20a3 3 0 1 0 3 3 3 3 0 0 0 -3-3zm0 4a1 1 0 1 1 1-1 1 1 0 0 1 -1 1z"/><path d="m30 20a3 3 0 1 0 3 3 3 3 0 0 0 -3-3zm0 4a1 1 0 1 1 1-1 1 1 0 0 1 -1 1z"/><path d="m36 20h2v2h-2z"/><path d="m36 24h2v2h-2z"/><path d="m42 20h2v2h-2z"/><path d="m42 24h2v2h-2z"/><path d="m22 36a3 3 0 1 0 3 3 3 3 0 0 0 -3-3zm0 4a1 1 0 1 1 1-1 1 1 0 0 1 -1 1z"/><path d="m30 36a3 3 0 1 0 3 3 3 3 0 0 0 -3-3zm0 4a1 1 0 1 1 1-1 1 1 0 0 1 -1 1z"/><path d="m22 52a3 3 0 1 0 3 3 3 3 0 0 0 -3-3zm0 4a1 1 0 1 1 1-1 1 1 0 0 1 -1 1z"/><path d="m30 52a3 3 0 1 0 3 3 3 3 0 0 0 -3-3zm0 4a1 1 0 1 1 1-1 1 1 0 0 1 -1 1z"/><path d="m36 52h2v2h-2z"/><path d="m36 56h2v2h-2z"/><path d="m2 48h2v2h-2z"/><path d="m6 48h6v2h-6z"/><path d="m2 54h2v2h-2z"/><path d="m6 54h6v2h-6z"/><path d="m2 60h2v2h-2z"/><path d="m6 60h6v2h-6z"/></g></svg>